<svg width="78" height="77" viewBox="0 0 78 77" fill="none" xmlns="http://www.w3.org/2000/svg">
<g id="Balad-Logo 1" filter="url(#filter0_d_5235_88840)">
<g clip-path="url(#clip0_5235_88840)">
<g id="Group">
<path id="Vector" d="M27.0815 11L27.1054 22.7491" stroke="#4E41A7" stroke-width="2"/>
<path id="Vector_2" d="M27.1054 22.749C27.1066 22.7392 27.0944 22.7478 27.0686 22.7747" stroke="#8E7850" stroke-width="2"/>
<path id="Vector_3" d="M27.0687 22.7748L15.3333 22.7528" stroke="#4E41A7" stroke-width="2"/>
<path id="Vector_4" d="M50.5677 11.0229C50.5775 11.1147 50.5824 11.2065 50.5824 11.2983C50.583 18.4126 50.583 25.5269 50.5824 32.6411C50.5824 32.7935 50.5699 33.0092 50.5448 33.2883" stroke="#4E41A7" stroke-width="2"/>
<path id="Vector_5" d="M50.5448 33.2882C50.483 32.9523 50.4206 32.616 50.3575 32.2794C50.065 30.7207 49.4876 29.2988 48.6253 28.0136C46.4011 24.6988 42.7586 22.7399 38.7415 22.7454C34.8622 22.7515 30.9835 22.7527 27.1054 22.749" stroke="#B8A09F" stroke-width="2"/>
<path id="Vector_6" d="M15.3333 46.2463L37.4389 46.2417" stroke="#4E41A7" stroke-width="2"/>
<path id="Vector_7" d="M37.4389 46.2418C38.5185 46.2675 39.3887 46.2494 40.0497 46.1876C41.7332 46.031 43.3537 45.4848 44.9112 44.5491C46.383 43.6654 47.6232 42.4726 48.6317 40.9708C49.6923 39.3913 50.3233 37.6251 50.5246 35.6723C50.5986 34.9532 50.6054 34.1586 50.5448 33.2883" stroke="#8E7850" stroke-width="2"/>
<path id="Vector_8" d="M27.0686 22.7748C27.0803 22.8274 27.0861 22.8803 27.0861 22.9336C27.0867 26.827 27.0873 30.6748 27.0879 34.477C27.0885 36.5302 27.5787 38.4359 28.5585 40.1942C30.3816 43.4658 33.6422 45.691 37.4004 46.161C37.4255 46.164 37.438 46.1781 37.438 46.2032C37.4386 46.216 37.4389 46.2289 37.4389 46.2417" stroke="#B8A09F" stroke-width="2"/>
<path id="Vector_9" d="M46.6618 34.4999C46.6618 32.4237 45.837 30.4325 44.3689 28.9644C42.9008 27.4963 40.9096 26.6715 38.8334 26.6715C36.7571 26.6715 34.7659 27.4963 33.2978 28.9644C31.8297 30.4325 31.0049 32.4237 31.0049 34.4999C31.0049 36.5762 31.8297 38.5674 33.2978 40.0355C34.7659 41.5036 36.7571 42.3284 38.8334 42.3284C40.9096 42.3284 42.9008 41.5036 44.3689 40.0355C45.837 38.5674 46.6618 36.5762 46.6618 34.4999Z" stroke="#FCA824" stroke-width="2"/>
<path id="Vector_10" d="M42.7466 34.5C42.7466 33.4621 42.3344 32.4667 41.6005 31.7328C40.8666 30.999 39.8712 30.5867 38.8333 30.5867C37.7955 30.5867 36.8001 30.999 36.0662 31.7328C35.3323 32.4667 34.92 33.4621 34.92 34.5C34.92 35.5378 35.3323 36.5332 36.0662 37.2671C36.8001 38.001 37.7955 38.4133 38.8333 38.4133C39.8712 38.4133 40.8666 38.001 41.6005 37.2671C42.3344 36.5332 42.7466 35.5378 42.7466 34.5Z" stroke="#FFBC80" stroke-width="2"/>
</g>
<path id="Vector_11" d="M27.0815 11L27.1054 22.7491C27.1066 22.7393 27.0944 22.7479 27.0687 22.7748L15.3333 22.7528V17.3854C15.4068 15.8652 15.9034 14.5476 16.8232 13.4326C18.0637 11.9284 19.6919 11.1175 21.7077 11H27.0815Z" fill="#241957"/>
<path id="Vector_12" d="M50.4805 11C50.505 11.0129 50.5341 11.0205 50.5677 11.0229C50.5775 11.1147 50.5824 11.2065 50.5824 11.2983C50.583 18.4126 50.583 25.5269 50.5824 32.6411C50.5824 32.7935 50.5699 33.0092 50.5448 33.2883C50.483 32.9523 50.4206 32.616 50.3575 32.2794C50.065 30.7207 49.4876 29.2988 48.6253 28.0136C46.4011 24.6988 42.7586 22.7399 38.7416 22.7454C34.8622 22.7515 30.9835 22.7528 27.1054 22.7491L27.0815 11H50.4805Z" fill="#7868F6"/>
<path id="Vector_13" d="M55.9516 11C57.9387 11.1126 59.5516 11.9021 60.7902 13.3684C61.7394 14.492 62.2538 15.827 62.3333 17.3735V51.6183C62.2207 53.5999 61.4353 55.2097 59.9769 56.4477C58.8503 57.4036 57.5109 57.9211 55.959 58H21.716C19.7283 57.888 18.1148 57.0986 16.8755 55.6316C15.9257 54.5074 15.4117 53.1721 15.3333 51.6256V46.2463L37.4389 46.2417C38.5185 46.2674 39.3887 46.2494 40.0497 46.1876C41.7332 46.0309 43.3537 45.4847 44.9112 44.549C46.383 43.6653 47.6232 42.4726 48.6317 40.9708C49.6923 39.3912 50.3232 37.6251 50.5246 35.6722C50.5986 34.9532 50.6054 34.1585 50.5448 33.2883C50.5699 33.0092 50.5824 32.7935 50.5824 32.6411C50.583 25.5269 50.583 18.4126 50.5824 11.2983C50.5824 11.2065 50.5775 11.1147 50.5677 11.0229L50.6448 11H55.9516Z" fill="#241957"/>
<path id="Vector_14" d="M27.0687 22.7748C27.0803 22.8275 27.0861 22.8804 27.0861 22.9336C27.0867 26.8271 27.0873 30.6749 27.0879 34.4771C27.0885 36.5303 27.5787 38.436 28.5585 40.1942C30.3816 43.4659 33.6422 45.691 37.4004 46.161C37.4255 46.1641 37.438 46.1781 37.438 46.2032C37.4386 46.2161 37.4389 46.2289 37.4389 46.2418L15.3333 46.2464V22.7528L27.0687 22.7748Z" fill="#7868F6"/>
<path id="Vector_15" d="M27.1054 22.749C30.9835 22.7527 34.8622 22.7515 38.7415 22.7454C42.7586 22.7399 46.4011 24.6988 48.6253 28.0136C49.4876 29.2987 50.065 30.7207 50.3575 32.2794C50.4206 32.616 50.483 32.9523 50.5448 33.2882C50.6054 34.1585 50.5986 34.9531 50.5246 35.6722C50.3232 37.625 49.6923 39.3912 48.6317 40.9707C47.6232 42.4725 46.383 43.6653 44.9112 44.549C43.3537 45.4847 41.7332 46.0309 40.0496 46.1875C39.3887 46.2493 38.5185 46.2674 37.4389 46.2417C37.4389 46.2288 37.4386 46.216 37.438 46.2031C37.438 46.178 37.4255 46.164 37.4004 46.1609C33.6422 45.6909 30.3816 43.4658 28.5585 40.1941C27.5787 38.4359 27.0885 36.5302 27.0879 34.477C27.0873 30.6748 27.0867 26.827 27.0861 22.9335C27.0861 22.8803 27.0803 22.8274 27.0686 22.7747C27.0944 22.7478 27.1066 22.7392 27.1054 22.749ZM46.6618 34.5C46.6618 32.4237 45.837 30.4325 44.3689 28.9644C42.9008 27.4963 40.9096 26.6715 38.8333 26.6715C36.7571 26.6715 34.7659 27.4963 33.2978 28.9644C31.8297 30.4325 31.0049 32.4237 31.0049 34.5C31.0049 36.5762 31.8297 38.5674 33.2978 40.0355C34.7659 41.5036 36.7571 42.3284 38.8333 42.3284C40.9096 42.3284 42.9008 41.5036 44.3689 40.0355C45.837 38.5674 46.6618 36.5762 46.6618 34.5Z" fill="#F8D748"/>
<path id="Vector_16" d="M46.6618 34.4999C46.6618 36.5762 45.837 38.5674 44.3689 40.0355C42.9008 41.5036 40.9096 42.3284 38.8334 42.3284C36.7571 42.3284 34.7659 41.5036 33.2978 40.0355C31.8297 38.5674 31.0049 36.5762 31.0049 34.4999C31.0049 32.4237 31.8297 30.4325 33.2978 28.9644C34.7659 27.4963 36.7571 26.6715 38.8334 26.6715C40.9096 26.6715 42.9008 27.4963 44.3689 28.9644C45.837 30.4325 46.6618 32.4237 46.6618 34.4999ZM42.7467 34.4999C42.7467 33.4621 42.3344 32.4667 41.6005 31.7328C40.8666 30.9989 39.8712 30.5866 38.8334 30.5866C37.7955 30.5866 36.8001 30.9989 36.0662 31.7328C35.3323 32.4667 34.92 33.4621 34.92 34.4999C34.92 35.5378 35.3323 36.5332 36.0662 37.2671C36.8001 38.001 37.7955 38.4132 38.8334 38.4132C39.8712 38.4132 40.8666 38.001 41.6005 37.2671C42.3344 36.5332 42.7467 35.5378 42.7467 34.4999Z" fill="#FF7800"/>
<path id="Vector_17" d="M38.8333 38.4133C40.9946 38.4133 42.7466 36.6612 42.7466 34.5C42.7466 32.3387 40.9946 30.5867 38.8333 30.5867C36.6721 30.5867 34.92 32.3387 34.92 34.5C34.92 36.6612 36.6721 38.4133 38.8333 38.4133Z" fill="white"/>
</g>
</g>
<defs>
<filter id="filter0_d_5235_88840" x="0.333344" y="0" width="77" height="77" filterUnits="userSpaceOnUse" color-interpolation-filters="sRGB">
<feFlood flood-opacity="0" result="BackgroundImageFix"/>
<feColorMatrix in="SourceAlpha" type="matrix" values="0 0 0 0 0 0 0 0 0 0 0 0 0 0 0 0 0 0 127 0" result="hardAlpha"/>
<feOffset dy="4"/>
<feGaussianBlur stdDeviation="7.5"/>
<feComposite in2="hardAlpha" operator="out"/>
<feColorMatrix type="matrix" values="0 0 0 0 0.611765 0 0 0 0 0.639216 0 0 0 0 0.686275 0 0 0 0.5 0"/>
<feBlend mode="normal" in2="BackgroundImageFix" result="effect1_dropShadow_5235_88840"/>
<feBlend mode="normal" in="SourceGraphic" in2="effect1_dropShadow_5235_88840" result="shape"/>
</filter>
<clipPath id="clip0_5235_88840">
<rect x="15.3333" y="11" width="47" height="47" rx="8" fill="white"/>
</clipPath>
</defs>
</svg>
