<svg xmlns="http://www.w3.org/2000/svg" width="344" height="211" viewBox="0 0 344 211" fill="none">
<path d="M330.118 0.623413H13.5599C6.85506 0.623413 1.41968 6.06868 1.41968 12.7857L1.41966 197.18C1.41966 203.897 6.85504 209.343 13.5599 209.343H330.118C336.822 209.343 342.258 203.897 342.258 197.18L342.258 12.7857C342.258 6.06868 336.822 0.623413 330.118 0.623413Z" fill="#FF7959" stroke="#481B6B" stroke-linecap="round" stroke-linejoin="round"/>
<path d="M332.247 0.0117188C333.503 0.0721607 334.74 0.348312 335.905 0.830078C337.235 1.38076 338.444 2.18992 339.462 3.20898C340.481 4.22798 341.289 5.43766 341.84 6.76953C342.391 8.10143 342.675 9.52995 342.675 10.9717L342.727 64.9385C342.727 65.2145 342.503 65.439 342.227 65.4395L1.38013 65.7305C1.24772 65.7304 1.12034 65.6775 1.02661 65.584C0.93311 65.4905 0.880415 65.3637 0.880127 65.2314L0.829346 11.2637C0.825508 9.82042 1.10487 8.39019 1.65356 7.05566C2.20219 5.72135 3.00933 4.50916 4.02661 3.4873C5.04413 2.46534 6.25328 1.65379 7.58423 1.10059C8.915 0.547476 10.3417 0.262591 11.7825 0.262695L331.708 0L332.247 0.0117188Z" fill="#481B6B"/>
<path d="M123.071 164.146C222.848 120.51 250.979 89.6527 342.609 93.7797L342.706 93.7943C342.925 93.8482 343.086 94.0459 343.087 94.2797L343.171 198.96L343.159 199.501C343.1 200.76 342.826 202.001 342.346 203.168C341.798 204.503 340.991 205.716 339.973 206.738C338.956 207.76 337.747 208.57 336.416 209.123C335.251 209.607 334.013 209.886 332.757 209.948L332.218 209.961L12.3054 210.239L12.3064 210.24C10.8655 210.243 9.43749 209.963 8.10522 209.413C6.77312 208.864 5.56271 208.056 4.54272 207.036C3.52262 206.017 2.71301 204.806 2.16089 203.473C1.60887 202.14 1.3239 200.711 1.32397 199.268L1.32202 193.436C1.32203 193.297 1.3802 193.164 1.48218 193.07C1.58413 192.975 1.72053 192.926 1.85913 192.937C24.5671 194.671 62.9413 190.439 123.071 164.146Z" fill="#481B6B"/>
<path d="M61.806 47.9117L34.3592 47.9362C31.8135 47.9385 29.7516 50.0002 29.7539 52.5413L29.7774 78.7231C29.7797 81.2642 31.8452 83.3223 34.391 83.32L61.8377 83.2955C64.3835 83.2932 66.4454 81.2314 66.4431 78.6904L66.4196 52.5085C66.4173 49.9675 64.3517 47.9094 61.806 47.9117Z" fill="#E5E7EB" stroke="#481B6B" stroke-linecap="round" stroke-linejoin="round"/>
<path d="M51.5167 60.1214L44.655 60.1275C43.4112 60.1286 42.4037 61.136 42.4048 62.3775L42.4107 68.8518C42.4118 70.0934 43.421 71.0989 44.6649 71.0978L51.5265 71.0917C52.7704 71.0906 53.7778 70.0832 53.7767 68.8417L53.7709 62.3674C53.7698 61.1258 52.7606 60.1203 51.5167 60.1214Z" fill="#E5E7EB" stroke="#481B6B" stroke-linecap="round" stroke-linejoin="round"/>
<path d="M29.7387 51.902L40.4814 51.895C40.9796 51.8941 41.473 51.9914 41.9334 52.1814C42.3938 52.3713 42.812 52.6502 43.1642 53.0019C43.5164 53.3536 43.7955 53.7712 43.9855 54.2308C44.1756 54.6905 44.2728 55.183 44.2717 55.6803L44.2847 60.1863" stroke="#481B6B" stroke-linecap="round" stroke-linejoin="round"/>
<path d="M66.4051 51.8763L55.7983 51.877C54.7934 51.8786 53.8301 52.2777 53.1193 52.9868C52.4085 53.6958 52.0082 54.6571 52.0059 55.6602L52.019 60.1662" stroke="#481B6B" stroke-linecap="round" stroke-linejoin="round"/>
<path d="M29.771 79.6551L40.5136 79.648C41.0106 79.6472 41.5026 79.5486 41.9614 79.358C42.4202 79.1674 42.8369 78.8884 43.1877 78.537C43.5385 78.1856 43.8165 77.7686 44.0058 77.31C44.1951 76.8513 44.292 76.3599 44.291 75.8638L44.293 71.3588" stroke="#481B6B" stroke-linecap="round" stroke-linejoin="round"/>
<path d="M66.4378 79.6327L55.9058 79.6382C55.4075 79.6411 54.9135 79.5458 54.4522 79.3577C53.9909 79.1695 53.5713 78.8923 53.2177 78.5419C52.864 78.1914 52.5832 77.7747 52.3913 77.3157C52.1994 76.8566 52.1003 76.3643 52.0996 75.8669L52.1016 71.3618" stroke="#481B6B" stroke-linecap="round" stroke-linejoin="round"/>
<path d="M29.8151 66.4877L42.3923 66.4777" stroke="#481B6B" stroke-linecap="round" stroke-linejoin="round"/>
<path d="M53.7976 66.4677L66.0437 66.4684" stroke="#481B6B" stroke-linecap="round" stroke-linejoin="round"/>
<path d="M229.332 39.872C227.967 39.872 226.916 39.4773 226.18 38.688C225.444 37.9093 225.076 36.8107 225.076 35.392V32.288H226.724V35.36C226.724 36.2773 226.938 36.9707 227.364 37.44C227.802 37.9093 228.463 38.144 229.348 38.144H230.004C230.57 38.144 231.06 38.0373 231.476 37.824C231.892 37.6213 232.207 37.3173 232.42 36.912C232.644 36.5173 232.756 36.048 232.756 35.504V30.688H234.42V35.36C234.42 36.2987 234.234 37.104 233.86 37.776C233.498 38.4587 232.98 38.976 232.308 39.328C231.636 39.6907 230.868 39.872 230.004 39.872H229.332ZM228.468 30.304V28.736H230.388V30.304H228.468ZM243.034 35.424C243.034 36.3413 242.864 37.1307 242.522 37.792C242.192 38.464 241.712 38.976 241.082 39.328C240.464 39.6907 239.728 39.872 238.874 39.872H236.81L236.666 38.144H238.922C239.68 38.144 240.277 37.952 240.714 37.568C241.152 37.184 241.376 36.6613 241.386 36H240.01C238.88 36 238.069 35.7707 237.578 35.312C237.088 34.8427 236.842 34.112 236.842 33.12C236.842 32.4373 236.97 31.8347 237.226 31.312C237.493 30.7893 237.861 30.384 238.33 30.096C238.81 29.7973 239.36 29.648 239.978 29.648C240.917 29.648 241.658 29.968 242.202 30.608C242.757 31.2373 243.034 32.1013 243.034 33.2V35.424ZM238.506 33.04C238.506 33.3387 238.554 33.5787 238.65 33.76C238.757 33.9307 238.922 34.0587 239.146 34.144C239.37 34.2293 239.685 34.272 240.09 34.272H241.386V33.232C241.386 32.6027 241.258 32.128 241.002 31.808C240.746 31.4773 240.378 31.312 239.898 31.312C239.461 31.312 239.12 31.472 238.874 31.792C238.629 32.1013 238.506 32.5173 238.506 33.04ZM244.293 38.144C245.114 38.144 245.754 37.9093 246.213 37.44C246.682 36.9707 246.917 36.32 246.917 35.488V30.688H248.581V33.152C248.581 33.5253 248.682 33.808 248.885 34C249.087 34.1813 249.391 34.272 249.797 34.272H250.021C250.127 34.272 250.181 34.5707 250.181 35.168C250.181 35.7227 250.127 36 250.021 36H249.797C249.541 36 249.301 35.9627 249.077 35.888C248.853 35.8027 248.687 35.6907 248.581 35.552V35.648C248.549 36.48 248.357 37.216 248.005 37.856C247.653 38.496 247.157 38.992 246.517 39.344C245.887 39.696 245.151 39.872 244.309 39.872H243.845L243.701 38.144H244.293ZM246.693 28.864V27.296H248.613V28.864H246.693ZM250.545 34.272C250.876 34.272 251.142 34.1867 251.345 34.016C251.548 33.8347 251.649 33.584 251.649 33.264V25.664H253.313V33.184C253.313 33.5573 253.409 33.8347 253.601 34.016C253.793 34.1867 254.06 34.272 254.401 34.272H254.833C254.94 34.272 254.993 34.5653 254.993 35.152C254.993 35.7173 254.94 36 254.833 36H254.321C253.873 36 253.489 35.9307 253.169 35.792C252.86 35.6427 252.63 35.4187 252.481 35.12C252.3 35.4187 252.044 35.6427 251.713 35.792C251.393 35.9307 251.004 36 250.545 36H250.017C249.91 36 249.857 35.7227 249.857 35.168C249.857 34.5707 249.91 34.272 250.017 34.272H250.545ZM255.997 34.272C256.808 34.272 257.474 34.2187 257.997 34.112C258.53 33.9947 259.074 33.7707 259.629 33.44L261.645 32.288C261.506 31.7867 261.309 31.4453 261.053 31.264C260.797 31.072 260.413 30.976 259.901 30.976H256.205L256.413 29.248H260.189C260.85 29.248 261.389 29.36 261.805 29.584C262.221 29.808 262.568 30.176 262.845 30.688C263.122 31.2 263.368 31.9147 263.581 32.832L260.397 34.832C259.682 35.28 259 35.5893 258.349 35.76C257.698 35.92 256.888 36 255.917 36H254.845C254.738 36 254.685 35.7227 254.685 35.168C254.685 34.816 254.701 34.5813 254.733 34.464C254.765 34.336 254.802 34.272 254.845 34.272H255.997ZM273.504 39.872C272.139 39.872 271.088 39.4773 270.352 38.688C269.616 37.9093 269.248 36.8107 269.248 35.392V32.288H270.896V35.36C270.896 36.2773 271.109 36.9707 271.536 37.44C271.973 37.9093 272.635 38.144 273.52 38.144H274.176C274.741 38.144 275.232 38.0373 275.648 37.824C276.064 37.6213 276.379 37.3173 276.592 36.912C276.816 36.5173 276.928 36.048 276.928 35.504V25.664H278.592V35.36C278.592 36.2987 278.405 37.104 278.032 37.776C277.669 38.4587 277.152 38.976 276.48 39.328C275.808 39.6907 275.04 39.872 274.176 39.872H273.504ZM282.819 33.04C282.819 33.3387 282.867 33.5787 282.963 33.76C283.069 33.9307 283.235 34.0587 283.459 34.144C283.683 34.2293 283.997 34.272 284.403 34.272H285.699V33.232C285.699 32.6027 285.571 32.128 285.315 31.808C285.059 31.4773 284.691 31.312 284.211 31.312C283.773 31.312 283.432 31.472 283.187 31.792C282.941 32.1013 282.819 32.5173 282.819 33.04ZM288.739 34.272C288.845 34.272 288.899 34.5707 288.899 35.168C288.899 35.7227 288.845 36 288.739 36H287.315C287.219 37.216 286.803 38.1653 286.067 38.848C285.331 39.5307 284.371 39.872 283.187 39.872H281.123L280.979 38.144H283.235C283.992 38.144 284.589 37.952 285.027 37.568C285.464 37.184 285.688 36.6613 285.699 36H284.323C283.192 36 282.381 35.7707 281.891 35.312C281.4 34.8427 281.155 34.112 281.155 33.12C281.155 32.4373 281.283 31.8347 281.539 31.312C281.805 30.7893 282.173 30.384 282.643 30.096C283.123 29.7973 283.672 29.648 284.291 29.648C285.229 29.648 285.971 29.968 286.515 30.608C287.069 31.2373 287.347 32.1013 287.347 33.2V34.272H288.739ZM292.624 34.272C292.954 34.272 293.221 34.1867 293.424 34.016C293.626 33.8347 293.728 33.584 293.728 33.264V30.688H295.392V33.312C295.392 34.1547 295.141 34.816 294.64 35.296C294.138 35.7653 293.466 36 292.624 36H288.736C288.629 36 288.576 35.7227 288.576 35.168C288.576 34.816 288.592 34.5813 288.624 34.464C288.656 34.336 288.693 34.272 288.736 34.272H292.624ZM290.272 41.76V40.272H291.872V41.76H290.272ZM290.992 39.408V37.872H293.248V39.408H290.992ZM288.896 39.408V37.872H291.152V39.408H288.896ZM304.995 34.272C304.718 34.0587 304.499 33.776 304.339 33.424C304.19 33.0613 304.115 32.6933 304.115 32.32C304.115 31.744 304.249 31.2213 304.515 30.752C304.793 30.272 305.171 29.8933 305.651 29.616C306.142 29.328 306.675 29.184 307.251 29.184C307.87 29.184 308.414 29.312 308.883 29.568C309.353 29.824 309.721 30.1867 309.987 30.656C310.254 31.1147 310.387 31.6427 310.387 32.24C310.387 32.6453 310.307 33.024 310.147 33.376C309.987 33.7173 309.747 34.016 309.427 34.272H311.667C311.774 34.272 311.827 34.5707 311.827 35.168C311.827 35.7227 311.774 36 311.667 36H309.523C308.894 36 308.409 35.9787 308.067 35.936C307.726 35.8933 307.459 35.8187 307.267 35.712C307.075 35.8187 306.798 35.8933 306.435 35.936C306.083 35.9787 305.598 36 304.979 36H300.675C299.726 36 299.006 35.7547 298.515 35.264C298.025 34.7627 297.779 34.0587 297.779 33.152V30.688H299.427V32.928C299.427 33.376 299.534 33.712 299.747 33.936C299.961 34.16 300.297 34.272 300.755 34.272H304.995ZM307.251 34.256C307.742 34.0427 308.11 33.7653 308.355 33.424C308.601 33.072 308.723 32.704 308.723 32.32C308.723 31.8613 308.595 31.504 308.339 31.248C308.083 30.9813 307.721 30.848 307.251 30.848C306.803 30.848 306.446 30.9867 306.179 31.264C305.913 31.5307 305.779 31.8827 305.779 32.32C305.779 32.7253 305.907 33.0933 306.163 33.424C306.419 33.7547 306.782 34.032 307.251 34.256ZM306.275 27.424V25.856H308.195V27.424H306.275ZM313.593 34.272C313.934 34.272 314.206 34.1867 314.409 34.016C314.622 33.8347 314.729 33.584 314.729 33.264V30.688H316.393V33.2C316.393 33.552 316.484 33.8187 316.665 34C316.846 34.1813 317.124 34.272 317.497 34.272H318.041C318.148 34.272 318.201 34.5653 318.201 35.152C318.201 35.7173 318.148 36 318.041 36H317.433C316.964 36 316.569 35.9307 316.249 35.792C315.94 35.6533 315.705 35.4347 315.545 35.136C315.364 35.4347 315.108 35.6533 314.777 35.792C314.446 35.9307 314.052 36 313.593 36H311.673C311.566 36 311.513 35.7227 311.513 35.168C311.513 34.816 311.529 34.5813 311.561 34.464C311.593 34.336 311.63 34.272 311.673 34.272H313.593ZM312.745 39.408V37.872H315.001V39.408H312.745ZM310.649 39.408V37.872H312.905V39.408H310.649ZM322.416 34.272C322.821 34.272 323.136 34.2027 323.36 34.064C323.584 33.9147 323.696 33.7173 323.696 33.472C323.696 33.2693 323.648 33.0827 323.552 32.912C323.456 32.7307 323.301 32.5333 323.088 32.32L319.472 28.752V27.36L325.392 25.04L325.888 26.624L321.456 28.32L324.336 31.232C324.688 31.5733 324.944 31.936 325.104 32.32C325.264 32.704 325.344 33.104 325.344 33.52C325.344 34.256 325.088 34.8533 324.576 35.312C324.075 35.7707 323.355 36 322.416 36H318.048C317.941 36 317.888 35.7227 317.888 35.168C317.888 34.816 317.904 34.5813 317.936 34.464C317.968 34.336 318.005 34.272 318.048 34.272H322.416Z" fill="white"/>
</svg>