<svg width="174" height="171" viewBox="0 0 174 171" fill="none" xmlns="http://www.w3.org/2000/svg">
<g id="Barcode">
<g id="freepik--background-complete--inject-162">
<path id="Vector" d="M31.4312 103.379H12.7856V108.312H31.4312V103.379Z" fill="#EBEBEB"/>
<path id="Vector_2" d="M23.5476 113.509C23.5449 113.478 23.5449 113.447 23.5476 113.417V113.164C23.5476 112.934 23.5476 112.608 23.5476 112.194C23.5476 111.343 23.5284 110.117 23.5131 108.576L23.5744 108.634L4.88666 108.668L4.97864 108.576V111.075C4.97864 111.898 4.97864 112.706 4.97864 113.501L4.88666 113.409L18.1743 113.451L22.0989 113.474H23.1605H23.4364H23.5361H23.4479H23.1835H22.141L18.2394 113.501L4.88666 113.601H4.79468V111.083C4.79468 110.669 4.79468 110.255 4.79468 109.837V108.584C4.98631 108.392 4.84833 108.53 4.89433 108.488L23.5399 108.526H23.5974V108.584C23.5974 110.14 23.5706 111.378 23.5629 112.236C23.5629 112.646 23.5629 112.964 23.5629 113.194C23.5629 113.294 23.5629 113.375 23.5629 113.436C23.5592 113.46 23.5541 113.485 23.5476 113.509Z" fill="#E0E0E0"/>
<path id="Vector_3" d="M102.453 0.0982056H83.8074V5.03076H102.453V0.0982056Z" fill="#EBEBEB"/>
<path id="Vector_4" d="M94.5693 10.2469C94.5666 10.2163 94.5666 10.1855 94.5693 10.1549V9.902C94.5693 9.67204 94.5693 9.34627 94.5693 8.93235C94.5693 8.08151 94.5502 6.85891 94.5387 5.31438L94.5961 5.37186L75.9506 5.41019C75.9927 5.36803 75.8547 5.50217 76.0425 5.31438V10.2469L75.9467 10.1549L89.2343 10.1971L93.1589 10.2239H94.2206H94.4965H94.5961H94.508H94.2435H93.2011L89.2995 10.2508L75.9467 10.2929H75.8547V5.30288C76.0425 5.11125 75.9046 5.24922 75.9506 5.20706L94.5961 5.24539H94.6536V5.30288C94.6536 6.85891 94.6268 8.09684 94.6191 8.95534C94.6191 9.36543 94.6191 9.68354 94.6191 9.91349C94.6191 10.0131 94.6191 10.0936 94.6191 10.1549C94.6051 10.1869 94.5884 10.2177 94.5693 10.2469Z" fill="#E0E0E0"/>
<path id="Vector_5" d="M106.611 115.9C106.61 115.871 106.61 115.841 106.611 115.812V115.559C106.611 115.329 106.611 115.003 106.611 114.589C106.611 113.739 106.611 112.512 106.581 110.968L106.638 111.025L87.9927 111.063L88.0885 110.968V112.229C88.0885 112.646 88.0885 113.06 88.0885 113.47V115.896L87.9965 115.804L101.284 115.847L105.205 115.873H106.267H106.542H106.642C106.642 115.873 106.615 115.873 106.558 115.873H106.29H105.251L101.349 115.9L87.9965 115.942H87.9045V115.847C87.9045 115.057 87.9045 114.245 87.9045 113.421V110.918L88.0004 110.826L106.646 110.86H106.703V110.918C106.703 112.478 106.68 113.712 106.673 114.574C106.673 114.984 106.673 115.302 106.673 115.532V115.774C106.615 115.877 106.615 115.904 106.611 115.9Z" fill="#E0E0E0"/>
<path id="Vector_6" d="M109.133 110.968C109.128 110.937 109.128 110.906 109.133 110.876C109.133 110.803 109.133 110.719 109.133 110.615C109.133 110.37 109.133 110.04 109.114 109.626C109.114 108.76 109.095 107.537 109.079 106.035L109.148 106.104L97.9458 106.131C97.8576 106.215 98.0608 106.016 98.0378 106.035V108.572C98.0378 109.4 98.0378 110.197 98.0378 110.964L97.9458 110.876L105.964 110.918L108.298 110.945H108.926H109.152C109.085 110.95 109.017 110.95 108.949 110.945H108.336L106.036 110.971L97.9573 111.014H97.8691V110.922C97.8691 110.155 97.8691 109.358 97.8691 108.53V105.993L97.965 105.897L109.168 105.924H109.237V105.989C109.217 107.522 109.206 108.745 109.198 109.619C109.198 110.029 109.198 110.354 109.179 110.596C109.171 110.721 109.156 110.845 109.133 110.968Z" fill="#E0E0E0"/>
<path id="Vector_7" d="M18.7107 45.2884C18.7107 45.2884 18.7107 45.2577 18.7107 45.2002V44.9473C18.7107 44.7135 18.7107 44.3877 18.7107 43.9738C18.7107 43.123 18.6916 41.9004 18.6763 40.3558L18.7337 40.4133L0.0881496 40.4516L0.183965 40.3558V42.8547C0.183965 43.6787 0.183965 44.4874 0.183965 45.2807L0.0919823 45.1887L13.3796 45.2309L17.3042 45.2577H18.362H18.6418C18.6736 45.2546 18.7057 45.2546 18.7376 45.2577H18.6533H18.385H17.3463L13.4448 45.2845L0.0919823 45.3267H0V45.2347C0 44.4414 0 43.6327 0 42.8087V40.3098L0.095815 40.214L18.7414 40.2523H18.7989V40.3098C18.7989 41.8659 18.7759 43.1038 18.7682 43.9623C18.7682 44.3724 18.7682 44.6905 18.7682 44.9205V45.1619C18.7146 45.2654 18.7146 45.2884 18.7107 45.2884Z" fill="#E0E0E0"/>
<path id="Vector_8" d="M21.2403 40.3558C21.2375 40.3239 21.2375 40.2919 21.2403 40.26C21.2403 40.191 21.2403 40.1029 21.2403 39.9994C21.2403 39.7579 21.2403 39.4283 21.2403 39.0106C21.2403 38.1444 21.2174 36.9256 21.202 35.4233L21.271 35.4923L10.0683 35.5191L10.1641 35.4233V37.9566C10.1641 38.7806 10.1641 39.5816 10.1641 40.3482L10.076 40.2562L18.0899 40.2983L20.424 40.3252H21.0525H21.2787C21.2111 40.3306 21.1431 40.3306 21.0755 40.3252H20.4662L18.1666 40.3482L10.0913 40.3903H9.94568V40.2983C9.94568 39.5318 9.94568 38.7308 9.94568 37.9068V35.3734C9.92268 35.3734 10.1258 35.1933 10.0415 35.2776L21.2442 35.3045H21.3132V35.3734C21.3132 36.9065 21.2825 38.1291 21.2748 39.0029C21.2748 39.413 21.2748 39.7388 21.2748 39.9764C21.2748 40.214 21.2442 40.3597 21.2403 40.3558Z" fill="#E0E0E0"/>
<path id="Vector_9" d="M171.352 55.6901C171.352 55.6901 171.352 55.6556 171.352 55.5981V55.3451C171.352 55.1152 171.352 54.7894 171.352 54.3755C171.352 53.5246 171.352 52.2982 171.321 50.7537L171.379 50.815L152.733 50.8495L152.829 50.7537V53.2564C152.829 54.0804 152.829 54.8929 152.829 55.6862L152.737 55.5904L166.024 55.6326L169.945 55.6594H171.007H171.283H171.382H171.298H171.03H169.991L166.09 55.6862L152.737 55.7284H152.645V55.6364C152.645 54.8431 152.645 54.0305 152.645 53.2065V50.7575L152.741 50.6655L171.386 50.7H171.444V50.7575C171.444 52.3174 171.421 53.5553 171.413 54.4138C171.413 54.8239 171.413 55.142 171.413 55.372V55.6134C171.397 55.6419 171.376 55.6678 171.352 55.6901Z" fill="#E0E0E0"/>
<path id="Vector_10" d="M173.881 50.7537C173.878 50.7231 173.878 50.6923 173.881 50.6617C173.881 50.5889 173.881 50.5046 173.881 50.4011C173.881 50.1558 173.881 49.8262 173.881 49.4123C173.881 48.5461 173.858 47.3235 173.843 45.8211L173.912 45.8901L162.709 45.9169C162.621 46.0013 162.824 45.802 162.801 45.8211V48.3583C162.801 49.1861 162.801 49.9833 162.801 50.7498L162.713 50.6617L170.727 50.7039L173.061 50.7307H173.689H173.916C173.848 50.7362 173.78 50.7362 173.712 50.7307H173.099L170.8 50.7575L162.724 50.7997H162.632V50.7077C162.632 49.9412 162.632 49.144 162.632 48.3161V45.779C162.609 45.802 162.813 45.5988 162.728 45.687L173.931 45.7138H174V45.779C174 47.312 173.969 48.5346 173.962 49.4123C173.962 49.8185 173.962 50.1443 173.962 50.3857C173.962 50.6272 173.904 50.7613 173.881 50.7537Z" fill="#E0E0E0"/>
<path id="Vector_11" d="M44.6842 170.473H86.1836V138.463H44.6842L44.6842 170.473Z" fill="#F5F5F5"/>
<path id="Vector_12" d="M55.0937 170.246C55.1512 170.246 55.1972 163.11 55.1972 154.314C55.1972 145.519 55.1512 138.378 55.0937 138.378C55.0362 138.378 54.9902 145.511 54.9902 154.314C54.9902 163.118 55.0209 170.246 55.0937 170.246Z" fill="#EBEBEB"/>
<path id="Vector_13" d="M48.2025 166.786H51.3835V163.191H48.2025V166.786Z" fill="#FAFAFA"/>
<path id="Vector_14" d="M73.5207 138.547H68.8066V145.377H73.5207V138.547Z" fill="#EBEBEB"/>
<path id="Vector_15" d="M73.5207 163.547H68.8066V170.377H73.5207V163.547Z" fill="#EBEBEB"/>
<path id="Vector_16" d="M136.134 129.927H83.7422V170.338H136.134V129.927Z" fill="#EBEBEB"/>
<path id="Vector_17" d="M123.011 170.066C122.954 170.066 122.904 161.06 122.904 149.949C122.904 138.838 122.954 129.832 123.011 129.832C123.069 129.832 123.115 138.838 123.115 149.949C123.115 161.06 123.069 170.066 123.011 170.066Z" fill="#E0E0E0"/>
<path id="Vector_18" d="M131.692 161.14H127.675V165.682H131.692V161.14Z" fill="#FAFAFA"/>
<path id="Vector_19" d="M105.68 130.031H99.728V138.654H105.68V130.031Z" fill="#E0E0E0"/>
<path id="Vector_20" d="M105.68 161.592H99.728V170.216H105.68V161.592Z" fill="#E0E0E0"/>
</g>
<g id="freepik--Floor--inject-162">
<path id="Vector_21" d="M166.239 170.802C166.239 170.855 130.036 170.901 85.3713 170.901C40.7061 170.901 4.50342 170.855 4.50342 170.802C4.50342 170.748 40.6985 170.703 85.3713 170.703C130.044 170.703 166.239 170.745 166.239 170.802Z" fill="#263238"/>
</g>
<g id="freepik--Plant--inject-162">
<path id="Vector_22" d="M24.7586 159.385C24.7586 159.385 23.0952 147.952 23.2255 141.299C23.3558 134.645 23.2255 127.16 23.2255 127.16H23.9921C23.9921 127.16 23.4747 140.368 24.038 148.332C24.6014 156.296 26.0885 159.385 26.0885 159.385H24.7586Z" fill="#263238"/>
<path id="Vector_23" d="M29.7142 114.298C29.5923 113.894 29.3487 113.536 29.0167 113.275C28.5299 112.964 27.8899 113.095 27.3495 113.275C25.0499 114.095 22.9803 118.411 22.0452 120.683L25.1112 131.031C30.6685 125.903 31.6267 119.15 29.7142 114.298Z" fill="#455A64"/>
<path id="Vector_24" d="M28.8365 113.693C28.8274 113.739 28.8119 113.784 28.7905 113.827L28.6411 114.21C28.5069 114.536 28.3153 115.011 28.0892 115.597C27.6369 116.774 27.062 118.418 26.5561 120.273C26.0502 122.128 25.69 123.834 25.4715 125.075C25.3604 125.696 25.2799 126.198 25.2262 126.547C25.1994 126.708 25.1802 126.842 25.1611 126.95C25.1558 126.997 25.1455 127.043 25.1304 127.088C25.1245 127.04 25.1245 126.993 25.1304 126.946C25.1304 126.838 25.1572 126.704 25.1726 126.539C25.2109 126.191 25.2799 125.681 25.3795 125.06C25.8979 121.806 26.7824 118.622 28.0163 115.567C28.2501 114.98 28.4533 114.509 28.6027 114.191L28.7752 113.808C28.7925 113.768 28.813 113.729 28.8365 113.693Z" fill="#263238"/>
<path id="Vector_25" d="M23.7506 133.538C22.3515 132.742 21.1808 131.599 20.3512 130.22C19.5215 128.841 19.0609 127.271 19.0135 125.662C18.9024 123.362 19.6076 121.105 20.4086 118.947C20.4577 118.752 20.5728 118.58 20.7344 118.46C20.865 118.413 21.0056 118.399 21.143 118.421C21.2804 118.442 21.4101 118.498 21.5201 118.583C23.6127 119.775 24.8813 122.032 25.5596 124.363C26.0422 125.897 26.2027 127.515 26.031 129.115C25.7623 130.799 24.9555 132.351 23.7315 133.538" fill="#455A64"/>
<path id="Vector_26" d="M23.7508 133.538C23.746 133.491 23.746 133.443 23.7508 133.396C23.7508 133.293 23.7508 133.162 23.7508 133.013C23.7508 132.668 23.7508 132.166 23.7086 131.553C23.6226 129.945 23.4383 128.343 23.1567 126.758C22.8348 124.903 22.4477 123.24 22.1603 122.04C22.0223 121.454 21.9035 120.971 21.8192 120.618C21.7847 120.461 21.754 120.335 21.731 120.235C21.7181 120.19 21.7104 120.144 21.708 120.097C21.7306 120.138 21.7474 120.182 21.7578 120.227C21.7847 120.327 21.823 120.453 21.869 120.61C21.9648 120.94 22.0951 121.423 22.2522 122.021C22.5627 123.217 22.9651 124.88 23.2832 126.739C23.5595 128.328 23.7272 129.933 23.7853 131.545C23.7853 132.162 23.7853 132.664 23.7853 133.009C23.7853 133.17 23.7853 133.3 23.7853 133.392C23.7853 133.484 23.7584 133.538 23.7508 133.538Z" fill="#263238"/>
<g id="Group" opacity="0.3">
<path id="Vector_27" d="M23.7506 133.538C22.3515 132.742 21.1808 131.599 20.3512 130.22C19.5215 128.841 19.0609 127.271 19.0135 125.662C18.9024 123.362 19.6076 121.105 20.4086 118.947C20.4577 118.752 20.5728 118.58 20.7344 118.46C20.865 118.413 21.0056 118.399 21.143 118.421C21.2804 118.442 21.4101 118.498 21.5201 118.583C23.6127 119.775 24.8813 122.032 25.5596 124.363C26.0422 125.897 26.2027 127.515 26.031 129.115C25.7623 130.799 24.9555 132.351 23.7315 133.538" fill="black"/>
</g>
<path id="Vector_28" d="M27.0046 151.03C29.8408 151.654 32.1748 153.655 34.9113 154.629C36.7203 155.272 38.7669 155.499 40.2118 156.763C39.8668 155.89 39.062 155.307 38.2457 154.805C35.9923 153.4 33.5882 152.254 31.0787 151.386C29.7909 150.942 28.3959 150.57 27.0813 150.934" fill="#455A64"/>
<path id="Vector_29" d="M22.8998 153.559C19.347 153.502 15.6179 150.493 12.0728 150.298C15.7712 149.102 21.0679 150.079 22.8998 153.559Z" fill="#455A64"/>
<path id="Vector_30" d="M24.291 145.039C26.1213 144.44 28.0727 144.308 29.967 144.656C31.8543 145.003 33.7093 145.507 35.5128 146.162C35.3289 144.928 34.3324 144.005 33.3934 143.184C32.7081 142.543 31.9624 141.969 31.1666 141.471C30.3646 140.963 29.4332 140.697 28.4838 140.705C27.9181 140.741 27.3655 140.891 26.8591 141.146C26.3527 141.401 25.9029 141.755 25.5366 142.188C24.8192 142.973 24.3766 143.97 24.2756 145.028" fill="#455A64"/>
<path id="Vector_31" d="M17.0015 141.115C14.7632 139.199 11.3791 139.394 8.43945 139.459C13.1607 141.712 17.614 144.487 21.7156 147.734C21.8382 145.657 19.8338 143.529 17.0015 141.115Z" fill="#455A64"/>
<g id="Group_2" opacity="0.3">
<path id="Vector_32" d="M17.0015 141.115C14.7632 139.199 11.3791 139.394 8.43945 139.459C13.1607 141.712 17.614 144.487 21.7156 147.734C21.8382 145.657 19.8338 143.529 17.0015 141.115Z" fill="black"/>
</g>
<path id="Vector_33" d="M25.2952 138.482C26.39 137.725 27.5435 137.056 28.7445 136.481C29.9211 135.949 31.0211 135.098 32.1555 134.481C33.6311 133.683 34.9073 132.564 36.2602 131.583C37.6131 130.602 39.1002 129.701 40.7559 129.441C39.3932 129.198 37.9926 129.278 36.6665 129.675C35.3525 130.075 34.0713 130.576 32.8339 131.173C31.0901 131.959 29.3156 132.764 27.8898 134.04C26.4641 135.316 25.1764 136.573 25.3258 138.482" fill="#455A64"/>
<path id="Vector_34" d="M34.8461 153.559C34.807 153.548 34.7697 153.531 34.7349 153.509L34.4245 153.349C34.1562 153.207 33.7729 152.996 33.2747 152.754C33.0332 152.628 32.7688 152.494 32.4814 152.371C32.1939 152.249 31.8873 152.091 31.5577 151.95C30.8526 151.629 30.1202 151.373 29.3693 151.183C28.6266 150.978 27.8448 150.958 27.0927 151.126C26.7637 151.196 26.4407 151.292 26.1269 151.413C25.4602 151.684 24.8601 152.096 24.3677 152.62C24.1646 152.843 24.0611 152.977 24.0535 152.969C24.0709 152.932 24.0928 152.897 24.1186 152.866C24.1841 152.769 24.2558 152.677 24.3332 152.59C24.8117 152.035 25.4127 151.599 26.0886 151.317C26.4054 151.188 26.7322 151.086 27.0659 151.011C27.8359 150.832 28.6382 150.85 29.3999 151.06C30.1564 151.248 30.894 151.505 31.6037 151.827C31.9333 151.973 32.2437 152.114 32.5273 152.26C32.811 152.406 33.0754 152.536 33.2939 152.67C33.7729 152.923 34.1524 153.145 34.413 153.303L34.7119 153.483C34.7601 153.502 34.8053 153.527 34.8461 153.559Z" fill="#263238"/>
<path id="Vector_35" d="M20.2516 151.796C20.3296 151.807 20.4058 151.829 20.4777 151.861C20.675 151.936 20.8681 152.02 21.0565 152.114C21.6764 152.432 22.247 152.837 22.7505 153.318C23.2535 153.802 23.6822 154.357 24.0229 154.966C24.1262 155.149 24.2171 155.338 24.295 155.533C24.3313 155.603 24.3571 155.678 24.3716 155.755C24.3487 155.755 24.2183 155.46 23.9462 155.012C23.231 153.833 22.2204 152.862 21.0143 152.195C20.5506 151.938 20.2439 151.819 20.2516 151.796Z" fill="#263238"/>
<path id="Vector_36" d="M12.3948 140.939C12.4473 140.949 12.4987 140.964 12.5481 140.985L12.9735 141.134L13.6442 141.383C13.9087 141.479 14.1923 141.625 14.5142 141.766C16.1795 142.537 17.734 143.527 19.1363 144.71C19.9019 145.369 20.6228 146.078 21.2941 146.833C21.9035 147.538 22.4209 148.198 22.8271 148.772C23.2334 149.347 23.54 149.826 23.7508 150.156L23.9961 150.539C24.0268 150.582 24.0525 150.628 24.0727 150.677C24.0365 150.639 24.0032 150.598 23.9731 150.555C23.9117 150.47 23.8198 150.348 23.7086 150.171C23.4863 149.846 23.1682 149.378 22.7543 148.811C22.3404 148.244 21.823 147.592 21.2213 146.894C20.5485 146.154 19.829 145.458 19.0673 144.809C17.6661 143.631 16.1207 142.635 14.4682 141.847C14.1501 141.701 13.8703 141.552 13.6097 141.464L12.9467 141.195L12.5519 141.008L12.3948 140.939Z" fill="#263238"/>
<path id="Vector_37" d="M29.6183 143.043C29.5228 143.039 29.4278 143.026 29.3347 143.004L29.0089 142.943C28.8824 142.92 28.7368 142.92 28.5758 142.905C27.924 142.844 27.2669 142.93 26.6523 143.155C26.0377 143.381 25.4811 143.74 25.023 144.208C24.7519 144.475 24.5115 144.772 24.3063 145.093C24.1219 145.391 23.9592 145.703 23.8196 146.024C23.8291 145.928 23.8536 145.834 23.8924 145.745C23.983 145.5 24.0973 145.265 24.2335 145.043C24.4294 144.71 24.6663 144.402 24.9387 144.127C25.4021 143.64 25.9728 143.267 26.6056 143.039C27.2383 142.811 27.9156 142.733 28.5835 142.813C28.7445 142.836 28.8939 142.843 29.0204 142.874L29.3462 142.958C29.4406 142.973 29.5323 143.001 29.6183 143.043Z" fill="#263238"/>
<path id="Vector_38" d="M33.1904 131.966C33.1485 131.999 33.1036 132.027 33.0563 132.051L32.673 132.265C32.3281 132.449 31.8337 132.725 31.232 133.082C30.6302 133.438 29.925 133.883 29.1738 134.419C28.352 134.989 27.5824 135.63 26.8743 136.336C26.5086 136.698 26.1917 137.106 25.9315 137.551C25.7015 137.999 25.4792 138.432 25.2723 138.846C24.905 139.577 24.5762 140.327 24.2873 141.092C24.0946 141.609 23.9346 142.138 23.8082 142.675C23.7162 143.058 23.6817 143.269 23.6702 143.265C23.6643 143.213 23.6643 143.16 23.6702 143.108C23.6702 143.008 23.7047 142.855 23.7431 142.663C23.851 142.119 23.9997 141.583 24.1876 141.061C24.4655 140.287 24.788 139.529 25.1534 138.792C25.3566 138.378 25.575 137.941 25.8088 137.497C26.069 137.038 26.3914 136.618 26.767 136.247C27.4806 135.54 28.2567 134.899 29.0857 134.331C29.8522 133.798 30.5612 133.362 31.1668 133.009C31.7723 132.656 32.2821 132.403 32.6308 132.242L33.0409 132.047C33.0877 132.015 33.1379 131.988 33.1904 131.966Z" fill="#263238"/>
<path id="Vector_39" d="M23.2296 142.721C23.1947 142.624 23.1715 142.524 23.1606 142.422C23.1184 142.203 23.0648 141.927 23.0034 141.602C22.6729 139.795 22.1059 138.04 21.3171 136.382L20.9722 135.615C20.9246 135.525 20.8861 135.43 20.8572 135.331C20.9209 135.413 20.9749 135.502 21.0181 135.596C21.1101 135.768 21.2443 136.021 21.4014 136.339C21.8183 137.162 22.1706 138.015 22.4554 138.892C22.7364 139.769 22.9504 140.666 23.0954 141.575C23.1529 141.924 23.1912 142.207 23.2142 142.403C23.2295 142.508 23.2346 142.614 23.2296 142.721Z" fill="#263238"/>
<path id="Vector_40" d="M22.9727 134.642C22.8614 133.298 22.4697 131.992 21.8229 130.809C20.9471 129.18 19.7249 127.763 18.2423 126.658C16.7596 125.553 15.0527 124.786 13.2417 124.412L21.1867 136.251L22.21 138.363C22.8563 137.236 23.1236 135.932 22.9727 134.642Z" fill="#455A64"/>
<path id="Vector_41" d="M34.367 157.971H15.8977V161.244H34.367V157.971Z" fill="#FF7959"/>
<path id="Vector_42" d="M17.2773 160.596L18.8487 170.752H31.1092L32.9872 160.596H17.2773Z" fill="#FF7959"/>
<path id="Vector_43" d="M34.3556 161.251C34.3556 161.286 30.1895 161.316 25.0538 161.316C19.9182 161.316 15.7483 161.286 15.7483 161.251C15.7483 161.217 19.9143 161.186 25.0538 161.186C30.1934 161.186 34.3556 161.213 34.3556 161.251Z" fill="#263238"/>
</g>
<g id="freepik--Box--inject-162">
<path id="Vector_44" d="M78.8597 170.726H110.548V146.285H78.8597V170.726Z" fill="#FF7959"/>
<path id="Vector_45" d="M81.5462 167.909H83.9761V165.161H81.5462V167.909Z" fill="#FAFAFA"/>
<g id="Group_3" opacity="0.3">
<path id="Vector_46" d="M100.878 146.346H97.2791V151.563H100.878V146.346Z" fill="white"/>
</g>
<g id="Group_4" opacity="0.3">
<path id="Vector_47" d="M100.878 165.437H97.2791V170.653H100.878V165.437Z" fill="white"/>
</g>
<path id="Vector_48" d="M86.77 170.894C86.6742 170.894 86.5938 165.529 86.5938 158.887C86.5938 152.245 86.6742 146.883 86.77 146.883C86.8659 146.883 86.9425 152.249 86.9425 158.887C86.9425 165.525 86.8659 170.894 86.77 170.894Z" fill="#263238"/>
</g>
<g id="freepik--Barcode--inject-162">
<path id="Vector_49" d="M24.59 19.0811H22.7043V91.8277H24.59V19.0811Z" fill="#263238"/>
<path id="Vector_50" d="M27.7173 19.0812H26.1191V91.8278H27.7173V19.0812Z" fill="#263238"/>
<path id="Vector_51" d="M35.4286 19.0812H29.5647V79.2147H35.4286V19.0812Z" fill="#263238"/>
<path id="Vector_52" d="M38.3604 19.0812H36.9155V79.2147H38.3604V19.0812Z" fill="#263238"/>
<path id="Vector_53" d="M43.1092 19.0812H41.6643V79.2147H43.1092V19.0812Z" fill="#263238"/>
<path id="Vector_54" d="M49.3026 19.0812H47.8577V79.2147H49.3026V19.0812Z" fill="#263238"/>
<path id="Vector_55" d="M54.4612 19.0812H53.0164V79.2147H54.4612V19.0812Z" fill="#263238"/>
<path id="Vector_56" d="M71.294 19.0812H69.8491V79.2147H71.294V19.0812Z" fill="#263238"/>
<path id="Vector_57" d="M97.7352 19.0812H94.6155V89.6471H97.7352V19.0812Z" fill="#263238"/>
<path id="Vector_58" d="M112.905 19.0812H111.46V79.2147H112.905V19.0812Z" fill="#263238"/>
<path id="Vector_59" d="M119.209 19.0812H117.764V79.2147H119.209V19.0812Z" fill="#263238"/>
<path id="Vector_60" d="M126.104 18.9853H122.563V93.0004H126.104V18.9853Z" fill="#263238"/>
<path id="Vector_61" d="M85.2064 19.0812H83.7615V79.2147H85.2064V19.0812Z" fill="#263238"/>
<path id="Vector_62" d="M65.0048 19.0812H62.0422V79.2147H65.0048V19.0812Z" fill="#263238"/>
<path id="Vector_63" d="M77.2805 19.0812H74.3179V79.2147H77.2805V19.0812Z" fill="#263238"/>
<path id="Vector_64" d="M81.9562 19.0812H78.9937V79.2147H81.9562V19.0812Z" fill="#263238"/>
<path id="Vector_65" d="M104.078 19.0812H101.115V79.2147H104.078V19.0812Z" fill="#263238"/>
<path id="Vector_66" d="M108.555 19.0812H105.592V79.2147H108.555V19.0812Z" fill="#263238"/>
<path id="Vector_67" d="M92.63 19.0812H87.0613V79.2147H92.63V19.0812Z" fill="#263238"/>
<path id="Vector_68" d="M60.4516 19.0812H55.887V79.2147H60.4516V19.0812Z" fill="#263238"/>
<path id="Vector_69" d="M35.9919 82.5029V95.392H34.6696V83.6834H31.6304V82.5029H35.9919Z" fill="#263238"/>
<path id="Vector_70" d="M48.3177 89.85C48.7587 90.403 48.9907 91.0937 48.9731 91.8008C48.9872 92.5036 48.7734 93.192 48.3637 93.7631C47.9195 94.3506 47.3154 94.7977 46.6237 95.0508C45.7733 95.3666 44.8708 95.5187 43.9639 95.4993C42.4308 95.4993 41.2159 95.1684 40.3191 94.5066C39.8933 94.1987 39.5498 93.7909 39.3185 93.3191C39.0873 92.8473 38.9755 92.3259 38.993 91.8008C38.972 91.0929 39.1968 90.3995 39.6292 89.8385C40.1148 89.2645 40.7586 88.846 41.4803 88.6351C40.8769 88.4224 40.351 88.034 39.9703 87.5198C39.6191 87.0159 39.4378 86.413 39.4529 85.799C39.4382 85.3162 39.5423 84.8372 39.7562 84.4041C39.97 83.9711 40.2871 83.5972 40.6793 83.3154C41.6445 82.6584 42.7977 82.3341 43.9639 82.3918C44.778 82.3759 45.5875 82.5177 46.3477 82.8095C46.979 83.0484 47.5311 83.4585 47.9421 83.9938C48.324 84.5172 48.5245 85.1511 48.5132 85.799C48.5273 86.4158 48.3388 87.0203 47.9766 87.5198C47.5861 88.034 47.053 88.4219 46.4436 88.6351C47.1736 88.8482 47.8252 89.2706 48.3177 89.85ZM46.6428 93.6826C46.9497 93.4724 47.1989 93.1886 47.3676 92.8572C47.5364 92.5257 47.6192 92.1573 47.6087 91.7855C47.6198 91.4152 47.537 91.0482 47.3682 90.7185C47.1993 90.3888 46.9498 90.1072 46.6428 89.8998C45.8258 89.4475 44.9073 89.2102 43.9734 89.2102C43.0396 89.2102 42.121 89.4475 41.304 89.8998C41.0062 90.118 40.764 90.4033 40.5971 90.7326C40.4301 91.0619 40.3431 91.4259 40.3431 91.7951C40.3431 92.1642 40.4301 92.5282 40.5971 92.8575C40.764 93.1868 41.0062 93.4721 41.304 93.6903C42.1215 94.1454 43.0417 94.3842 43.9773 94.3842C44.9129 94.3842 45.833 94.1454 46.6505 93.6903L46.6428 93.6826ZM41.626 87.5505C42.3393 87.9596 43.1473 88.1749 43.9696 88.1749C44.7919 88.1749 45.5999 87.9596 46.3132 87.5505C46.5838 87.3644 46.8036 87.1138 46.9528 86.8213C47.1021 86.5289 47.176 86.2038 47.1679 85.8756C47.1783 85.5396 47.1036 85.2064 46.9508 84.9069C46.7981 84.6074 46.5722 84.3513 46.2941 84.1624C45.6023 83.7145 44.787 83.4959 43.9639 83.5377C43.1416 83.4924 42.3264 83.7113 41.6375 84.1624C41.3727 84.3585 41.1576 84.6138 41.0094 84.908C40.8612 85.2022 40.784 85.527 40.784 85.8564C40.784 86.1859 40.8612 86.5107 41.0094 86.8049C41.1576 87.0991 41.3727 87.3544 41.6375 87.5505H41.626Z" fill="#263238"/>
<path id="Vector_71" d="M58.7461 84.0781C59.6557 85.2024 60.1105 86.789 60.1105 88.8382C60.1478 90.0935 59.896 91.3405 59.3747 92.483C58.9286 93.4238 58.2103 94.2089 57.3127 94.7366C56.3681 95.2621 55.3005 95.5266 54.2198 95.5031C53.1531 95.5568 52.0922 95.3155 51.1537 94.8056L51.6903 93.7363C52.4468 94.1802 53.3171 94.3921 54.193 94.3457C54.8162 94.3782 55.439 94.2739 56.0177 94.0402C56.5963 93.8065 57.1169 93.449 57.5427 92.9927C58.3514 92.0883 58.7576 90.7813 58.7576 89.0605C58.7576 88.7424 58.7385 88.3936 58.704 88.0104C58.3854 88.7077 57.8468 89.2812 57.1709 89.6431C56.4296 90.0377 55.5999 90.2369 54.7602 90.2218C53.9811 90.2357 53.2091 90.0718 52.5028 89.7427C51.874 89.446 51.3424 88.9768 50.9698 88.3898C50.5939 87.7786 50.4022 87.072 50.4179 86.3547C50.405 85.6206 50.6032 84.8983 50.9889 84.2736C51.3723 83.6715 51.9185 83.1904 52.5641 82.8862C53.2676 82.5516 54.0388 82.3837 54.8177 82.3956C56.5347 82.3931 57.8442 82.9539 58.7461 84.0781ZM56.6957 88.7271C57.1619 88.4978 57.5588 88.1486 57.8455 87.7153C58.1253 87.2885 58.272 86.7883 58.267 86.278C58.274 85.7969 58.1408 85.3242 57.8838 84.9175C57.5941 84.4786 57.1898 84.1274 56.7148 83.9018C56.1396 83.6333 55.5098 83.5021 54.8752 83.5186C54.0474 83.482 53.2357 83.7553 52.5986 84.2851C52.3106 84.5378 52.0826 84.8516 51.9314 85.2037C51.7802 85.5559 51.7096 85.9373 51.7248 86.3202C51.7089 86.7015 51.7792 87.0815 51.9305 87.4318C52.0818 87.7822 52.3102 88.0939 52.5986 88.3438C53.2678 88.8804 54.1105 89.1531 54.9672 89.1103C55.5653 89.1185 56.1571 88.9873 56.6957 88.7271Z" fill="#263238"/>
<path id="Vector_72" d="M65.5604 82.5029V95.392H64.2343V83.6834H61.1951V82.5029H65.5604Z" fill="#263238"/>
<path id="Vector_73" d="M76.0964 88.7922C76.5187 89.1233 76.8553 89.5509 77.078 90.0391C77.3008 90.5273 77.4031 91.0618 77.3765 91.5977C77.3895 92.3027 77.2079 92.9976 76.8514 93.606C76.4776 94.2147 75.9304 94.6979 75.2801 94.9934C74.4696 95.355 73.5877 95.528 72.7007 95.4993C71.8074 95.5037 70.9203 95.3519 70.0792 95.0509C69.3329 94.7978 68.6504 94.3859 68.0786 93.8436L68.7263 92.7935C69.2068 93.2703 69.7847 93.6376 70.4203 93.8704C71.141 94.1505 71.9084 94.291 72.6816 94.2843C73.5652 94.3413 74.4409 94.0878 75.1574 93.5676C75.4426 93.3384 75.6704 93.0459 75.8228 92.7132C75.9751 92.3806 76.0478 92.017 76.0351 91.6513C76.0554 91.2604 75.9756 90.8708 75.8032 90.5194C75.6309 90.1679 75.3716 89.8663 75.0501 89.6431C74.3909 89.1908 73.2833 88.9609 71.7272 88.9609H68.9831L69.6576 82.5029H76.7058V83.6834H70.8074L70.3667 87.7881H72.0224C73.8876 87.7881 75.2456 88.1228 76.0964 88.7922Z" fill="#263238"/>
<path id="Vector_74" d="M81.5385 94.7098C80.7266 94.1421 80.0947 93.3533 79.718 92.437C78.8443 90.1927 78.8443 87.7022 79.718 85.4579C80.0958 84.5423 80.7275 83.7537 81.5385 83.1851C82.3298 82.6677 83.2547 82.3921 84.2002 82.3921C85.1457 82.3921 86.0706 82.6677 86.8619 83.1851C87.6732 83.7555 88.3069 84.5433 88.6901 85.4579C89.5743 87.7002 89.5743 90.1947 88.6901 92.437C88.3079 93.3523 87.674 94.1403 86.8619 94.7098C86.0698 95.2249 85.1451 95.4991 84.2002 95.4991C83.2553 95.4991 82.3306 95.2249 81.5385 94.7098ZM86.1797 93.6596C86.7884 93.192 87.2511 92.5605 87.5135 91.8391C88.1521 89.9642 88.1521 87.9307 87.5135 86.0558C87.2511 85.3344 86.7884 84.7029 86.1797 84.2353C85.5997 83.8288 84.9085 83.6107 84.2002 83.6107C83.4919 83.6107 82.8007 83.8288 82.2207 84.2353C81.612 84.7029 81.1493 85.3344 80.8869 86.0558C80.2483 87.9307 80.2483 89.9642 80.8869 91.8391C81.1493 92.5605 81.612 93.192 82.2207 93.6596C82.8007 94.0661 83.4919 94.2842 84.2002 94.2842C84.9085 94.2842 85.5997 94.0661 86.1797 93.6596Z" fill="#263238"/>
<path id="Vector_75" d="M110.099 82.3688V83.2579L104.971 94.6178H103.607L108.647 83.5032H102.346V85.8028H101.104V82.3918L110.099 82.3688Z" fill="#263238"/>
<path id="Vector_76" d="M120.125 93.4948V94.6178H111.533V93.7248L116.626 88.7424C117.144 88.2691 117.584 87.7167 117.929 87.1059C118.15 86.6751 118.267 86.1987 118.27 85.7147C118.287 85.3945 118.228 85.0749 118.099 84.7815C117.97 84.4881 117.774 84.2288 117.527 84.0245C116.908 83.5847 116.157 83.3722 115.4 83.4228C113.966 83.4228 112.852 83.8776 112.058 84.7872L111.168 84.0207C111.663 83.4465 112.291 83.0018 112.997 82.7252C113.796 82.4107 114.648 82.2557 115.507 82.2692C116.568 82.2126 117.617 82.5254 118.473 83.1545C118.833 83.4441 119.119 83.8143 119.309 84.2351C119.499 84.6559 119.587 85.1155 119.566 85.5767C119.567 86.2079 119.423 86.8309 119.144 87.3972C118.731 88.1529 118.194 88.8332 117.554 89.4093L113.388 93.4948H120.125Z" fill="#263238"/>
</g>
<g id="freepik--Character--inject-162">
<path id="Vector_77" d="M98.0609 52.877L90.4072 61.5195L100.824 65.49L108.547 56.0657L98.0609 52.877Z" fill="#FF7959"/>
<path id="Vector_78" d="M108.547 56.0657C108.547 56.0657 130.653 79.0229 130.443 79.1648C130.232 79.3066 123.927 86.8874 123.927 86.8874L100.828 65.49L108.547 56.0657Z" fill="#FF7959"/>
<path id="Vector_79" d="M90.4072 61.5195L112.445 82.7061L123.923 86.8874L100.824 65.49L90.4072 61.5195Z" fill="#FF7959"/>
<g id="Group_5" opacity="0.3">
<path id="Vector_80" d="M90.4072 61.5195L112.445 82.7061L123.923 86.8874L100.824 65.49L90.4072 61.5195Z" fill="black"/>
</g>
<g id="Group_6" opacity="0.3">
<path id="Vector_81" d="M98.0609 52.877L90.4072 61.5195L100.824 65.49L108.547 56.0657L98.0609 52.877Z" fill="white"/>
</g>
<path id="Vector_82" d="M119.454 67.3527C119.454 67.3527 121.972 67.4485 122.26 67.7359C122.547 68.0234 124.778 72.542 124.778 72.542L125.544 73.0172L125.759 79.7396L119.06 80.326L116.798 81.6713L114.572 81.472C114.387 81.4626 114.212 81.3888 114.077 81.2633C113.942 81.1379 113.855 80.9689 113.832 80.7859L113.652 79.341C113.652 79.341 114.572 79.1264 114.802 79.7856L114.886 80.0961L116.12 80.188L117.438 79.2107L117.527 78.6933L113.223 78.9808L111.433 77.7237C111.433 77.7237 112.199 76.7694 112.966 77.1679C113.169 77.2465 113.365 77.3413 113.552 77.4516L117.147 76.6046L110.214 76.6735C110.193 76.4838 110.214 76.2918 110.274 76.1107C110.335 75.9296 110.433 75.7635 110.563 75.6239C110.694 75.4843 110.852 75.3743 111.029 75.3015C111.205 75.2287 111.395 75.1947 111.586 75.2018C112.648 75.1712 115.342 74.8837 115.342 74.8837C115.342 74.8837 117.408 74.7113 117.492 74.0252C117.576 73.3392 111.67 71.7602 111.387 71.0128C111.103 70.2654 111.44 69.5219 112.82 69.9512C114.2 70.3804 118.151 72.0744 119.27 71.9901C120.39 71.9058 121.394 70.8978 121.451 70.4571C121.509 70.0163 120.876 68.6519 120.876 68.6519C120.876 68.6519 119.347 68.5523 119.454 67.3527Z" fill="#FFBF9D"/>
<path id="Vector_83" d="M101.169 53.8236C101.069 53.7929 98.126 57.1388 98.126 57.1388L100.387 57.8287L103.568 54.5518L101.169 53.8236Z" fill="white"/>
<path id="Vector_84" d="M94.3394 63.018C94.2972 62.9797 96.064 60.9561 98.2869 58.4955C100.51 56.035 102.342 54.0727 102.384 54.1072C102.426 54.1417 100.655 56.1691 98.4364 58.6297C96.2173 61.0902 94.3815 63.0563 94.3394 63.018Z" fill="#263238"/>
<path id="Vector_85" d="M117.285 84.4691C117.251 84.5112 112.081 79.8393 105.745 74.0406C99.4101 68.2418 94.3012 63.5201 94.3396 63.4626C94.3779 63.4051 99.5442 68.0924 105.88 73.8949C112.215 79.6975 117.324 84.4307 117.285 84.4691Z" fill="#263238"/>
<path id="Vector_86" d="M127.771 55.8549L128.764 57.0047C128.837 62.6118 134.547 70.4188 134.547 70.4188L137.552 57.706L136.46 52.8501L133.183 52.4669L131.895 50.746L127.771 55.8549Z" fill="#455A64"/>
<path id="Vector_87" d="M122.712 43.7017C121.528 44.0581 119.784 45.8633 118.266 47.5343C117.542 48.3468 117.941 49.7611 118.707 50.5276L119.692 51.5125C120.021 51.8419 120.452 52.05 120.915 52.1028C121.456 52.1607 121.999 52.0023 122.425 51.662L123.107 51.114C123.52 50.7834 124.046 50.6255 124.573 50.6734C125.1 50.7212 125.588 50.9711 125.935 51.3707L128.783 54.6476C128.969 54.8612 129.197 55.034 129.453 55.1551C129.709 55.2762 129.987 55.343 130.27 55.3513C130.553 55.3596 130.835 55.3091 131.097 55.2032C131.36 55.0973 131.597 54.9381 131.795 54.7358C132.147 54.3768 132.354 53.9011 132.377 53.3993C132.4 52.8975 132.238 52.4047 131.922 52.0146L125.564 44.1961C125.397 43.9874 125.19 43.8151 124.954 43.6902C124.506 43.4449 123.82 43.3721 122.712 43.7017Z" fill="#FF7959"/>
<path id="Vector_88" d="M122.494 51.639C122.807 51.8956 123.146 52.1191 123.505 52.3059C123.505 52.3059 122.942 53.0993 123.482 53.6396C123.842 53.975 124.295 54.1917 124.782 54.2605C124.761 54.5782 124.856 54.8927 125.05 55.1452C125.244 55.3977 125.523 55.5709 125.836 55.6326C126.985 55.9047 130.186 55.4371 130.301 55.142C130.416 54.8469 130.684 54.0536 129.948 53.8734C129.373 53.7566 128.787 53.6976 128.2 53.6971C128.2 53.6971 129.733 53.1337 128.817 51.9188C128.407 51.3593 126.556 51.9188 126.556 51.9188L125.173 52.0759C125.173 52.0759 126.437 51.183 125.452 50.2861C125.38 50.2046 125.292 50.1392 125.193 50.0945C125.094 50.0498 124.986 50.0266 124.878 50.0266C124.769 50.0266 124.661 50.0498 124.562 50.0945C124.463 50.1392 124.375 50.2046 124.303 50.2861L122.494 51.639Z" fill="#FFBF9D"/>
<path id="Vector_89" d="M128.105 49.3663C128.105 49.3663 126.986 49.2207 127.242 48.5346C127.622 47.732 128.126 46.9946 128.737 46.35C128.879 46.175 129.069 46.0453 129.283 45.9772C129.498 45.909 129.728 45.9054 129.944 45.9668C130.285 46.1086 131.477 46.9977 131.665 48.0325C131.853 49.0674 132.048 50.2708 131.895 50.7575C131.804 51.0223 131.69 51.2788 131.554 51.524L129.584 49.098C129.584 49.098 128.576 49.5004 128.105 49.3663Z" fill="#FFBF9D"/>
<path id="Vector_90" d="M123.962 50.5237C123.996 50.3165 124.053 50.1135 124.13 49.9182V49.9373C124.122 49.7182 124.056 49.5052 123.939 49.3203C123.756 49.0922 123.556 48.8783 123.341 48.6802L121.781 47.0935C121.577 46.9088 121.327 46.7814 121.058 46.7241C120.789 46.6669 120.509 46.682 120.248 46.7678C120.019 46.8441 119.808 46.9653 119.627 47.1242L119.098 47.5305L118.362 48.1322C118.186 48.274 118.102 48.3545 118.094 48.3506C118.086 48.3468 118.404 47.9674 119.01 47.4231C119.159 47.289 119.328 47.1434 119.512 46.9939C119.708 46.8245 119.934 46.6943 120.179 46.6106C120.47 46.5126 120.783 46.494 121.084 46.5566C121.385 46.6193 121.664 46.7609 121.892 46.9671C122.475 47.5535 122.996 48.1168 123.448 48.5806C123.667 48.7909 123.868 49.0205 124.046 49.2666C124.166 49.4764 124.225 49.7151 124.218 49.9565V49.9757C124.154 50.1677 124.068 50.3516 123.962 50.5237Z" fill="#263238"/>
<path id="Vector_91" d="M126.491 48.0019C126.249 48.4279 125.932 48.807 125.556 49.121C125.229 49.4832 124.84 49.7831 124.406 50.0063C124.714 49.6337 125.055 49.2899 125.426 48.9792C125.749 48.6203 126.106 48.293 126.491 48.0019Z" fill="#263238"/>
<path id="Vector_92" d="M125.683 51.9763C125.343 52.1328 124.978 52.2253 124.606 52.2489C124.242 52.339 123.866 52.3637 123.494 52.3218C123.836 52.1687 124.202 52.0777 124.575 52.0531C124.937 51.963 125.312 51.9371 125.683 51.9763Z" fill="#FF9A6C"/>
<path id="Vector_93" d="M128.542 53.586C127.971 53.9016 127.347 54.1098 126.702 54.2003C126.075 54.3533 125.426 54.3897 124.786 54.3078C124.786 54.2502 125.644 54.208 126.683 54.0045C127.721 53.801 128.519 53.5284 128.542 53.586Z" fill="#FF9A6C"/>
<path id="Vector_94" d="M130.466 47.5343C130.507 47.8951 130.417 48.2587 130.212 48.5586C130.008 48.8584 129.702 49.0744 129.35 49.167C129.324 49.1133 129.734 48.9064 130.048 48.4465C130.21 48.1532 130.349 47.8483 130.466 47.5343Z" fill="#FF9A6C"/>
<path id="Vector_95" d="M118.811 49.167C118.811 49.167 120.267 51.2098 120.915 51.2481C121.375 51.2749 122.064 50.4816 122.448 49.9757C122.521 49.8793 122.557 49.7593 122.547 49.6385C122.538 49.5177 122.485 49.4044 122.398 49.3203L120.823 47.7873L120.439 47.6914L118.811 49.167Z" fill="#263238"/>
<g id="Group_7" opacity="0.6">
<path id="Vector_96" d="M118.887 49.1057L109.287 56.8322L118.243 66.1684L122.494 49.876C122.533 49.794 122.548 49.7025 122.537 49.6122C122.526 49.522 122.49 49.4367 122.432 49.3663L120.811 47.7949L120.428 47.6991L118.868 49.1057H118.887Z" fill="white"/>
</g>
<path id="Vector_97" d="M154.741 23.2778L153.683 41.0879C153.499 44.1156 152.618 48.5308 147.843 48.0249C143.73 47.2584 142.914 43.2763 143.086 40.4478C143.167 39.1064 143.232 37.9911 143.232 37.8532C143.232 37.8532 138.721 37.1556 138.66 32.6485C138.633 30.4677 138.939 25.9759 139.261 21.9172C139.43 19.8146 140.384 17.8526 141.934 16.4216C143.483 14.9906 145.515 14.1955 147.624 14.1945H148.061C152.764 14.4628 155.155 18.6097 154.741 23.2778Z" fill="#FFBF9D"/>
<path id="Vector_98" d="M143.243 37.8685C145.325 37.8591 147.359 37.254 149.107 36.1247C149.107 36.1247 147.682 39.4207 143.182 39.0183L143.243 37.8685Z" fill="#FF9A6C"/>
<path id="Vector_99" d="M146.804 24.3214C146.884 24.4174 147.432 24.0373 148.184 24.0719C148.935 24.1064 149.471 24.5172 149.556 24.4251C149.64 24.333 149.517 24.2139 149.287 24.0412C148.972 23.8004 148.588 23.666 148.191 23.6572C147.799 23.6382 147.411 23.7488 147.087 23.972C146.85 24.1103 146.762 24.2792 146.804 24.3214Z" fill="#263238"/>
<path id="Vector_100" d="M146.505 26.5014C146.505 26.6564 146.565 26.8055 146.671 26.9186C146.777 27.0318 146.921 27.1006 147.076 27.1112C147.154 27.117 147.232 27.1072 147.305 27.0824C147.379 27.0576 147.447 27.0184 147.506 26.967C147.564 26.9155 147.612 26.853 147.646 26.7829C147.68 26.7129 147.7 26.6367 147.704 26.5589C147.706 26.4004 147.645 26.2477 147.536 26.1332C147.426 26.0186 147.276 25.9512 147.118 25.9453C147.041 25.9411 146.964 25.9523 146.892 25.9781C146.819 26.0038 146.753 26.0437 146.696 26.0954C146.639 26.1471 146.592 26.2096 146.56 26.2793C146.527 26.349 146.508 26.4245 146.505 26.5014Z" fill="#263238"/>
<path id="Vector_101" d="M144.547 29.4099C144.182 29.2953 143.805 29.227 143.424 29.2068C143.244 29.2068 143.079 29.157 143.04 29.0344C143.025 28.8512 143.066 28.6677 143.159 28.5093C143.324 28.08 143.496 27.6316 143.68 27.164C144.405 25.2477 144.93 23.6687 144.83 23.6381C144.731 23.6074 144.102 25.1404 143.378 27.0606C143.205 27.532 143.037 27.9842 142.879 28.4173C142.77 28.6311 142.738 28.8761 142.787 29.111C142.814 29.1726 142.854 29.2276 142.904 29.2719C142.955 29.3163 143.014 29.3491 143.079 29.3678C143.177 29.3953 143.279 29.4094 143.381 29.4099C143.768 29.4608 144.16 29.4608 144.547 29.4099Z" fill="#263238"/>
<path id="Vector_102" d="M146.792 21.9451C146.869 22.1102 147.471 21.9682 148.191 21.9835C148.912 21.9989 149.51 22.1448 149.59 21.9835C149.625 21.9067 149.51 21.757 149.261 21.5996C148.933 21.4237 148.567 21.3314 148.195 21.3308C147.826 21.3204 147.46 21.4022 147.13 21.5689C146.877 21.7186 146.758 21.8645 146.792 21.9451Z" fill="#E0E0E0"/>
<path id="Vector_103" d="M139.967 22.2247C140.036 22.3629 140.634 22.2554 141.346 22.2861C142.059 22.3168 142.638 22.4474 142.722 22.313C142.761 22.2477 142.653 22.1172 142.412 21.9905C142.089 21.8329 141.736 21.7477 141.377 21.7409C141.014 21.7249 140.653 21.7864 140.315 21.9214C140.062 22.0327 139.936 22.1556 139.967 22.2247Z" fill="#E0E0E0"/>
<path id="Vector_104" d="M154.392 26.6275C154.469 26.5968 157.489 25.7115 157.393 28.7929C157.298 31.8743 154.224 31.1423 154.22 31.0541C154.216 30.966 154.392 26.6275 154.392 26.6275Z" fill="#FFBF9D"/>
<path id="Vector_105" d="M155.197 29.9158C155.197 29.9158 155.251 29.9542 155.339 30.0002C155.469 30.0504 155.612 30.0504 155.742 30.0002C156.071 29.889 156.362 29.3831 156.393 28.8274C156.407 28.5657 156.364 28.3042 156.267 28.0609C156.241 27.9645 156.193 27.8757 156.127 27.8016C156.06 27.7276 155.977 27.6707 155.883 27.6354C155.822 27.6184 155.757 27.6227 155.698 27.6478C155.64 27.6729 155.591 27.7172 155.561 27.7734C155.519 27.8577 155.535 27.9229 155.519 27.9267C155.504 27.9305 155.454 27.8731 155.485 27.7466C155.504 27.6713 155.549 27.6049 155.611 27.5588C155.693 27.5016 155.793 27.4783 155.891 27.4936C156.016 27.5242 156.132 27.5859 156.227 27.673C156.322 27.76 156.394 27.8697 156.435 27.9919C156.559 28.2617 156.614 28.5579 156.596 28.8542C156.558 29.4751 156.213 30.0461 155.772 30.1611C155.689 30.1831 155.602 30.1858 155.518 30.1692C155.433 30.1526 155.354 30.1171 155.285 30.0653C155.201 29.9887 155.19 29.9197 155.197 29.9158Z" fill="#FF9A6C"/>
<path id="Vector_106" d="M158.838 21.9479C158.275 20.7981 158.217 19.5142 157.957 18.2801C157.696 17.046 157.11 15.7467 155.952 15.237H155.926C154.895 14.7311 153.58 14.6314 152.652 15.306C152.553 13.6924 151.242 12.328 149.713 11.8068C148.184 11.2856 145.666 11.3507 144.129 11.8451C142.941 12.2284 141.753 13.0984 140.296 14.4015C139.68 14.949 139.109 15.5463 138.591 16.1875L136.931 20.2884L137.935 22.5649C137.992 22.7228 138.058 22.8776 138.131 23.0287L138.844 27.7313C139.001 26.4742 139.227 22.0782 139.38 20.8326C140.331 20.8718 141.28 20.7189 142.17 20.383C143.06 20.0472 143.874 19.5353 144.562 18.878C145.305 18.1613 145.915 17.2453 146.861 16.8543C148.092 16.3523 149.479 16.885 150.694 17.4101L150.644 17.3564C151.277 17.7068 151.836 18.1751 152.292 18.7362C151.831 21.2081 151.907 23.7505 152.515 26.1906C152.606 26.5738 152.875 27.3173 153.216 27.4783C153.887 27.7926 154.124 27.095 154.565 26.7616C154.949 26.5352 155.403 26.4575 155.841 26.5432C156.262 25.5233 156.62 24.4789 156.914 23.4158C157.323 23.5743 157.762 23.6359 158.198 23.5959C158.091 23.2663 157.98 22.9405 157.872 22.6147C158.028 22.7483 158.209 22.8475 158.405 22.906C158.504 22.9325 158.609 22.9284 158.705 22.8942C158.802 22.8599 158.885 22.7973 158.946 22.7144C159.095 22.4691 158.957 22.1855 158.838 21.9479Z" fill="#E0E0E0"/>
<path id="Vector_107" d="M151.208 15.7314C151.358 15.8691 151.497 16.0177 151.625 16.176C151.949 16.6279 152.15 17.1561 152.208 17.709C152.258 18.0902 152.268 18.4755 152.238 18.8588C152.212 19.2727 152.147 19.7096 152.081 20.1734C152.003 20.659 151.957 21.1494 151.943 21.6413C151.939 21.8974 151.953 22.1536 151.986 22.4078C152.007 22.6816 152.098 22.9455 152.25 23.1743C152.321 23.268 152.415 23.3414 152.524 23.3871C152.632 23.4329 152.75 23.4494 152.867 23.4349C153.089 23.4092 153.297 23.3108 153.457 23.1551C153.726 22.8379 153.903 22.4538 153.971 22.0437H153.879C153.986 22.4021 154.148 22.742 154.358 23.0517C154.559 23.3308 154.859 23.5226 155.197 23.5882C155.354 23.6157 155.516 23.5998 155.665 23.5422C155.803 23.4817 155.92 23.3817 156.002 23.2548C156.074 23.1392 156.116 23.0075 156.125 22.8715C156.126 22.7415 156.085 22.6147 156.006 22.5113L155.956 22.5534C156.2 22.8778 156.509 23.1469 156.864 23.3429C156.958 23.3959 157.055 23.442 157.156 23.4809C157.188 23.4973 157.223 23.5089 157.259 23.5154C157.259 23.5154 157.229 23.5154 157.163 23.4656C157.098 23.4157 157.002 23.3851 156.884 23.3123C156.538 23.1082 156.238 22.8356 156.002 22.5113L155.952 22.5496C156.018 22.6491 156.052 22.7667 156.048 22.8861C156.045 23.0055 156.005 23.1209 155.933 23.2165C155.86 23.3291 155.754 23.4171 155.63 23.4694C155.495 23.5222 155.347 23.5355 155.205 23.5077C154.893 23.443 154.619 23.2604 154.438 22.998C154.239 22.7042 154.084 22.3826 153.978 22.0437L153.925 21.8942L153.883 22.0475C153.815 22.4372 153.646 22.8021 153.392 23.1053C153.249 23.246 153.063 23.335 152.863 23.3583C152.764 23.3701 152.664 23.3562 152.572 23.318C152.48 23.2797 152.399 23.2183 152.338 23.1398C152.199 22.9206 152.116 22.6705 152.097 22.4116C152.064 22.1574 152.049 21.9013 152.051 21.6451C152.067 21.1587 152.112 20.6737 152.185 20.1925C152.246 19.7288 152.307 19.288 152.334 18.8665C152.358 18.4826 152.342 18.0974 152.288 17.7167C152.22 17.1599 152.006 16.631 151.667 16.1836C151.542 16.0065 151.387 15.8534 151.208 15.7314Z" fill="white"/>
<path id="Vector_108" d="M137.027 19.0926L137.061 19.1271L137.169 19.2152C137.224 19.266 137.284 19.3109 137.349 19.3494C137.434 19.4089 137.522 19.4639 137.613 19.5142C138.195 19.8288 138.845 19.9947 139.507 19.9971C140.49 20.0029 141.454 19.7233 142.281 19.1922C143.282 18.5352 144.139 17.681 144.799 16.6819C145.163 16.1645 145.47 15.6279 145.8 15.1488C146.101 14.6665 146.471 14.2313 146.9 13.8573C147.283 13.5175 147.745 13.2802 148.245 13.1674C148.47 13.1193 148.702 13.109 148.931 13.1367C149.143 13.1638 149.351 13.2193 149.548 13.3015C149.887 13.4459 150.191 13.6601 150.441 13.9301C150.629 14.136 150.785 14.37 150.901 14.6238C150.989 14.8456 151.049 15.0773 151.081 15.3136C151.081 15.3136 151.081 15.2945 151.081 15.2638C151.084 15.2179 151.084 15.1718 151.081 15.1258C151.059 14.9486 151.016 14.7748 150.951 14.6084C150.687 13.9933 150.199 13.5014 149.586 13.2325C149.384 13.1459 149.172 13.0866 148.954 13.0562C148.716 13.0277 148.476 13.0355 148.241 13.0792C147.725 13.1946 147.246 13.4355 146.846 13.7806C146.413 14.1635 146.035 14.6046 145.723 15.0914C145.39 15.5896 145.087 16.1223 144.723 16.6244C144.073 17.6136 143.229 18.4611 142.243 19.1156C141.43 19.6396 140.485 19.9214 139.518 19.9281C138.867 19.9302 138.225 19.7778 137.644 19.4835C137.432 19.3639 137.226 19.2335 137.027 19.0926Z" fill="white"/>
<path id="Vector_109" d="M139.94 24.1107C140.024 24.2105 140.568 23.8304 141.323 23.8611C142.078 23.8918 142.607 24.3065 142.695 24.2143C142.784 24.1222 142.653 24.0031 142.423 23.8304C142.109 23.5904 141.726 23.456 141.331 23.4464C140.937 23.4274 140.548 23.538 140.223 23.7613C139.986 23.9033 139.901 24.0684 139.94 24.1107Z" fill="#263238"/>
<path id="Vector_110" d="M140.373 26.3443C140.371 26.503 140.431 26.6563 140.541 26.771C140.65 26.8858 140.801 26.9529 140.959 26.9579C141.037 26.9647 141.115 26.9558 141.189 26.9317C141.263 26.9075 141.331 26.8687 141.39 26.8175C141.449 26.7663 141.497 26.7038 141.531 26.6336C141.564 26.5635 141.584 26.4873 141.588 26.4095C141.59 26.2507 141.53 26.0974 141.42 25.9827C141.31 25.8679 141.16 25.8008 141.001 25.7958C140.924 25.789 140.846 25.7979 140.772 25.822C140.698 25.8462 140.629 25.885 140.571 25.9362C140.512 25.9874 140.464 26.05 140.43 26.1201C140.396 26.1902 140.377 26.2664 140.373 26.3443Z" fill="#263238"/>
<path id="Vector_111" d="M139.001 15.7084C138.591 16.1913 137.978 16.6167 137.353 16.5094C137.128 16.4476 136.907 16.3694 136.694 16.2756C136.468 16.3944 136.475 17.1495 136.613 17.3679C136.745 17.5512 136.893 17.723 137.054 17.8815C136.287 18.2341 135.636 18.0003 134.865 17.6669C134.903 18.3418 135.117 18.9951 135.487 19.5614C135.856 20.1277 136.367 20.5871 136.97 20.8939C137.154 21.0064 137.362 21.0737 137.577 21.0903C137.792 21.107 138.008 21.0725 138.207 20.9897C138.515 20.7632 138.729 20.4319 138.809 20.0584C139.243 18.732 139.51 17.3572 139.606 15.9652L139.001 15.7084Z" fill="#E0E0E0"/>
<path id="Vector_112" d="M144.286 31.9126C144.286 31.9356 144.455 32.0085 144.75 32.0085C145.141 32.0016 145.519 31.867 145.827 31.6252C146.134 31.3845 146.356 31.0513 146.459 30.6747C146.532 30.3873 146.501 30.2033 146.459 30.1995C146.417 30.1956 146.401 30.3719 146.298 30.6249C146.165 30.9492 145.951 31.2342 145.677 31.4527C145.397 31.6601 145.068 31.792 144.723 31.836C144.47 31.8935 144.294 31.8781 144.286 31.9126Z" fill="#263238"/>
<path id="Vector_113" d="M140.909 153.54L143.592 163.011C143.592 163.011 135.092 168.97 135.417 170.772L153.526 166.13L149.962 151.183L140.909 153.54Z" fill="#455A64"/>
<path id="Vector_114" d="M148.992 160.772C149.182 160.784 149.361 160.865 149.495 161.001C149.628 161.137 149.706 161.318 149.713 161.508C149.712 161.701 149.636 161.885 149.502 162.023C149.368 162.161 149.185 162.242 148.992 162.248C148.793 162.236 148.605 162.151 148.463 162.01C148.322 161.869 148.238 161.681 148.226 161.481C148.26 161.098 148.678 160.715 149.042 160.795" fill="#E0E0E0"/>
<path id="Vector_115" d="M153.515 166.13L153.097 164.639L135.893 169.649C135.893 169.649 135.172 170.212 135.406 170.772L153.515 166.13Z" fill="#263238"/>
<path id="Vector_116" d="M143.508 163.061C143.531 163.149 143.983 163.061 144.489 163.257C144.995 163.452 145.321 163.76 145.394 163.702C145.466 163.644 145.206 163.153 144.593 162.934C143.979 162.715 143.47 162.98 143.508 163.061Z" fill="#263238"/>
<path id="Vector_117" d="M141.875 164.406C141.875 164.498 142.297 164.555 142.692 164.858C143.086 165.161 143.27 165.549 143.358 165.522C143.447 165.495 143.378 164.969 142.879 164.597C142.381 164.225 141.856 164.317 141.875 164.406Z" fill="#263238"/>
<path id="Vector_118" d="M141.235 167.031C141.319 167.031 141.331 166.544 140.986 166.107C140.641 165.67 140.174 165.578 140.154 165.663C140.135 165.747 140.457 165.946 140.737 166.31C141.017 166.674 141.143 167.042 141.235 167.031Z" fill="#263238"/>
<path id="Vector_119" d="M142.887 160.766C142.944 160.839 143.32 160.612 143.83 160.516C144.339 160.42 144.765 160.485 144.792 160.397C144.819 160.309 144.366 160.078 143.768 160.197C143.17 160.316 142.826 160.708 142.887 160.766Z" fill="#263238"/>
<path id="Vector_120" d="M146.923 154.165L147.206 164.513C147.206 164.513 137.065 168.878 136.904 170.772L157.006 170.611L156.964 154.054L146.923 154.165Z" fill="#455A64"/>
<path id="Vector_121" d="M153.591 163.827C153.787 163.888 153.954 164.019 154.06 164.195C154.166 164.371 154.204 164.579 154.166 164.781C154.119 164.98 153.998 165.153 153.826 165.264C153.655 165.374 153.447 165.414 153.246 165.375C153.039 165.309 152.863 165.169 152.751 164.982C152.64 164.795 152.601 164.574 152.641 164.36C152.712 164.158 152.858 163.993 153.049 163.898C153.241 163.803 153.461 163.788 153.664 163.854" fill="#E0E0E0"/>
<path id="Vector_122" d="M157.014 170.772L156.941 168.943L137.69 169.71C137.69 169.71 136.797 170.116 136.904 170.76L157.014 170.772Z" fill="#263238"/>
<path id="Vector_123" d="M147.398 164.762C147.398 164.862 147.896 164.904 148.379 165.222C148.862 165.541 149.146 165.966 149.218 165.924C149.291 165.882 149.157 165.303 148.563 164.927C147.969 164.551 147.379 164.67 147.398 164.762Z" fill="#263238"/>
<path id="Vector_124" d="M145.183 165.682C145.16 165.781 145.585 165.946 145.922 166.372C146.26 166.797 146.359 167.242 146.459 167.238C146.559 167.234 146.612 166.663 146.183 166.146C145.754 165.628 145.183 165.586 145.183 165.682Z" fill="#263238"/>
<path id="Vector_125" d="M143.945 168.322C144.033 168.345 144.167 167.84 143.91 167.292C143.653 166.743 143.194 166.525 143.144 166.613C143.094 166.701 143.389 166.996 143.596 167.441C143.803 167.886 143.849 168.315 143.945 168.322Z" fill="#263238"/>
<path id="Vector_126" d="M147.21 162.241C147.252 162.329 147.701 162.187 148.256 162.222C148.812 162.256 149.245 162.433 149.295 162.345C149.345 162.256 148.912 161.903 148.272 161.872C147.632 161.842 147.16 162.16 147.21 162.241Z" fill="#263238"/>
<path id="Vector_127" d="M157.715 84.4691L158.375 89.2483C158.584 90.7999 158.584 92.3725 158.375 93.9241L157.938 97.2469C157.938 97.2469 157.045 121.956 157.003 121.051C157.003 121.051 157.482 139.168 157.846 143.012C158.501 150.003 157.911 162.842 157.911 162.842H146.478L142.362 122.239L139.806 96.9442L135.36 85.4272L157.715 84.4691Z" fill="#263238"/>
<path id="Vector_128" d="M130.803 85.6227L130.929 90.4556L131.619 125.604C131.711 127.254 132.033 128.883 132.573 130.445L141.936 157.442L142.469 159.293L149.345 157.587L144.232 84.9558L130.803 85.6227Z" fill="#263238"/>
<path id="Vector_129" d="M139.836 97.2469C139.832 97.3044 139.832 97.362 139.836 97.4194C139.836 97.5421 139.836 97.7069 139.836 97.9177C139.836 98.3699 139.867 99.0138 139.894 99.834C139.94 101.501 140.055 103.916 140.22 106.894C140.568 112.853 141.216 121.074 142.228 130.131C143.24 139.187 144.317 147.377 145.121 153.272L146.087 160.27C146.206 161.087 146.298 161.727 146.363 162.187C146.394 162.397 146.421 162.57 146.44 162.681C146.444 162.738 146.455 162.794 146.47 162.85C146.476 162.792 146.476 162.734 146.47 162.677C146.47 162.554 146.44 162.39 146.417 162.183C146.363 161.734 146.283 161.094 146.183 160.266L145.282 153.257C144.516 147.339 143.447 139.164 142.45 130.111C141.454 121.059 140.771 112.865 140.384 106.894C140.2 103.916 140.059 101.505 140.001 99.8378C139.959 99.0138 139.928 98.3661 139.905 97.9215C139.905 97.7107 139.882 97.5382 139.875 97.4194C139.868 97.3607 139.855 97.3029 139.836 97.2469Z" fill="#455A64"/>
<path id="Vector_130" d="M147.206 162.861C147.232 163.005 147.244 163.152 147.241 163.298C147.241 163.62 147.241 164.022 147.271 164.513H147.141C147.139 164.526 147.141 164.539 147.147 164.55C147.152 164.562 147.161 164.571 147.172 164.578C147.199 164.578 147.21 164.578 147.206 164.578H147.183L147.13 164.601L147.022 164.651L146.792 164.766L146.302 165.015L145.187 165.586L142.561 166.947C140.875 167.84 139.296 168.56 138.307 169.311C137.906 169.593 137.55 169.933 137.249 170.319C137.142 170.462 137.056 170.62 136.992 170.787C136.998 170.599 137.066 170.419 137.184 170.273C137.469 169.862 137.819 169.5 138.219 169.2C139.212 168.403 140.787 167.667 142.469 166.766C143.408 166.28 144.305 165.827 145.106 165.425L146.229 164.873L146.731 164.636L146.965 164.528L147.076 164.478L147.133 164.455H147.164H147.206C147.206 164.455 147.206 164.455 147.245 164.455C147.256 164.462 147.265 164.471 147.271 164.483C147.276 164.495 147.278 164.508 147.275 164.521L147.137 164.904V164.498C147.137 164.007 147.16 163.605 147.168 163.283C147.167 163.141 147.18 163 147.206 162.861Z" fill="#263238"/>
<g id="Group_8" opacity="0.3">
<path id="Vector_131" d="M130.979 92.3872C130.979 92.3872 134.72 94.407 141.71 95.2042C151.725 96.354 158.52 91.0956 158.52 91.0956L157.995 86.5502L130.979 88.3323V92.3872Z" fill="black"/>
</g>
<path id="Vector_132" d="M158.957 43.9125C162.36 48.6611 160.923 60.3198 160.923 60.3198L159.34 84.6568V87.539C159.34 87.539 159.463 89.9075 150.87 92.7705C142.278 95.6334 129.588 90.6242 129.588 90.6242C129.588 90.6242 131.918 72.8639 133.627 63.0065C133.85 61.729 134.075 60.5268 134.302 59.4C135.643 52.7258 138.83 46.5619 143.5 41.6091L143.577 41.5248L154.005 39.0681C155.896 40.418 157.566 42.0521 158.957 43.9125Z" fill="#FF7959"/>
<path id="Vector_133" d="M129.948 87.8724C129.948 87.8724 138.51 92.0883 146.164 91.0765C150.894 90.3965 155.403 88.6337 159.34 85.9254V88.6083C159.34 88.6083 153.281 93.6711 144.934 93.6673C139.682 93.5966 134.487 92.5693 129.603 90.6357L129.948 87.8724Z" fill="#E0E0E0"/>
<path id="Vector_134" d="M132.838 67.8011L160.318 69.6944L159.904 76.2175L132.01 73.2434L132.838 67.8011Z" fill="#E0E0E0"/>
<g id="Group_9" opacity="0.3">
<path id="Vector_135" d="M130.665 82.6409C130.665 82.6409 133.106 84.4767 138.56 83.4841C144.014 82.4915 152.687 81.2535 154.588 79.6017C156.519 77.8581 157.686 75.4235 157.834 72.8256C158.056 70.0968 157.451 57.1886 157.451 57.1886L148.636 72.9023L131.163 79.0996L130.665 82.6409Z" fill="black"/>
</g>
<path id="Vector_136" d="M152.468 41.5248C155.109 41.5248 157.93 45.7943 158.217 48.3008C158.505 50.8073 157.489 71.0243 157.067 73.3239C156.243 77.9536 152.442 78.7738 152.442 78.7738C152.442 78.7738 143.312 81.4068 137.169 81.8897C133.547 82.1945 129.912 81.4929 126.663 79.8623L125.173 79.9581L125.556 72.2699L127.089 72.5267L143.952 68.4028C143.952 68.4028 142.875 51.1216 142.971 50.8342C142.964 50.8342 143.83 41.5286 152.468 41.5248Z" fill="#455A64"/>
<path id="Vector_137" d="M127.974 72.3121C128.048 72.2782 128.125 72.2525 128.204 72.2354L128.871 72.0553L131.343 71.4229L139.514 69.4069L143.922 68.3108H143.972L144.006 68.3453C144.389 68.7286 144.773 69.0658 145.156 69.3916C145.513 69.6966 145.888 69.9795 146.279 70.2386C146.928 70.6769 147.523 71.1916 148.05 71.7717C148.384 72.157 148.675 72.5772 148.92 73.0249C149 73.1821 149.057 73.3047 149.096 73.389C149.134 73.4733 149.149 73.5193 149.142 73.5193C149.134 73.5193 149.046 73.3545 148.866 73.0556C148.606 72.6244 148.305 72.22 147.965 71.8483C147.431 71.2909 146.836 70.7959 146.191 70.3728C145.791 70.1155 145.407 69.8339 145.041 69.5296C144.658 69.2038 144.274 68.8551 143.891 68.4871L143.979 68.5101L139.572 69.6177L131.362 71.5685L128.875 72.1396L128.197 72.2852C128.124 72.3017 128.049 72.3107 127.974 72.3121Z" fill="#263238"/>
<path id="Vector_138" d="M151.652 40.9077C151.02 40.8273 141.093 44.6139 139.894 55.441C139.51 58.806 139.894 66.2297 144.11 67.4178C148.325 68.6059 156.757 64.9573 156.757 64.9573C156.757 64.9573 160.682 50.7345 159.796 48.1744C158.911 45.6142 155.285 41.3562 151.652 40.9077Z" fill="#455A64"/>
<path id="Vector_139" d="M144.324 50.2248C144.335 50.2869 144.335 50.3505 144.324 50.4126C144.324 50.5544 144.324 50.7307 144.324 50.9415C144.301 51.4321 144.271 52.0913 144.236 52.8884C144.163 54.5288 144.071 56.8015 144.021 59.3081C143.972 61.8146 143.972 64.0911 143.975 65.7353V67.6861C143.975 67.8969 143.975 68.0694 143.975 68.215C143.982 68.2775 143.982 68.3404 143.975 68.4028C143.958 68.3418 143.949 68.2786 143.949 68.215C143.949 68.0732 143.949 67.8969 143.922 67.6861C143.899 67.2262 143.876 66.5632 143.857 65.7392C143.818 64.095 143.799 61.8184 143.857 59.3042C143.914 56.79 144.018 54.5211 144.129 52.8808C144.186 52.0568 144.236 51.3937 144.282 50.9338C144.282 50.7269 144.32 50.5506 144.336 50.4088C144.326 50.3479 144.322 50.2863 144.324 50.2248Z" fill="#263238"/>
<g id="Group_10" opacity="0.3">
<path id="Vector_140" d="M141.71 60.2662C141.58 64.3173 143.872 68.4181 143.872 68.4181L144.255 51.3631C142.58 52.7505 141.825 56.9127 141.71 60.2662Z" fill="black"/>
</g>
<path id="Vector_141" d="M151.53 40.0071C146.658 40.9844 141.829 45.0891 138.683 50.2248C135.536 55.3605 134.582 69.039 134.582 69.039L137.736 69.1425C137.736 69.1425 136.398 61.416 139.783 51.8958C143.167 42.3756 151.556 40.6778 151.556 40.6778L151.53 40.0071Z" fill="#E0E0E0"/>
<path id="Vector_142" d="M158.217 48.3008C158.232 48.3701 158.238 48.4408 158.236 48.5116C158.236 48.6726 158.236 48.8719 158.236 49.1172C158.236 49.6422 158.236 50.4011 158.236 51.3401C158.206 53.2142 158.091 55.805 157.926 58.6603C157.761 61.5156 157.627 64.1026 157.562 65.9768C157.531 66.8928 157.508 67.6439 157.489 68.1958C157.489 68.4373 157.489 68.6366 157.466 68.7976C157.468 68.8683 157.461 68.9391 157.447 69.0084C157.43 68.9395 157.424 68.8684 157.428 68.7976C157.428 68.6366 157.428 68.4373 157.428 68.1958C157.428 67.6708 157.428 66.9119 157.428 65.9729C157.455 64.095 157.57 61.5079 157.734 58.6488C157.899 55.7897 158.037 53.2065 158.118 51.3362C158.148 50.4202 158.171 49.6691 158.187 49.1172C158.187 48.8719 158.206 48.6726 158.21 48.5116C158.202 48.4413 158.205 48.3704 158.217 48.3008Z" fill="#263238"/>
<path id="Vector_143" d="M154.005 43.1728C153.518 42.9842 153.021 42.8254 152.514 42.6976C151.29 42.4173 150.011 42.4948 148.829 42.9208C147.648 43.3469 146.613 44.1035 145.85 45.1006C145.543 45.5221 145.262 45.961 145.006 46.4152C145.037 46.2813 145.086 46.1524 145.152 46.0319C145.311 45.6791 145.506 45.3439 145.735 45.0316C146.49 43.9825 147.545 43.1865 148.761 42.748C149.977 42.3096 151.298 42.2493 152.549 42.5749C152.924 42.6649 153.289 42.7933 153.637 42.9582C153.77 43.0119 153.893 43.0842 154.005 43.1728Z" fill="#263238"/>
<path id="Vector_144" d="M142.297 40.6586L154.304 37.5619L154.496 39.4245L149.843 40.1451L141.346 44.1118L142.297 40.6586Z" fill="#455A64"/>
<path id="Vector_145" d="M151.606 40.6586C151.606 40.6586 159.371 42.1227 160.666 48.3008C160.666 48.3008 160.199 44.9741 158.463 43.2571C154.967 39.8078 151.53 40.0071 151.53 40.0071L151.606 40.6586Z" fill="#E0E0E0"/>
<path id="Vector_146" d="M151.507 39.8423C151.56 39.8423 151.625 40.0571 151.656 40.3486C151.687 40.64 151.656 40.874 151.606 40.874C151.556 40.874 151.484 40.6477 151.457 40.3677C151.43 40.0878 151.449 39.85 151.507 39.8423Z" fill="#263238"/>
</g>
</g>
</svg>
