<svg width="16" height="12" viewBox="0 0 16 12" fill="none" xmlns="http://www.w3.org/2000/svg">
<g id="elements">
<path id="Vector 5016" d="M6.6665 4L6.6665 5.33333" stroke="#6B7280" stroke-width="1.3" stroke-linecap="round"/>
<ellipse id="Ellipse 1647" cx="11.3333" cy="9.99999" rx="1.33333" ry="1.33333" stroke="#6B7280" stroke-width="1.3"/>
<ellipse id="Ellipse 1648" cx="4.66659" cy="9.99999" rx="1.33333" ry="1.33333" stroke="#6B7280" stroke-width="1.3"/>
<path id="Vector 5060" d="M3.33325 9.98162C2.6021 9.94518 2.14599 9.83641 1.82141 9.51183C1.33325 9.02368 1.33325 8.238 1.33325 6.66666L1.33325 3.99999C1.33325 2.42864 1.33325 1.64297 1.82141 1.15481C2.30956 0.666656 3.09524 0.666656 4.66659 0.666656L6.86659 0.666656C7.6111 0.666656 7.98335 0.666656 8.28462 0.764543C8.8935 0.962379 9.37086 1.43975 9.5687 2.04862C9.66659 2.34989 9.66659 2.72214 9.66659 3.46666C9.66659 3.963 9.66659 4.21117 9.73184 4.41201C9.86373 4.81793 10.182 5.13617 10.5879 5.26806C10.7887 5.33332 11.0369 5.33332 11.5333 5.33332L14.6666 5.33332V6.66666C14.6666 8.238 14.6666 9.02368 14.1784 9.51183C13.8539 9.83641 13.3977 9.94518 12.6666 9.98162M5.99992 9.99999H9.99992" stroke="#6B7280" stroke-width="1.3" stroke-linecap="round" stroke-linejoin="round"/>
<path id="Vector 5061" d="M9.6665 2L10.8807 2C11.8509 2 12.336 2 12.7308 2.23581C13.1256 2.47161 13.3556 2.89874 13.8156 3.753L14.6665 5.33333" stroke="#6B7280" stroke-width="1.3" stroke-linecap="round" stroke-linejoin="round"/>
<path id="Vector 5017" d="M4 4L4 5.33333" stroke="#6B7280" stroke-width="1.3" stroke-linecap="round"/>
</g>
</svg>
