<svg width="174" height="171" viewBox="0 0 174 171" fill="none" xmlns="http://www.w3.org/2000/svg">
<g id="Barcode">
<g id="freepik--background-complete--inject-162">
<path id="Vector" d="M31.4311 103.477H12.7855V108.41H31.4311V103.477Z" fill="#EBEBEB"/>
<path id="Vector_2" d="M23.5475 113.607C23.5447 113.576 23.5447 113.545 23.5475 113.515V113.262C23.5475 113.032 23.5475 112.706 23.5475 112.292C23.5475 111.441 23.5283 110.215 23.513 108.674L23.5743 108.732L4.88654 108.766L4.97852 108.674V111.173C4.97852 111.996 4.97852 112.805 4.97852 113.599L4.88654 113.507L18.1742 113.549L22.0987 113.572H23.1604H23.4363H23.536H23.4478H23.1834H22.1409L18.2393 113.599L4.88654 113.699H4.79456V111.181C4.79456 110.767 4.79456 110.353 4.79456 109.935V108.682C4.98619 108.49 4.84821 108.628 4.8942 108.586L23.5398 108.624H23.5973V108.682C23.5973 110.238 23.5705 111.476 23.5628 112.334C23.5628 112.744 23.5628 113.063 23.5628 113.293C23.5628 113.392 23.5628 113.473 23.5628 113.534C23.5591 113.559 23.554 113.583 23.5475 113.607Z" fill="#E0E0E0"/>
<path id="Vector_3" d="M102.453 0.19635H83.8075V5.12891H102.453V0.19635Z" fill="#EBEBEB"/>
<path id="Vector_4" d="M94.5693 10.3451C94.5666 10.3145 94.5666 10.2837 94.5693 10.2531V10.0001C94.5693 9.77018 94.5693 9.44441 94.5693 9.03049C94.5693 8.17966 94.5502 6.95706 94.5387 5.41252L94.5961 5.47001L75.9506 5.50833C75.9927 5.46618 75.8547 5.60032 76.0425 5.41252V10.3451L75.9467 10.2531L89.2343 10.2953L93.1589 10.3221H94.2206H94.4965H94.5961H94.508H94.2435H93.2011L89.2995 10.3489L75.9467 10.3911H75.8547V5.40102C76.0425 5.20939 75.9046 5.34736 75.9506 5.30521L94.5961 5.34353H94.6536V5.40102C94.6536 6.95706 94.6268 8.19499 94.6191 9.05349C94.6191 9.46358 94.6191 9.78168 94.6191 10.0116C94.6191 10.1113 94.6191 10.1918 94.6191 10.2531C94.6051 10.2851 94.5884 10.3158 94.5693 10.3451Z" fill="#E0E0E0"/>
<path id="Vector_5" d="M106.611 115.998C106.61 115.969 106.61 115.94 106.611 115.91V115.657C106.611 115.427 106.611 115.102 106.611 114.688C106.611 113.837 106.611 112.61 106.581 111.066L106.638 111.123L87.9927 111.162L88.0885 111.066V112.327C88.0885 112.744 88.0885 113.158 88.0885 113.568V115.995L87.9965 115.903L101.284 115.945L105.205 115.972H106.267H106.542H106.642C106.642 115.972 106.615 115.972 106.558 115.972H106.29H105.251L101.349 115.998L87.9965 116.041H87.9045V115.945C87.9045 115.155 87.9045 114.343 87.9045 113.519V111.016L88.0004 110.924L106.646 110.958H106.703V111.016C106.703 112.576 106.68 113.81 106.673 114.672C106.673 115.082 106.673 115.4 106.673 115.63V115.872C106.615 115.975 106.615 116.002 106.611 115.998Z" fill="#E0E0E0"/>
<path id="Vector_6" d="M109.133 111.066C109.128 111.035 109.128 111.004 109.133 110.974C109.133 110.901 109.133 110.817 109.133 110.713C109.133 110.468 109.133 110.138 109.114 109.724C109.114 108.858 109.095 107.636 109.08 106.133L109.149 106.202L97.9459 106.229C97.8578 106.313 98.0609 106.114 98.0379 106.133V108.67C98.0379 109.498 98.0379 110.295 98.0379 111.062L97.9459 110.974L105.964 111.016L108.298 111.043H108.926H109.152C109.085 111.048 109.017 111.048 108.949 111.043H108.336L106.037 111.07L97.9574 111.112H97.8693V111.02C97.8693 110.253 97.8693 109.456 97.8693 108.628V106.091L97.9651 105.995L109.168 106.022H109.237V106.087C109.218 107.62 109.206 108.843 109.198 109.717C109.198 110.127 109.198 110.453 109.179 110.694C109.171 110.819 109.156 110.943 109.133 111.066Z" fill="#E0E0E0"/>
<path id="Vector_7" d="M18.7107 45.3865C18.7107 45.3865 18.7107 45.3559 18.7107 45.2984V45.0454C18.7107 44.8116 18.7107 44.4859 18.7107 44.0719C18.7107 43.2211 18.6916 41.9985 18.6763 40.454L18.7337 40.5115L0.0881496 40.5498L0.183965 40.454V42.9528C0.183965 43.7768 0.183965 44.5855 0.183965 45.3789L0.0919823 45.2869L13.3796 45.329L17.3042 45.3559H18.362H18.6418C18.6736 45.3527 18.7057 45.3527 18.7376 45.3559H18.6533H18.385H17.3463L13.4448 45.3827L0.0919823 45.4249H0V45.3329C0 44.5395 0 43.7308 0 42.9068V40.408L0.095815 40.3122L18.7414 40.3505H18.7989V40.408C18.7989 41.964 18.7759 43.2019 18.7682 44.0604C18.7682 44.4705 18.7682 44.7886 18.7682 45.0186V45.2601C18.7146 45.3635 18.7146 45.3865 18.7107 45.3865Z" fill="#E0E0E0"/>
<path id="Vector_8" d="M21.2402 40.454C21.2374 40.4221 21.2374 40.39 21.2402 40.3582C21.2402 40.2892 21.2402 40.201 21.2402 40.0975C21.2402 39.8561 21.2402 39.5265 21.2402 39.1087C21.2402 38.2426 21.2172 37.0238 21.2019 35.5214L21.2709 35.5904L10.0682 35.6172L10.164 35.5214V38.0548C10.164 38.8788 10.164 39.6798 10.164 40.4463L10.0759 40.3543L18.0898 40.3965L20.4239 40.4233H21.0524H21.2785C21.2109 40.4288 21.143 40.4288 21.0754 40.4233H20.466L18.1665 40.4463L10.0912 40.4885H9.94555V40.3965C9.94555 39.63 9.94555 38.8289 9.94555 38.0049V35.4716C9.92256 35.4716 10.1257 35.2915 10.0414 35.3758L21.2441 35.4026H21.313V35.4716C21.313 37.0046 21.2824 38.2272 21.2747 39.1011C21.2747 39.5111 21.2747 39.8369 21.2747 40.0745C21.2747 40.3122 21.2441 40.4578 21.2402 40.454Z" fill="#E0E0E0"/>
<path id="Vector_9" d="M171.352 55.7882C171.352 55.7882 171.352 55.7537 171.352 55.6962V55.4433C171.352 55.2133 171.352 54.8875 171.352 54.4736C171.352 53.6228 171.352 52.3964 171.321 50.8518L171.379 50.9131L152.733 50.9476L152.829 50.8518V53.3545C152.829 54.1785 152.829 54.991 152.829 55.7844L152.737 55.6886L166.024 55.7307L169.945 55.7575H171.007H171.283H171.382H171.298H171.03H169.991L166.09 55.7844L152.737 55.8265H152.645V55.7345C152.645 54.9412 152.645 54.1287 152.645 53.3047V50.8557L152.741 50.7637L171.386 50.7982H171.444V50.8557C171.444 52.4155 171.421 53.6535 171.413 54.512C171.413 54.922 171.413 55.2401 171.413 55.4701V55.7116C171.397 55.7401 171.376 55.7659 171.352 55.7882Z" fill="#E0E0E0"/>
<path id="Vector_10" d="M173.881 50.8518C173.878 50.8213 173.878 50.7904 173.881 50.7598C173.881 50.687 173.881 50.6027 173.881 50.4992C173.881 50.2539 173.881 49.9243 173.881 49.5104C173.881 48.6442 173.858 47.4216 173.843 45.9193L173.912 45.9883L162.709 46.0151C162.621 46.0994 162.824 45.9001 162.801 45.9193V48.4564C162.801 49.2843 162.801 50.0815 162.801 50.848L162.713 50.7598L170.727 50.802L173.061 50.8288H173.689H173.916C173.848 50.8343 173.78 50.8343 173.712 50.8288H173.099L170.8 50.8557L162.724 50.8978H162.632V50.8058C162.632 50.0393 162.632 49.2421 162.632 48.4143V45.8771C162.609 45.9001 162.813 45.697 162.728 45.7851L173.931 45.8119H174V45.8771C174 47.4101 173.969 48.6327 173.962 49.5104C173.962 49.9167 173.962 50.2424 173.962 50.4839C173.962 50.7253 173.904 50.8595 173.881 50.8518Z" fill="#E0E0E0"/>
<path id="Vector_11" d="M44.6842 170.571H86.1836V138.561H44.6842L44.6842 170.571Z" fill="#F5F5F5"/>
<path id="Vector_12" d="M55.0936 170.345C55.1511 170.345 55.1971 163.208 55.1971 154.413C55.1971 145.617 55.1511 138.477 55.0936 138.477C55.0361 138.477 54.9901 145.609 54.9901 154.413C54.9901 163.216 55.0208 170.345 55.0936 170.345Z" fill="#EBEBEB"/>
<path id="Vector_13" d="M48.2026 166.884H51.3837V163.289H48.2026V166.884Z" fill="#FAFAFA"/>
<path id="Vector_14" d="M73.5207 138.645H68.8066V145.475H73.5207V138.645Z" fill="#EBEBEB"/>
<path id="Vector_15" d="M73.5207 163.645H68.8066V170.475H73.5207V163.645Z" fill="#EBEBEB"/>
<path id="Vector_16" d="M136.134 130.026H83.7423V170.437H136.134V130.026Z" fill="#EBEBEB"/>
<path id="Vector_17" d="M123.011 170.164C122.954 170.164 122.904 161.158 122.904 150.047C122.904 138.936 122.954 129.93 123.011 129.93C123.069 129.93 123.115 138.936 123.115 150.047C123.115 161.158 123.069 170.164 123.011 170.164Z" fill="#E0E0E0"/>
<path id="Vector_18" d="M131.692 161.238H127.675V165.78H131.692V161.238Z" fill="#FAFAFA"/>
<path id="Vector_19" d="M105.68 130.129H99.728V138.752H105.68V130.129Z" fill="#E0E0E0"/>
<path id="Vector_20" d="M105.68 161.691H99.728V170.314H105.68V161.691Z" fill="#E0E0E0"/>
</g>
<g id="freepik--Floor--inject-162">
<path id="Vector_21" d="M166.239 170.9C166.239 170.954 130.036 170.999 85.3711 170.999C40.706 170.999 4.5033 170.954 4.5033 170.9C4.5033 170.847 40.6984 170.801 85.3711 170.801C130.044 170.801 166.239 170.843 166.239 170.9Z" fill="#263238"/>
</g>
<g id="freepik--Plant--inject-162">
<path id="Vector_22" d="M24.7586 159.483C24.7586 159.483 23.0952 148.05 23.2255 141.397C23.3558 134.744 23.2255 127.259 23.2255 127.259H23.9921C23.9921 127.259 23.4747 140.466 24.038 148.43C24.6014 156.394 26.0885 159.483 26.0885 159.483H24.7586Z" fill="#263238"/>
<path id="Vector_23" d="M29.7141 114.396C29.5921 113.992 29.3486 113.634 29.0165 113.373C28.5298 113.063 27.8898 113.193 27.3494 113.373C25.0498 114.193 22.9802 118.509 22.045 120.781L25.1111 131.129C30.6684 126.001 31.6265 119.248 29.7141 114.396Z" fill="#455A64"/>
<path id="Vector_24" d="M28.8364 113.791C28.8273 113.837 28.8118 113.883 28.7904 113.925L28.6409 114.308C28.5068 114.634 28.3152 115.109 28.089 115.696C27.6368 116.872 27.0619 118.516 26.556 120.371C26.0501 122.226 25.6898 123.932 25.4714 125.174C25.3602 125.794 25.2797 126.297 25.2261 126.645C25.1993 126.806 25.1801 126.94 25.1609 127.048C25.1557 127.095 25.1454 127.141 25.1303 127.186C25.1244 127.139 25.1244 127.091 25.1303 127.044C25.1303 126.937 25.1571 126.802 25.1724 126.638C25.2108 126.289 25.2797 125.779 25.3794 125.158C25.8977 121.905 26.7823 118.72 28.0162 115.665C28.25 115.079 28.4531 114.607 28.6026 114.289L28.7751 113.906C28.7923 113.866 28.8128 113.827 28.8364 113.791Z" fill="#263238"/>
<path id="Vector_25" d="M23.7505 133.636C22.3514 132.84 21.1807 131.697 20.351 130.318C19.5214 128.939 19.0607 127.369 19.0134 125.76C18.9023 123.46 19.6075 121.203 20.4085 119.045C20.4576 118.85 20.5727 118.678 20.7343 118.559C20.8649 118.511 21.0055 118.497 21.1429 118.519C21.2802 118.54 21.41 118.596 21.5199 118.681C23.6125 119.873 24.8811 122.131 25.5595 124.461C26.0421 125.996 26.2026 127.613 26.0309 129.213C25.7621 130.897 24.9554 132.449 23.7313 133.636" fill="#455A64"/>
<path id="Vector_26" d="M23.7505 133.636C23.7457 133.589 23.7457 133.541 23.7505 133.494C23.7505 133.391 23.7505 133.26 23.7505 133.111C23.7505 132.766 23.7505 132.264 23.7084 131.651C23.6224 130.043 23.4381 128.442 23.1565 126.856C22.8345 125.001 22.4475 123.338 22.16 122.138C22.022 121.552 21.9032 121.069 21.8189 120.716C21.7844 120.559 21.7538 120.433 21.7308 120.333C21.7178 120.288 21.7101 120.242 21.7078 120.195C21.7304 120.236 21.7472 120.28 21.7576 120.325C21.7844 120.425 21.8227 120.551 21.8687 120.709C21.9645 121.038 22.0949 121.521 22.252 122.119C22.5624 123.315 22.9649 124.978 23.283 126.837C23.5592 128.426 23.727 130.031 23.785 131.643C23.785 132.26 23.785 132.762 23.785 133.107C23.785 133.268 23.785 133.398 23.785 133.49C23.785 133.582 23.7582 133.636 23.7505 133.636Z" fill="#263238"/>
<g id="Group" opacity="0.3">
<path id="Vector_27" d="M23.7505 133.636C22.3514 132.84 21.1807 131.697 20.351 130.318C19.5214 128.939 19.0607 127.369 19.0134 125.76C18.9023 123.46 19.6075 121.203 20.4085 119.045C20.4576 118.85 20.5727 118.678 20.7343 118.559C20.8649 118.511 21.0055 118.497 21.1429 118.519C21.2802 118.54 21.41 118.596 21.5199 118.681C23.6125 119.873 24.8811 122.131 25.5595 124.461C26.0421 125.996 26.2026 127.613 26.0309 129.213C25.7621 130.897 24.9554 132.449 23.7313 133.636" fill="black"/>
</g>
<path id="Vector_28" d="M27.0044 151.128C29.8405 151.753 32.1746 153.753 34.911 154.727C36.72 155.371 38.7666 155.597 40.2115 156.861C39.8666 155.988 39.0618 155.405 38.2454 154.903C35.992 153.499 33.5879 152.352 31.0784 151.484C29.7907 151.04 28.3956 150.668 27.081 151.032" fill="#455A64"/>
<path id="Vector_29" d="M22.8997 153.657C19.3469 153.6 15.6178 150.591 12.0726 150.396C15.7711 149.2 21.0677 150.177 22.8997 153.657Z" fill="#455A64"/>
<path id="Vector_30" d="M24.291 145.138C26.1213 144.538 28.0727 144.406 29.967 144.754C31.8543 145.101 33.7093 145.605 35.5128 146.261C35.3289 145.026 34.3324 144.103 33.3934 143.283C32.7081 142.641 31.9624 142.067 31.1666 141.569C30.3646 141.061 29.4332 140.795 28.4838 140.803C27.9181 140.839 27.3655 140.989 26.8591 141.244C26.3527 141.499 25.9029 141.853 25.5366 142.286C24.8192 143.071 24.3766 144.068 24.2756 145.126" fill="#455A64"/>
<path id="Vector_31" d="M17.0014 141.213C14.7631 139.297 11.3789 139.492 8.43933 139.557C13.1606 141.81 17.6139 144.585 21.7155 147.832C21.8381 145.755 19.8336 143.628 17.0014 141.213Z" fill="#455A64"/>
<g id="Group_2" opacity="0.3">
<path id="Vector_32" d="M17.0014 141.213C14.7631 139.297 11.3789 139.492 8.43933 139.557C13.1606 141.81 17.6139 144.585 21.7155 147.832C21.8381 145.755 19.8336 143.628 17.0014 141.213Z" fill="black"/>
</g>
<path id="Vector_33" d="M25.295 138.58C26.3899 137.823 27.5433 137.154 28.7444 136.579C29.921 136.047 31.0209 135.196 32.1554 134.579C33.6309 133.782 34.9072 132.663 36.2601 131.681C37.613 130.7 39.1001 129.8 40.7557 129.539C39.3931 129.296 37.9925 129.376 36.6664 129.773C35.3524 130.174 34.0711 130.675 32.8338 131.271C31.0899 132.057 29.3154 132.862 27.8897 134.138C26.464 135.414 25.1762 136.671 25.3257 138.58" fill="#455A64"/>
<path id="Vector_34" d="M34.8459 153.657C34.8069 153.646 34.7695 153.629 34.7348 153.608L34.4244 153.447C34.1561 153.305 33.7728 153.094 33.2746 152.853C33.0331 152.726 32.7687 152.592 32.4812 152.469C32.1938 152.347 31.8872 152.19 31.5576 152.048C30.8525 151.727 30.1201 151.471 29.3692 151.281C28.6265 151.076 27.8447 151.056 27.0926 151.224C26.7636 151.294 26.4406 151.39 26.1268 151.511C25.4601 151.782 24.86 152.194 24.3676 152.718C24.1645 152.941 24.061 153.075 24.0533 153.067C24.0708 153.03 24.0926 152.995 24.1185 152.964C24.184 152.867 24.2557 152.775 24.3331 152.688C24.8116 152.133 25.4126 151.698 26.0885 151.415C26.4052 151.286 26.7321 151.184 27.0658 151.109C27.8358 150.931 28.6381 150.948 29.3998 151.159C30.1563 151.346 30.8939 151.603 31.6036 151.925C31.9332 152.071 32.2436 152.213 32.5272 152.358C32.8108 152.504 33.0753 152.634 33.2937 152.768C33.7728 153.021 34.1522 153.244 34.4129 153.401L34.7118 153.581C34.76 153.6 34.8052 153.626 34.8459 153.657Z" fill="#263238"/>
<path id="Vector_35" d="M20.2514 151.894C20.3294 151.906 20.4055 151.927 20.4775 151.96C20.6747 152.034 20.8679 152.118 21.0562 152.213C21.6761 152.53 22.2467 152.935 22.7502 153.416C23.2532 153.9 23.682 154.455 24.0226 155.064C24.126 155.247 24.2169 155.436 24.2948 155.631C24.331 155.701 24.3569 155.776 24.3714 155.854C24.3484 155.854 24.2181 155.558 23.946 155.11C23.2308 153.932 22.2201 152.961 21.0141 152.293C20.5503 152.036 20.2437 151.917 20.2514 151.894Z" fill="#263238"/>
<path id="Vector_36" d="M12.3945 141.037C12.447 141.047 12.4984 141.062 12.5478 141.083L12.9733 141.232L13.644 141.481C13.9084 141.577 14.192 141.723 14.514 141.865C16.1792 142.635 17.7338 143.625 19.1361 144.808C19.9017 145.467 20.6225 146.176 21.2938 146.931C21.9032 147.636 22.4206 148.296 22.8269 148.871C23.2331 149.445 23.5397 149.925 23.7505 150.254L23.9958 150.637C24.0266 150.68 24.0523 150.727 24.0725 150.775C24.0362 150.737 24.0029 150.696 23.9728 150.653C23.9115 150.568 23.8195 150.446 23.7084 150.269C23.4861 149.944 23.168 149.476 22.754 148.909C22.3401 148.342 21.8227 147.69 21.221 146.993C20.5482 146.252 19.8288 145.556 19.0671 144.908C17.6659 143.729 16.1205 142.734 14.468 141.945C14.1499 141.799 13.8701 141.65 13.6095 141.562L12.9464 141.294L12.5517 141.106L12.3945 141.037Z" fill="#263238"/>
<path id="Vector_37" d="M29.6183 143.141C29.5228 143.137 29.4278 143.124 29.3347 143.103L29.0089 143.041C28.8824 143.018 28.7368 143.018 28.5758 143.003C27.924 142.942 27.2669 143.028 26.6523 143.253C26.0377 143.479 25.4811 143.838 25.023 144.306C24.7519 144.573 24.5115 144.87 24.3063 145.191C24.1219 145.49 23.9592 145.801 23.8196 146.123C23.8291 146.026 23.8536 145.932 23.8924 145.843C23.983 145.598 24.0973 145.364 24.2335 145.141C24.4294 144.808 24.6663 144.5 24.9387 144.225C25.4021 143.738 25.9728 143.365 26.6056 143.137C27.2383 142.909 27.9156 142.831 28.5835 142.911C28.7445 142.934 28.8939 142.942 29.0204 142.972L29.3462 143.057C29.4406 143.071 29.5323 143.099 29.6183 143.141Z" fill="#263238"/>
<path id="Vector_38" d="M33.1903 132.065C33.1484 132.097 33.1035 132.125 33.0561 132.149L32.6729 132.364C32.328 132.547 31.8335 132.823 31.2318 133.18C30.6301 133.536 29.9249 133.981 29.1737 134.517C28.3518 135.087 27.5823 135.728 26.8742 136.434C26.5085 136.796 26.1915 137.204 25.9313 137.649C25.7014 138.097 25.4791 138.53 25.2721 138.944C24.9049 139.675 24.5761 140.425 24.2872 141.19C24.0945 141.707 23.9345 142.236 23.8081 142.773C23.7161 143.156 23.6816 143.367 23.6701 143.363C23.6642 143.311 23.6642 143.258 23.6701 143.206C23.6701 143.106 23.7046 142.953 23.7429 142.761C23.8509 142.217 23.9995 141.681 24.1875 141.159C24.4654 140.385 24.7879 139.627 25.1533 138.89C25.3565 138.477 25.5749 138.04 25.8087 137.595C26.0689 137.136 26.3913 136.716 26.7669 136.346C27.4805 135.638 28.2566 134.997 29.0856 134.429C29.8521 133.897 30.5611 133.46 31.1667 133.107C31.7722 132.754 32.282 132.501 32.6307 132.341L33.0408 132.145C33.0876 132.113 33.1377 132.086 33.1903 132.065Z" fill="#263238"/>
<path id="Vector_39" d="M23.2293 142.819C23.1945 142.722 23.1713 142.622 23.1603 142.52C23.1182 142.301 23.0645 142.026 23.0032 141.7C22.6726 139.893 22.1057 138.138 21.3168 136.48L20.9719 135.713C20.9244 135.623 20.8858 135.528 20.8569 135.43C20.9206 135.511 20.9747 135.6 21.0179 135.694C21.1099 135.867 21.244 136.119 21.4012 136.438C21.818 137.26 22.1704 138.113 22.4551 138.99C22.7362 139.867 22.9501 140.764 23.0952 141.673C23.1527 142.022 23.191 142.305 23.214 142.501C23.2293 142.606 23.2344 142.713 23.2293 142.819Z" fill="#263238"/>
<path id="Vector_40" d="M22.9725 134.74C22.8613 133.396 22.4696 132.09 21.8228 130.907C20.947 129.278 19.7248 127.862 18.2422 126.756C16.7595 125.651 15.0526 124.885 13.2416 124.511L21.1866 136.349L22.2099 138.461C22.8562 137.334 23.1235 136.03 22.9725 134.74Z" fill="#455A64"/>
<path id="Vector_41" d="M34.3669 158.069H15.8976V161.342H34.3669V158.069Z" fill="#FF7959"/>
<path id="Vector_42" d="M17.2773 160.694L18.8487 170.85H31.1092L32.9872 160.694H17.2773Z" fill="#FF7959"/>
<path id="Vector_43" d="M34.3553 161.349C34.3553 161.384 30.1893 161.414 25.0536 161.414C19.9179 161.414 15.748 161.384 15.748 161.349C15.748 161.315 19.9141 161.284 25.0536 161.284C30.1931 161.284 34.3553 161.311 34.3553 161.349Z" fill="#263238"/>
</g>
<g id="freepik--Box--inject-162">
<path id="Vector_44" d="M78.8597 170.824H110.548V146.383H78.8597V170.824Z" fill="#FF7959"/>
<path id="Vector_45" d="M81.5463 168.007H83.9762V165.259H81.5463V168.007Z" fill="#FAFAFA"/>
<g id="Group_3" opacity="0.3">
<path id="Vector_46" d="M100.878 146.445H97.2791V151.661H100.878V146.445Z" fill="white"/>
</g>
<g id="Group_4" opacity="0.3">
<path id="Vector_47" d="M100.878 165.535H97.2791V170.751H100.878V165.535Z" fill="white"/>
</g>
<path id="Vector_48" d="M86.77 170.992C86.6742 170.992 86.5938 165.627 86.5938 158.985C86.5938 152.343 86.6742 146.981 86.77 146.981C86.8659 146.981 86.9425 152.347 86.9425 158.985C86.9425 165.623 86.8659 170.992 86.77 170.992Z" fill="#263238"/>
</g>
<g id="freepik--Barcode--inject-162">
<path id="Vector_49" d="M24.59 19.1793H22.7043V91.9258H24.59V19.1793Z" fill="#263238"/>
<path id="Vector_50" d="M27.7173 19.1794H26.1191V91.9259H27.7173V19.1794Z" fill="#263238"/>
<path id="Vector_51" d="M35.4286 19.1794H29.5647V79.3129H35.4286V19.1794Z" fill="#263238"/>
<path id="Vector_52" d="M38.3605 19.1794H36.9156V79.3129H38.3605V19.1794Z" fill="#263238"/>
<path id="Vector_53" d="M43.1091 19.1794H41.6642V79.3129H43.1091V19.1794Z" fill="#263238"/>
<path id="Vector_54" d="M49.3026 19.1794H47.8577V79.3129H49.3026V19.1794Z" fill="#263238"/>
<path id="Vector_55" d="M54.4612 19.1794H53.0164V79.3129H54.4612V19.1794Z" fill="#263238"/>
<path id="Vector_56" d="M71.294 19.1794H69.8491V79.3129H71.294V19.1794Z" fill="#263238"/>
<path id="Vector_57" d="M97.7351 19.1794H94.6154V89.7452H97.7351V19.1794Z" fill="#263238"/>
<path id="Vector_58" d="M112.905 19.1794H111.46V79.3129H112.905V19.1794Z" fill="#263238"/>
<path id="Vector_59" d="M119.209 19.1794H117.764V79.3129H119.209V19.1794Z" fill="#263238"/>
<path id="Vector_60" d="M126.104 19.0834H122.563V93.0986H126.104V19.0834Z" fill="#263238"/>
<path id="Vector_61" d="M85.2064 19.1794H83.7615V79.3129H85.2064V19.1794Z" fill="#263238"/>
<path id="Vector_62" d="M65.0047 19.1794H62.0421V79.3129H65.0047V19.1794Z" fill="#263238"/>
<path id="Vector_63" d="M77.2806 19.1794H74.318V79.3129H77.2806V19.1794Z" fill="#263238"/>
<path id="Vector_64" d="M81.9564 19.1794H78.9938V79.3129H81.9564V19.1794Z" fill="#263238"/>
<path id="Vector_65" d="M104.078 19.1794H101.115V79.3129H104.078V19.1794Z" fill="#263238"/>
<path id="Vector_66" d="M108.555 19.1794H105.592V79.3129H108.555V19.1794Z" fill="#263238"/>
<path id="Vector_67" d="M92.6302 19.1794H87.0614V79.3129H92.6302V19.1794Z" fill="#263238"/>
<path id="Vector_68" d="M60.4516 19.1794H55.887V79.3129H60.4516V19.1794Z" fill="#263238"/>
<path id="Vector_69" d="M35.992 82.6011V95.4901H34.6697V83.7815H31.6305V82.6011H35.992Z" fill="#263238"/>
<path id="Vector_70" d="M48.3176 89.9482C48.7586 90.5012 48.9906 91.1919 48.9729 91.899C48.9871 92.6017 48.7733 93.2901 48.3636 93.8612C47.9194 94.4488 47.3153 94.8959 46.6236 95.149C45.7731 95.4647 44.8707 95.6169 43.9637 95.5974C42.4307 95.5974 41.2158 95.2665 40.3189 94.6048C39.8932 94.2968 39.5496 93.8891 39.3184 93.4173C39.0872 92.9455 38.9754 92.4241 38.9929 91.899C38.9719 91.191 39.1967 90.4977 39.6291 89.9367C40.1147 89.3626 40.7585 88.9441 41.4802 88.7332C40.8768 88.5206 40.3509 88.1321 39.9702 87.6179C39.619 87.114 39.4377 86.5112 39.4528 85.8971C39.4381 85.4143 39.5422 84.9354 39.7561 84.5023C39.9699 84.0692 40.2869 83.6954 40.6792 83.4136C41.6444 82.7565 42.7976 82.4322 43.9637 82.4899C44.7779 82.474 45.5874 82.6159 46.3476 82.9077C46.9788 83.1465 47.531 83.5566 47.942 84.0919C48.3239 84.6154 48.5244 85.2492 48.513 85.8971C48.5272 86.514 48.3387 87.1184 47.9765 87.6179C47.586 88.1321 47.0528 88.52 46.4434 88.7332C47.1735 88.9463 47.825 89.3687 48.3176 89.9482ZM46.6427 93.7808C46.9496 93.5706 47.1988 93.2868 47.3675 92.9553C47.5362 92.6239 47.6191 92.2554 47.6085 91.8836C47.6196 91.5134 47.5369 91.1463 47.3681 90.8166C47.1992 90.487 46.9497 90.2053 46.6427 89.998C45.8257 89.5457 44.9072 89.3084 43.9733 89.3084C43.0395 89.3084 42.1209 89.5457 41.3039 89.998C41.0061 90.2162 40.7639 90.5015 40.5969 90.8307C40.43 91.16 40.343 91.524 40.343 91.8932C40.343 92.2624 40.43 92.6264 40.5969 92.9557C40.7639 93.2849 41.0061 93.5702 41.3039 93.7884C42.1214 94.2435 43.0415 94.4824 43.9772 94.4824C44.9128 94.4824 45.8329 94.2435 46.6504 93.7884L46.6427 93.7808ZM41.6259 87.6486C42.3392 88.0578 43.1472 88.273 43.9695 88.273C44.7918 88.273 45.5998 88.0578 46.3131 87.6486C46.5836 87.4625 46.8035 87.2119 46.9527 86.9195C47.1019 86.627 47.1759 86.302 47.1678 85.9738C47.1781 85.6377 47.1035 85.3045 46.9507 85.005C46.798 84.7056 46.5721 84.4495 46.294 84.2606C45.6022 83.8126 44.7868 83.594 43.9637 83.6359C43.1415 83.5906 42.3263 83.8095 41.6374 84.2606C41.3726 84.4566 41.1575 84.712 41.0093 85.0062C40.8611 85.3004 40.7839 85.6252 40.7839 85.9546C40.7839 86.284 40.8611 86.6088 41.0093 86.903C41.1575 87.1972 41.3726 87.4526 41.6374 87.6486H41.6259Z" fill="#263238"/>
<path id="Vector_71" d="M58.7461 84.1763C59.6557 85.3005 60.1105 86.8872 60.1105 88.9364C60.1478 90.1916 59.896 91.4387 59.3747 92.5812C58.9286 93.5219 58.2103 94.307 57.3127 94.8347C56.3681 95.3602 55.3005 95.6248 54.2198 95.6012C53.1531 95.655 52.0922 95.4136 51.1537 94.9037L51.6903 93.8344C52.4468 94.2784 53.3171 94.4903 54.193 94.4438C54.8162 94.4763 55.439 94.3721 56.0177 94.1384C56.5963 93.9046 57.1169 93.5471 57.5427 93.0909C58.3514 92.1864 58.7576 90.8795 58.7576 89.1587C58.7576 88.8405 58.7385 88.4918 58.704 88.1085C58.3854 88.8058 57.8468 89.3794 57.1709 89.7412C56.4296 90.1359 55.5999 90.3351 54.7602 90.3199C53.9811 90.3338 53.2091 90.17 52.5028 89.8409C51.874 89.5441 51.3424 89.075 50.9698 88.4879C50.5939 87.8768 50.4022 87.1702 50.4179 86.4528C50.405 85.7188 50.6032 84.9964 50.9889 84.3717C51.3723 83.7696 51.9185 83.2886 52.5641 82.9843C53.2676 82.6497 54.0388 82.4819 54.8177 82.4938C56.5347 82.4912 57.8442 83.052 58.7461 84.1763ZM56.6957 88.8252C57.1619 88.5959 57.5588 88.2467 57.8455 87.8134C58.1253 87.3867 58.272 86.8864 58.267 86.3762C58.274 85.8951 58.1408 85.4223 57.8838 85.0156C57.5941 84.5768 57.1898 84.2255 56.7148 84C56.1396 83.7314 55.5098 83.6002 54.8752 83.6167C54.0474 83.5801 53.2357 83.8534 52.5986 84.3832C52.3106 84.6359 52.0826 84.9498 51.9314 85.3019C51.7802 85.654 51.7096 86.0354 51.7248 86.4183C51.7089 86.7996 51.7792 87.1796 51.9305 87.53C52.0818 87.8804 52.3102 88.1921 52.5986 88.442C53.2678 88.9785 54.1105 89.2512 54.9672 89.2085C55.5653 89.2167 56.1571 89.0854 56.6957 88.8252Z" fill="#263238"/>
<path id="Vector_72" d="M65.5605 82.6011V95.4901H64.2344V83.7815H61.1952V82.6011H65.5605Z" fill="#263238"/>
<path id="Vector_73" d="M76.0963 88.8904C76.5185 89.2215 76.8552 89.6491 77.0779 90.1372C77.3007 90.6254 77.403 91.1599 77.3764 91.6958C77.3894 92.4008 77.2077 93.0957 76.8513 93.7041C76.4775 94.3129 75.9303 94.796 75.2799 95.0915C74.4695 95.4532 73.5876 95.6261 72.7006 95.5974C71.8073 95.6018 70.9201 95.4501 70.0791 95.149C69.3328 94.896 68.6502 94.4841 68.0785 93.9417L68.7262 92.8916C69.2067 93.3684 69.7846 93.7358 70.4202 93.9686C71.1409 94.2487 71.9083 94.3891 72.6814 94.3825C73.565 94.4395 74.4408 94.186 75.1573 93.6658C75.4425 93.4366 75.6703 93.144 75.8227 92.8114C75.975 92.4787 76.0477 92.1151 76.035 91.7495C76.0553 91.3586 75.9755 90.969 75.8031 90.6175C75.6307 90.2661 75.3715 89.9645 75.05 89.7412C74.3908 89.289 73.2832 89.059 71.7271 89.059H68.983L69.6575 82.6011H76.7057V83.7815H70.8073L70.3666 87.8862H72.0222C73.8874 87.8862 75.2455 88.2209 76.0963 88.8904Z" fill="#263238"/>
<path id="Vector_74" d="M81.5386 94.8079C80.7267 94.2402 80.0948 93.4514 79.7181 92.5352C78.8445 90.2908 78.8445 87.8004 79.7181 85.556C80.096 84.6404 80.7276 83.8519 81.5386 83.2833C82.3299 82.7658 83.2549 82.4903 84.2003 82.4903C85.1458 82.4903 86.0708 82.7658 86.8621 83.2833C87.6733 83.8536 88.307 84.6414 88.6902 85.556C89.5745 87.7984 89.5745 90.2928 88.6902 92.5352C88.3081 93.4504 87.6742 94.2385 86.8621 94.8079C86.0699 95.323 85.1453 95.5972 84.2003 95.5972C83.2554 95.5972 82.3308 95.323 81.5386 94.8079ZM86.1799 93.7578C86.7885 93.2901 87.2512 92.6586 87.5136 91.9373C88.1523 90.0624 88.1523 88.0288 87.5136 86.1539C87.2512 85.4326 86.7885 84.8011 86.1799 84.3334C85.5998 83.9269 84.9087 83.7088 84.2003 83.7088C83.492 83.7088 82.8009 83.9269 82.2208 84.3334C81.6121 84.8011 81.1495 85.4326 80.887 86.1539C80.2484 88.0288 80.2484 90.0624 80.887 91.9373C81.1495 92.6586 81.6121 93.2901 82.2208 93.7578C82.8009 94.1643 83.492 94.3823 84.2003 94.3823C84.9087 94.3823 85.5998 94.1643 86.1799 93.7578Z" fill="#263238"/>
<path id="Vector_75" d="M110.099 82.4669V83.3561L104.971 94.7159H103.607L108.647 83.6014H102.346V85.9009H101.104V82.4899L110.099 82.4669Z" fill="#263238"/>
<path id="Vector_76" d="M120.125 93.593V94.7159H111.533V93.8229L116.626 88.8406C117.144 88.3672 117.584 87.8149 117.929 87.204C118.15 86.7733 118.267 86.2968 118.27 85.8128C118.287 85.4926 118.228 85.1731 118.099 84.8796C117.97 84.5862 117.774 84.327 117.527 84.1226C116.908 83.6829 116.157 83.4703 115.4 83.5209C113.966 83.5209 112.852 83.9757 112.058 84.8853L111.168 84.1188C111.663 83.5446 112.291 83.1 112.997 82.8234C113.796 82.5088 114.648 82.3539 115.507 82.3673C116.568 82.3107 117.617 82.6236 118.473 83.2526C118.833 83.5422 119.119 83.9125 119.309 84.3333C119.499 84.7541 119.587 85.2137 119.566 85.6748C119.567 86.306 119.423 86.929 119.144 87.4953C118.731 88.251 118.194 88.9313 117.554 89.5074L113.388 93.593H120.125Z" fill="#263238"/>
</g>
<g id="freepik--Character--inject-162">
<path id="Vector_77" d="M98.0609 52.9751L90.4072 61.6176L100.824 65.5882L108.547 56.1638L98.0609 52.9751Z" fill="#FF7959"/>
<path id="Vector_78" d="M108.547 56.1638C108.547 56.1638 130.653 79.1211 130.443 79.2629C130.232 79.4047 123.927 86.9856 123.927 86.9856L100.828 65.5882L108.547 56.1638Z" fill="#FF7959"/>
<path id="Vector_79" d="M90.4072 61.6176L112.445 82.8042L123.923 86.9856L100.824 65.5882L90.4072 61.6176Z" fill="#FF7959"/>
<g id="Group_5" opacity="0.3">
<path id="Vector_80" d="M90.4072 61.6176L112.445 82.8042L123.923 86.9856L100.824 65.5882L90.4072 61.6176Z" fill="black"/>
</g>
<g id="Group_6" opacity="0.3">
<path id="Vector_81" d="M98.0609 52.9751L90.4072 61.6176L100.824 65.5882L108.547 56.1638L98.0609 52.9751Z" fill="white"/>
</g>
<path id="Vector_82" d="M119.454 67.4508C119.454 67.4508 121.973 67.5466 122.26 67.8341C122.547 68.1215 124.778 72.6401 124.778 72.6401L125.545 73.1154L125.759 79.8378L119.06 80.4242L116.799 81.7694L114.572 81.5701C114.388 81.5608 114.213 81.4869 114.077 81.3615C113.942 81.2361 113.855 81.0671 113.832 80.8841L113.652 79.4392C113.652 79.4392 114.572 79.2246 114.802 79.8838L114.886 80.1942L116.12 80.2862L117.439 79.3089L117.527 78.7915L113.223 79.0789L111.433 77.8218C111.433 77.8218 112.199 76.8675 112.966 77.2661C113.169 77.3446 113.365 77.4395 113.552 77.5497L117.147 76.7027L110.214 76.7717C110.194 76.5819 110.214 76.3899 110.275 76.2088C110.335 76.0277 110.433 75.8617 110.564 75.7221C110.694 75.5824 110.852 75.4725 111.029 75.3996C111.205 75.3268 111.395 75.2928 111.586 75.3C112.648 75.2693 115.342 74.9819 115.342 74.9819C115.342 74.9819 117.408 74.8094 117.492 74.1234C117.577 73.4373 111.67 71.8583 111.387 71.1109C111.103 70.3636 111.441 69.6201 112.82 70.0493C114.2 70.4786 118.151 72.1726 119.271 72.0883C120.39 72.0039 121.394 70.996 121.451 70.5552C121.509 70.1145 120.876 68.7501 120.876 68.7501C120.876 68.7501 119.347 68.6504 119.454 67.4508Z" fill="#FFBF9D"/>
<path id="Vector_83" d="M101.169 53.9217C101.07 53.8911 98.1261 57.237 98.1261 57.237L100.387 57.9268L103.568 54.6499L101.169 53.9217Z" fill="white"/>
<path id="Vector_84" d="M94.3395 63.1161C94.2973 63.0778 96.0642 61.0542 98.2871 58.5937C100.51 56.1331 102.342 54.1708 102.384 54.2053C102.426 54.2398 100.656 56.2673 98.4365 58.7278C96.2175 61.1883 94.3816 63.1545 94.3395 63.1161Z" fill="#263238"/>
<path id="Vector_85" d="M117.285 84.5672C117.251 84.6094 112.081 79.9374 105.745 74.1387C99.41 68.34 94.3011 63.6182 94.3394 63.5607C94.3778 63.5032 99.5441 68.1905 105.879 73.9931C112.215 79.7956 117.324 84.5289 117.285 84.5672Z" fill="#263238"/>
<path id="Vector_86" d="M127.771 55.953L128.764 57.1028C128.837 62.7099 134.547 70.5169 134.547 70.5169L137.552 57.8042L136.46 52.9483L133.183 52.565L131.895 50.8442L127.771 55.953Z" fill="#455A64"/>
<path id="Vector_87" d="M122.712 43.7999C121.528 44.1563 119.784 45.9614 118.266 47.6325C117.542 48.445 117.941 49.8592 118.707 50.6257L119.692 51.6107C120.021 51.9401 120.452 52.1481 120.915 52.2009C121.456 52.2589 121.999 52.1005 122.425 51.7602L123.107 51.2121C123.52 50.8815 124.046 50.7236 124.573 50.7715C125.1 50.8194 125.588 51.0693 125.935 51.4689L128.783 54.7458C128.969 54.9593 129.197 55.1321 129.453 55.2532C129.709 55.3743 129.987 55.4411 130.27 55.4494C130.553 55.4577 130.835 55.4073 131.097 55.3014C131.36 55.1954 131.597 55.0363 131.795 54.8339C132.147 54.4749 132.354 53.9992 132.377 53.4974C132.4 52.9956 132.238 52.5028 131.922 52.1128L125.564 44.2943C125.397 44.0855 125.19 43.9133 124.954 43.7884C124.506 43.5431 123.82 43.4702 122.712 43.7999Z" fill="#FF7959"/>
<path id="Vector_88" d="M122.494 51.7372C122.807 51.9937 123.146 52.2172 123.506 52.4041C123.506 52.4041 122.942 53.1974 123.483 53.7378C123.842 54.0731 124.295 54.2899 124.782 54.3587C124.761 54.6764 124.856 54.9908 125.05 55.2433C125.244 55.4958 125.523 55.6691 125.836 55.7307C126.986 56.0029 130.186 55.5353 130.301 55.2402C130.416 54.9451 130.684 54.1517 129.948 53.9716C129.373 53.8548 128.787 53.7957 128.201 53.7953C128.201 53.7953 129.734 53.2319 128.818 52.017C128.407 51.4574 126.556 52.017 126.556 52.017L125.173 52.1741C125.173 52.1741 126.438 51.2811 125.453 50.3843C125.381 50.3027 125.292 50.2374 125.193 50.1926C125.094 50.1479 124.986 50.1248 124.878 50.1248C124.769 50.1248 124.661 50.1479 124.562 50.1926C124.463 50.2374 124.375 50.3027 124.303 50.3843L122.494 51.7372Z" fill="#FFBF9D"/>
<path id="Vector_89" d="M128.105 49.4644C128.105 49.4644 126.985 49.3188 127.242 48.6328C127.622 47.8301 128.126 47.0928 128.737 46.4482C128.879 46.2731 129.068 46.1435 129.283 46.0753C129.498 46.0072 129.728 46.0036 129.944 46.0649C130.285 46.2067 131.477 47.0959 131.665 48.1307C131.853 49.1655 132.048 50.3689 131.895 50.8557C131.804 51.1205 131.689 51.3769 131.554 51.6222L129.584 49.1962C129.584 49.1962 128.576 49.5986 128.105 49.4644Z" fill="#FFBF9D"/>
<path id="Vector_90" d="M123.962 50.6219C123.996 50.4146 124.053 50.2117 124.13 50.0163V50.0355C124.122 49.8164 124.056 49.6034 123.939 49.4184C123.756 49.1904 123.556 48.9764 123.341 48.7784L121.781 47.1917C121.577 47.007 121.327 46.8795 121.058 46.8223C120.789 46.7651 120.509 46.7801 120.248 46.8659C120.019 46.9423 119.808 47.0634 119.627 47.2223L119.098 47.6286L118.362 48.2303C118.186 48.3721 118.102 48.4526 118.094 48.4488C118.086 48.4449 118.404 48.0655 119.01 47.5213C119.159 47.3872 119.328 47.2415 119.512 47.092C119.708 46.9226 119.934 46.7925 120.179 46.7088C120.47 46.6108 120.783 46.5921 121.084 46.6548C121.385 46.7174 121.664 46.8591 121.892 47.0652C122.475 47.6516 122.996 48.215 123.448 48.6787C123.667 48.889 123.868 49.1186 124.046 49.3648C124.166 49.5746 124.225 49.8132 124.218 50.0546V50.0738C124.154 50.2658 124.068 50.4498 123.962 50.6219Z" fill="#263238"/>
<path id="Vector_91" d="M126.491 48.1C126.249 48.526 125.932 48.9051 125.556 49.2192C125.229 49.5813 124.84 49.8813 124.406 50.1045C124.714 49.7318 125.055 49.388 125.426 49.0774C125.749 48.7184 126.106 48.3912 126.491 48.1Z" fill="#263238"/>
<path id="Vector_92" d="M125.682 52.0744C125.343 52.231 124.978 52.3234 124.605 52.347C124.242 52.4371 123.866 52.4618 123.494 52.42C123.835 52.2668 124.201 52.1758 124.575 52.1512C124.937 52.0612 125.312 52.0352 125.682 52.0744Z" fill="#FF9A6C"/>
<path id="Vector_93" d="M128.542 53.6842C127.971 53.9998 127.347 54.208 126.702 54.2985C126.075 54.4514 125.426 54.4879 124.786 54.406C124.786 54.3484 125.644 54.3061 126.683 54.1027C127.721 53.8992 128.519 53.6266 128.542 53.6842Z" fill="#FF9A6C"/>
<path id="Vector_94" d="M130.466 47.6324C130.507 47.9932 130.417 48.3569 130.212 48.6567C130.007 48.9566 129.701 49.1726 129.35 49.2651C129.323 49.2115 129.734 49.0045 130.048 48.5446C130.209 48.2513 130.349 47.9464 130.466 47.6324Z" fill="#FF9A6C"/>
<path id="Vector_95" d="M118.811 49.2651C118.811 49.2651 120.267 51.3079 120.915 51.3462C121.375 51.3731 122.064 50.5797 122.448 50.0738C122.521 49.9774 122.557 49.8575 122.547 49.7366C122.538 49.6158 122.485 49.5026 122.398 49.4184L120.823 47.8854L120.439 47.7896L118.811 49.2651Z" fill="#263238"/>
<g id="Group_7" opacity="0.6">
<path id="Vector_96" d="M118.887 49.2038L109.287 56.9303L118.243 66.2665L122.494 49.9742C122.533 49.8921 122.548 49.8006 122.537 49.7104C122.526 49.6201 122.49 49.5348 122.432 49.4644L120.811 47.8931L120.428 47.7972L118.868 49.2038H118.887Z" fill="white"/>
</g>
<path id="Vector_97" d="M154.741 23.3759L153.683 41.186C153.499 44.2138 152.618 48.6289 147.843 48.123C143.73 47.3565 142.914 43.3744 143.086 40.546C143.167 39.2046 143.232 38.0893 143.232 37.9513C143.232 37.9513 138.721 37.2538 138.66 32.7466C138.633 30.5659 138.939 26.0741 139.261 22.0154C139.43 19.9128 140.384 17.9508 141.934 16.5198C143.483 15.0887 145.515 14.2936 147.624 14.2927H148.061C152.764 14.5609 155.155 18.7078 154.741 23.3759Z" fill="#FFBF9D"/>
<path id="Vector_98" d="M143.243 37.9666C145.325 37.9573 147.359 37.3521 149.107 36.2228C149.107 36.2228 147.682 39.5188 143.182 39.1164L143.243 37.9666Z" fill="#FF9A6C"/>
<path id="Vector_99" d="M146.804 24.4196C146.884 24.5156 147.432 24.1355 148.184 24.17C148.935 24.2046 149.471 24.6154 149.556 24.5232C149.64 24.4311 149.517 24.3121 149.287 24.1393C148.972 23.8985 148.588 23.7641 148.191 23.7554C147.799 23.7364 147.411 23.847 147.087 24.0702C146.85 24.2084 146.762 24.3773 146.804 24.4196Z" fill="#263238"/>
<path id="Vector_100" d="M146.505 26.5995C146.506 26.7546 146.565 26.9037 146.671 27.0168C146.777 27.1299 146.921 27.1987 147.076 27.2094C147.154 27.2151 147.232 27.2053 147.306 27.1805C147.379 27.1558 147.448 27.1165 147.506 27.0651C147.565 27.0137 147.612 26.9511 147.646 26.8811C147.68 26.811 147.7 26.7349 147.705 26.6571C147.706 26.4986 147.645 26.3459 147.536 26.2313C147.426 26.1168 147.276 26.0494 147.118 26.0434C147.041 26.0393 146.964 26.0504 146.892 26.0762C146.819 26.102 146.753 26.1419 146.696 26.1936C146.639 26.2453 146.593 26.3078 146.56 26.3775C146.527 26.4471 146.508 26.5226 146.505 26.5995Z" fill="#263238"/>
<path id="Vector_101" d="M144.546 29.5081C144.182 29.3934 143.805 29.3252 143.424 29.305C143.243 29.305 143.079 29.2551 143.04 29.1325C143.024 28.9494 143.066 28.7659 143.159 28.6074C143.324 28.1782 143.496 27.7298 143.68 27.2622C144.405 25.3459 144.93 23.7669 144.83 23.7362C144.73 23.7055 144.102 25.2386 143.378 27.1587C143.205 27.6301 143.036 28.0824 142.879 28.5155C142.77 28.7293 142.737 28.9742 142.787 29.2092C142.814 29.2707 142.854 29.3257 142.904 29.3701C142.955 29.4145 143.014 29.4472 143.079 29.4659C143.177 29.4934 143.279 29.5076 143.381 29.5081C143.768 29.559 144.16 29.559 144.546 29.5081Z" fill="#263238"/>
<path id="Vector_102" d="M146.792 22.0433C146.869 22.2084 147.471 22.0663 148.191 22.0817C148.912 22.097 149.51 22.2429 149.59 22.0817C149.625 22.0049 149.51 21.8551 149.261 21.6977C148.933 21.5219 148.567 21.4296 148.195 21.429C147.826 21.4185 147.46 21.5003 147.13 21.667C146.877 21.8167 146.758 21.9626 146.792 22.0433Z" fill="#E0E0E0"/>
<path id="Vector_103" d="M139.967 22.3228C140.036 22.461 140.633 22.3535 141.346 22.3842C142.059 22.415 142.638 22.5455 142.722 22.4111C142.761 22.3458 142.653 22.2153 142.412 22.0886C142.089 21.931 141.736 21.8458 141.377 21.839C141.014 21.823 140.652 21.8845 140.315 22.0195C140.062 22.1308 139.936 22.2537 139.967 22.3228Z" fill="#E0E0E0"/>
<path id="Vector_104" d="M154.392 26.7256C154.469 26.695 157.489 25.8096 157.393 28.891C157.298 31.9724 154.224 31.2404 154.22 31.1523C154.216 31.0641 154.392 26.7256 154.392 26.7256Z" fill="#FFBF9D"/>
<path id="Vector_105" d="M155.197 30.014C155.197 30.014 155.251 30.0523 155.339 30.0983C155.469 30.1486 155.612 30.1486 155.742 30.0983C156.071 29.9871 156.362 29.4812 156.393 28.9255C156.407 28.6639 156.364 28.4023 156.267 28.159C156.241 28.0627 156.193 27.9738 156.127 27.8998C156.06 27.8258 155.977 27.7688 155.883 27.7336C155.822 27.7165 155.757 27.7209 155.698 27.746C155.64 27.771 155.591 27.8154 155.561 27.8716C155.519 27.9559 155.535 28.021 155.519 28.0249C155.504 28.0287 155.454 27.9712 155.485 27.8447C155.504 27.7694 155.549 27.7031 155.611 27.6569C155.693 27.5998 155.793 27.5764 155.891 27.5918C156.016 27.6223 156.132 27.684 156.227 27.7711C156.322 27.8582 156.394 27.9679 156.435 28.09C156.559 28.3598 156.614 28.656 156.596 28.9523C156.558 29.5732 156.213 30.1443 155.772 30.2593C155.689 30.2812 155.602 30.284 155.518 30.2674C155.433 30.2508 155.354 30.2152 155.285 30.1634C155.201 30.0868 155.19 30.0178 155.197 30.014Z" fill="#FF9A6C"/>
<path id="Vector_106" d="M158.838 22.046C158.275 20.8962 158.217 19.6123 157.957 18.3782C157.696 17.1441 157.11 15.8449 155.952 15.3351H155.926C154.895 14.8292 153.58 14.7296 152.652 15.4041C152.553 13.7906 151.242 12.4262 149.713 11.905C148.184 11.3837 145.666 11.4489 144.129 11.9433C142.941 12.3265 141.753 13.1965 140.296 14.4996C139.68 15.0471 139.109 15.6445 138.591 16.2856L136.931 20.3865L137.935 22.6631C137.992 22.821 138.058 22.9758 138.131 23.1268L138.844 27.8294C139.001 26.5723 139.227 22.1763 139.38 20.9307C140.331 20.9699 141.28 20.817 142.17 20.4812C143.06 20.1453 143.874 19.6334 144.562 18.9761C145.305 18.2594 145.915 17.3434 146.861 16.9525C148.092 16.4504 149.479 16.9832 150.694 17.5082L150.644 17.4546C151.277 17.8049 151.836 18.2733 152.292 18.8343C151.831 21.3063 151.907 23.8486 152.515 26.2887C152.606 26.672 152.875 27.4155 153.216 27.5765C153.887 27.8907 154.124 27.1932 154.565 26.8598C154.949 26.6333 155.403 26.5556 155.841 26.6413C156.262 25.6214 156.62 24.5771 156.914 23.5139C157.323 23.6724 157.762 23.7341 158.198 23.694C158.091 23.3644 157.98 23.0387 157.872 22.7129C158.028 22.8464 158.209 22.9457 158.405 23.0042C158.504 23.0306 158.609 23.0265 158.705 22.9923C158.802 22.9581 158.885 22.8954 158.946 22.8125C159.095 22.5672 158.957 22.2836 158.838 22.046Z" fill="#E0E0E0"/>
<path id="Vector_107" d="M151.208 15.8295C151.358 15.9672 151.497 16.1158 151.625 16.2741C151.949 16.726 152.15 17.2543 152.208 17.8072C152.258 18.1883 152.268 18.5736 152.238 18.9569C152.212 19.3709 152.147 19.8078 152.081 20.2715C152.003 20.7572 151.957 21.2476 151.943 21.7394C151.939 21.9956 151.953 22.2517 151.986 22.5059C152.007 22.7798 152.098 23.0436 152.25 23.2724C152.321 23.3661 152.415 23.4395 152.524 23.4853C152.632 23.531 152.75 23.5475 152.867 23.5331C153.089 23.5073 153.297 23.409 153.457 23.2533C153.726 22.936 153.903 22.5519 153.971 22.1418H153.879C153.986 22.5003 154.148 22.8402 154.358 23.1498C154.559 23.4289 154.859 23.6208 155.197 23.6864C155.354 23.7138 155.516 23.6979 155.665 23.6404C155.803 23.5798 155.92 23.4799 156.002 23.3529C156.074 23.2373 156.116 23.1056 156.125 22.9697C156.126 22.8397 156.085 22.7129 156.006 22.6094L155.956 22.6516C156.2 22.976 156.509 23.245 156.864 23.4411C156.958 23.494 157.055 23.5401 157.156 23.579C157.188 23.5954 157.223 23.607 157.259 23.6135C157.259 23.6135 157.229 23.6135 157.163 23.5637C157.098 23.5139 157.002 23.4832 156.884 23.4104C156.538 23.2064 156.238 22.9338 156.002 22.6094L155.952 22.6477C156.018 22.7473 156.052 22.8648 156.048 22.9842C156.045 23.1036 156.005 23.219 155.933 23.3146C155.86 23.4272 155.754 23.5153 155.63 23.5675C155.495 23.6204 155.347 23.6337 155.205 23.6059C154.893 23.5412 154.619 23.3585 154.438 23.0961C154.239 22.8023 154.084 22.4808 153.978 22.1418L153.925 21.9923L153.883 22.1457C153.815 22.5353 153.646 22.9003 153.392 23.2035C153.249 23.3442 153.063 23.4331 152.863 23.4564C152.764 23.4683 152.664 23.4544 152.572 23.4161C152.48 23.3778 152.399 23.3165 152.338 23.2379C152.199 23.0188 152.116 22.7686 152.097 22.5097C152.064 22.2556 152.049 21.9995 152.051 21.7432C152.067 21.2568 152.112 20.7718 152.185 20.2907C152.246 19.8269 152.307 19.3862 152.334 18.9646C152.358 18.5808 152.342 18.1955 152.288 17.8148C152.22 17.258 152.006 16.7292 151.667 16.2818C151.542 16.1047 151.387 15.9515 151.208 15.8295Z" fill="white"/>
<path id="Vector_108" d="M137.027 19.1907L137.061 19.2252L137.169 19.3134C137.224 19.3641 137.284 19.4091 137.349 19.4475C137.434 19.5071 137.522 19.5621 137.613 19.6123C138.195 19.927 138.845 20.0929 139.507 20.0952C140.49 20.101 141.454 19.8215 142.281 19.2904C143.283 18.6333 144.139 17.7792 144.799 16.78C145.164 16.2626 145.47 15.7261 145.8 15.247C146.101 14.7647 146.472 14.3294 146.9 13.9554C147.283 13.6157 147.746 13.3784 148.245 13.2655C148.47 13.2175 148.702 13.2071 148.931 13.2349C149.143 13.262 149.351 13.3174 149.548 13.3997C149.887 13.5441 150.191 13.7583 150.441 14.0282C150.63 14.2341 150.785 14.4682 150.901 14.7219C150.989 14.9438 151.049 15.1754 151.081 15.4118C151.081 15.4118 151.081 15.3926 151.081 15.362C151.084 15.316 151.084 15.2699 151.081 15.224C151.059 15.0468 151.016 14.8729 150.951 14.7066C150.687 14.0914 150.199 13.5995 149.586 13.3307C149.384 13.2441 149.172 13.1848 148.954 13.1544C148.717 13.1259 148.476 13.1336 148.241 13.1774C147.725 13.2927 147.246 13.5336 146.846 13.8788C146.413 14.2616 146.035 14.7027 145.723 15.1895C145.39 15.6877 145.087 16.2205 144.723 16.7225C144.073 17.7118 143.229 18.5592 142.243 19.2137C141.43 19.7378 140.485 20.0196 139.518 20.0262C138.867 20.0284 138.225 19.876 137.644 19.5817C137.432 19.4621 137.226 19.3316 137.027 19.1907Z" fill="white"/>
<path id="Vector_109" d="M139.94 24.2088C140.024 24.3086 140.568 23.9285 141.323 23.9592C142.078 23.9899 142.607 24.4046 142.695 24.3125C142.784 24.2203 142.653 24.1013 142.423 23.9285C142.109 23.6885 141.726 23.5541 141.331 23.5446C140.937 23.5256 140.548 23.6362 140.223 23.8594C139.986 24.0015 139.901 24.1666 139.94 24.2088Z" fill="#263238"/>
<path id="Vector_110" d="M140.373 26.4424C140.371 26.6012 140.431 26.7544 140.541 26.8692C140.65 26.984 140.801 27.0511 140.959 27.0561C141.037 27.0629 141.115 27.0539 141.189 27.0298C141.263 27.0057 141.331 26.9669 141.39 26.9156C141.449 26.8644 141.497 26.8019 141.531 26.7318C141.564 26.6617 141.584 26.5854 141.588 26.5076C141.59 26.3488 141.53 26.1956 141.42 26.0808C141.31 25.9661 141.16 25.8989 141.001 25.8939C140.924 25.8871 140.846 25.8961 140.772 25.9202C140.698 25.9443 140.629 25.9832 140.571 26.0344C140.512 26.0856 140.464 26.1481 140.43 26.2182C140.396 26.2883 140.377 26.3646 140.373 26.4424Z" fill="#263238"/>
<path id="Vector_111" d="M139.001 15.8065C138.591 16.2895 137.977 16.7149 137.353 16.6076C137.128 16.5457 136.907 16.4676 136.694 16.3738C136.467 16.4926 136.475 17.2476 136.613 17.4661C136.745 17.6493 136.893 17.8211 137.054 17.9796C136.287 18.3322 135.636 18.0984 134.865 17.765C134.903 18.44 135.117 19.0932 135.486 19.6595C135.856 20.2258 136.367 20.6853 136.969 20.9921C137.154 21.1045 137.362 21.1718 137.577 21.1885C137.792 21.2051 138.008 21.1706 138.207 21.0879C138.515 20.8613 138.729 20.5301 138.809 20.1565C139.242 18.8302 139.51 17.4554 139.606 16.0633L139.001 15.8065Z" fill="#E0E0E0"/>
<path id="Vector_112" d="M144.286 32.0108C144.286 32.0338 144.455 32.1066 144.75 32.1066C145.141 32.0997 145.519 31.9651 145.827 31.7233C146.134 31.4827 146.356 31.1494 146.459 30.7729C146.532 30.4854 146.501 30.3014 146.459 30.2976C146.417 30.2938 146.401 30.4701 146.298 30.723C146.165 31.0473 145.951 31.3323 145.677 31.5509C145.397 31.7582 145.068 31.8902 144.723 31.9341C144.47 31.9916 144.294 31.9763 144.286 32.0108Z" fill="#263238"/>
<path id="Vector_113" d="M140.909 153.638L143.592 163.109C143.592 163.109 135.091 169.068 135.417 170.87L153.526 166.228L149.962 151.281L140.909 153.638Z" fill="#455A64"/>
<path id="Vector_114" d="M148.992 160.87C149.182 160.882 149.361 160.963 149.495 161.099C149.628 161.235 149.706 161.416 149.713 161.606C149.712 161.799 149.636 161.984 149.502 162.122C149.368 162.26 149.185 162.34 148.992 162.346C148.793 162.334 148.605 162.25 148.463 162.108C148.322 161.967 148.238 161.779 148.226 161.579C148.26 161.196 148.678 160.813 149.042 160.893" fill="#E0E0E0"/>
<path id="Vector_115" d="M153.515 166.228L153.097 164.737L135.893 169.747C135.893 169.747 135.172 170.31 135.406 170.87L153.515 166.228Z" fill="#263238"/>
<path id="Vector_116" d="M143.508 163.159C143.531 163.247 143.983 163.159 144.489 163.355C144.995 163.55 145.321 163.858 145.394 163.8C145.466 163.742 145.206 163.251 144.593 163.032C143.979 162.813 143.47 163.078 143.508 163.159Z" fill="#263238"/>
<path id="Vector_117" d="M141.875 164.504C141.875 164.596 142.297 164.653 142.691 164.956C143.086 165.259 143.27 165.647 143.358 165.62C143.447 165.593 143.378 165.068 142.879 164.696C142.381 164.324 141.856 164.416 141.875 164.504Z" fill="#263238"/>
<path id="Vector_118" d="M141.235 167.129C141.319 167.129 141.331 166.642 140.986 166.205C140.641 165.768 140.174 165.676 140.154 165.761C140.135 165.845 140.457 166.044 140.737 166.409C141.017 166.773 141.143 167.141 141.235 167.129Z" fill="#263238"/>
<path id="Vector_119" d="M142.887 160.864C142.945 160.937 143.32 160.71 143.83 160.614C144.34 160.518 144.765 160.584 144.792 160.495C144.819 160.407 144.366 160.177 143.769 160.296C143.171 160.415 142.826 160.806 142.887 160.864Z" fill="#263238"/>
<path id="Vector_120" d="M146.923 154.263L147.206 164.611C147.206 164.611 137.065 168.976 136.904 170.87L157.006 170.709L156.964 154.152L146.923 154.263Z" fill="#455A64"/>
<path id="Vector_121" d="M153.591 163.925C153.787 163.986 153.954 164.117 154.06 164.293C154.166 164.469 154.204 164.677 154.166 164.879C154.12 165.078 153.998 165.251 153.826 165.362C153.655 165.472 153.447 165.512 153.247 165.473C153.039 165.407 152.863 165.267 152.752 165.08C152.64 164.893 152.601 164.672 152.641 164.458C152.712 164.256 152.858 164.091 153.05 163.996C153.241 163.902 153.461 163.886 153.664 163.952" fill="#E0E0E0"/>
<path id="Vector_122" d="M157.014 170.87L156.941 169.042L137.69 169.808C137.69 169.808 136.797 170.214 136.904 170.858L157.014 170.87Z" fill="#263238"/>
<path id="Vector_123" d="M147.398 164.86C147.398 164.96 147.896 165.002 148.379 165.32C148.862 165.639 149.146 166.065 149.218 166.022C149.291 165.98 149.157 165.401 148.563 165.025C147.969 164.649 147.379 164.768 147.398 164.86Z" fill="#263238"/>
<path id="Vector_124" d="M145.183 165.78C145.16 165.88 145.585 166.044 145.922 166.47C146.26 166.895 146.359 167.34 146.459 167.336C146.559 167.332 146.612 166.761 146.183 166.244C145.754 165.726 145.183 165.684 145.183 165.78Z" fill="#263238"/>
<path id="Vector_125" d="M143.945 168.421C144.033 168.444 144.167 167.938 143.91 167.39C143.653 166.842 143.194 166.623 143.144 166.711C143.094 166.799 143.389 167.095 143.596 167.539C143.803 167.984 143.849 168.413 143.945 168.421Z" fill="#263238"/>
<path id="Vector_126" d="M147.21 162.339C147.252 162.427 147.701 162.285 148.256 162.32C148.812 162.354 149.245 162.531 149.295 162.443C149.345 162.354 148.912 162.001 148.272 161.97C147.632 161.94 147.16 162.258 147.21 162.339Z" fill="#263238"/>
<path id="Vector_127" d="M157.715 84.5672L158.375 89.3465C158.583 90.898 158.583 92.4706 158.375 94.0222L157.938 97.3451C157.938 97.3451 157.045 122.054 157.002 121.149C157.002 121.149 157.482 139.266 157.846 143.11C158.501 150.101 157.911 162.94 157.911 162.94H146.478L142.362 122.337L139.806 97.0423L135.36 85.5253L157.715 84.5672Z" fill="#263238"/>
<path id="Vector_128" d="M130.803 85.7208L130.929 90.5537L131.619 125.702C131.712 127.352 132.033 128.982 132.574 130.543L141.937 157.54L142.469 159.391L149.345 157.686L144.232 85.054L130.803 85.7208Z" fill="#263238"/>
<path id="Vector_129" d="M139.836 97.3451C139.832 97.4025 139.832 97.4602 139.836 97.5176C139.836 97.6402 139.836 97.805 139.836 98.0158C139.836 98.468 139.867 99.1119 139.894 99.9321C139.94 101.599 140.055 104.014 140.22 106.992C140.568 112.951 141.216 121.172 142.228 130.229C143.24 139.285 144.317 147.475 145.121 153.37L146.087 160.368C146.206 161.185 146.298 161.825 146.363 162.285C146.394 162.495 146.421 162.668 146.44 162.779C146.444 162.836 146.455 162.893 146.47 162.948C146.476 162.89 146.476 162.833 146.47 162.775C146.47 162.653 146.44 162.488 146.417 162.281C146.363 161.832 146.283 161.192 146.183 160.365L145.282 153.355C144.516 147.437 143.447 139.262 142.45 130.21C141.454 121.157 140.771 112.963 140.384 106.992C140.2 104.014 140.059 101.603 140.001 99.9359C139.959 99.1119 139.928 98.4642 139.905 98.0196C139.905 97.8088 139.882 97.6364 139.875 97.5176C139.868 97.4589 139.855 97.4011 139.836 97.3451Z" fill="#455A64"/>
<path id="Vector_130" d="M147.206 162.959C147.232 163.103 147.244 163.25 147.241 163.396C147.241 163.718 147.241 164.121 147.271 164.611H147.141C147.139 164.624 147.141 164.637 147.147 164.648C147.152 164.66 147.161 164.67 147.172 164.676C147.199 164.676 147.21 164.676 147.206 164.676H147.183L147.13 164.699L147.022 164.749L146.792 164.864L146.302 165.113L145.187 165.684L142.561 167.045C140.875 167.938 139.296 168.658 138.307 169.409C137.906 169.691 137.55 170.031 137.249 170.417C137.142 170.561 137.056 170.718 136.992 170.885C136.998 170.698 137.066 170.517 137.184 170.371C137.469 169.961 137.819 169.598 138.219 169.298C139.212 168.501 140.787 167.765 142.469 166.865C143.408 166.378 144.305 165.926 145.106 165.523L146.229 164.971L146.731 164.734L146.965 164.626L147.076 164.577L147.133 164.554H147.164H147.206C147.206 164.554 147.206 164.554 147.245 164.554C147.256 164.56 147.265 164.569 147.271 164.581C147.276 164.593 147.278 164.606 147.275 164.619L147.137 165.002V164.596C147.137 164.105 147.16 163.703 147.168 163.381C147.167 163.239 147.18 163.098 147.206 162.959Z" fill="#263238"/>
<g id="Group_8" opacity="0.3">
<path id="Vector_131" d="M130.979 92.4854C130.979 92.4854 134.72 94.5052 141.71 95.3023C151.725 96.4521 158.52 91.1938 158.52 91.1938L157.995 86.6483L130.979 88.4305V92.4854Z" fill="black"/>
</g>
<path id="Vector_132" d="M158.957 44.0106C162.36 48.7592 160.923 60.418 160.923 60.418L159.34 84.755V87.6371C159.34 87.6371 159.463 90.0057 150.87 92.8686C142.278 95.7316 129.588 90.7224 129.588 90.7224C129.588 90.7224 131.918 72.9621 133.627 63.1046C133.85 61.8271 134.075 60.625 134.302 59.4982C135.643 52.824 138.83 46.66 143.5 41.7072L143.577 41.6229L154.005 39.1662C155.896 40.5161 157.566 42.1502 158.957 44.0106Z" fill="#FF7959"/>
<path id="Vector_133" d="M129.948 87.9705C129.948 87.9705 138.51 92.1864 146.164 91.1746C150.894 90.4946 155.403 88.7319 159.34 86.0236V88.7064C159.34 88.7064 153.281 93.7693 144.934 93.7654C139.682 93.6947 134.487 92.6674 129.603 90.7339L129.948 87.9705Z" fill="#E0E0E0"/>
<path id="Vector_134" d="M132.838 67.8992L160.318 69.7925L159.904 76.3156L132.01 73.3415L132.838 67.8992Z" fill="#E0E0E0"/>
<g id="Group_9" opacity="0.3">
<path id="Vector_135" d="M130.665 82.7391C130.665 82.7391 133.106 84.5749 138.56 83.5822C144.014 82.5896 152.687 81.3517 154.588 79.6998C156.519 77.9562 157.686 75.5216 157.834 72.9238C158.056 70.195 157.451 57.2868 157.451 57.2868L148.636 73.0004L131.163 79.1977L130.665 82.7391Z" fill="black"/>
</g>
<path id="Vector_136" d="M152.469 41.6229C155.109 41.6229 157.93 45.8924 158.217 48.399C158.505 50.9055 157.489 71.1224 157.068 73.422C156.244 78.0518 152.442 78.872 152.442 78.872C152.442 78.872 143.312 81.5049 137.169 81.9879C133.547 82.2927 129.912 81.5911 126.664 79.9604L125.173 80.0562L125.556 72.368L127.089 72.6248L143.952 68.5009C143.952 68.5009 142.876 51.2198 142.971 50.9323C142.964 50.9323 143.83 41.6268 152.469 41.6229Z" fill="#455A64"/>
<path id="Vector_137" d="M127.974 72.4102C128.048 72.3763 128.125 72.3506 128.204 72.3335L128.871 72.1534L131.343 71.521L139.514 69.5051L143.922 68.409H143.972L144.006 68.4435C144.389 68.8267 144.773 69.164 145.156 69.4898C145.513 69.7947 145.888 70.0776 146.279 70.3368C146.928 70.775 147.523 71.2897 148.05 71.8698C148.384 72.2552 148.675 72.6753 148.92 73.1231C149 73.2802 149.057 73.4028 149.096 73.4872C149.134 73.5715 149.149 73.6175 149.142 73.6175C149.134 73.6175 149.046 73.4527 148.866 73.1537C148.606 72.7226 148.305 72.3182 147.965 71.9465C147.431 71.3891 146.836 70.8941 146.191 70.4709C145.791 70.2136 145.407 69.932 145.041 69.6277C144.658 69.302 144.274 68.9532 143.891 68.5853L143.979 68.6083L139.572 69.7159L131.362 71.6667L128.875 72.2377L128.197 72.3834C128.124 72.3999 128.049 72.4089 127.974 72.4102Z" fill="#263238"/>
<path id="Vector_138" d="M151.652 41.0059C151.02 40.9254 141.093 44.712 139.894 55.5391C139.511 58.9041 139.894 66.3279 144.11 67.516C148.326 68.7041 156.757 65.0555 156.757 65.0555C156.757 65.0555 160.682 50.8327 159.796 48.2725C158.911 45.7123 155.285 41.4543 151.652 41.0059Z" fill="#455A64"/>
<path id="Vector_139" d="M144.324 50.3229C144.335 50.3851 144.335 50.4486 144.324 50.5107C144.324 50.6525 144.324 50.8288 144.324 51.0396C144.301 51.5302 144.271 52.1894 144.236 52.9866C144.163 54.6269 144.071 56.8997 144.021 59.4062C143.972 61.9127 143.972 64.1893 143.975 65.8335V67.7843C143.975 67.9951 143.975 68.1675 143.975 68.3132C143.982 68.3756 143.982 68.4385 143.975 68.501C143.958 68.4399 143.949 68.3767 143.949 68.3132C143.949 68.1714 143.949 67.9951 143.922 67.7843C143.899 67.3243 143.876 66.6613 143.857 65.8373C143.818 64.1931 143.799 61.9166 143.857 59.4024C143.914 56.8882 144.018 54.6193 144.129 52.9789C144.186 52.1549 144.236 51.4919 144.282 51.032C144.282 50.825 144.32 50.6487 144.336 50.5069C144.326 50.4461 144.322 50.3845 144.324 50.3229Z" fill="#263238"/>
<g id="Group_10" opacity="0.3">
<path id="Vector_140" d="M141.71 60.3643C141.58 64.4154 143.872 68.5163 143.872 68.5163L144.255 51.4612C142.58 52.8486 141.825 57.0108 141.71 60.3643Z" fill="black"/>
</g>
<path id="Vector_141" d="M151.53 40.1052C146.658 41.0825 141.829 45.1873 138.683 50.3229C135.536 55.4586 134.582 69.1372 134.582 69.1372L137.736 69.2406C137.736 69.2406 136.398 61.5141 139.783 51.9939C143.167 42.4738 151.556 40.7759 151.556 40.7759L151.53 40.1052Z" fill="#E0E0E0"/>
<path id="Vector_142" d="M158.217 48.399C158.232 48.4682 158.238 48.539 158.237 48.6098C158.237 48.7707 158.237 48.97 158.237 49.2153C158.237 49.7404 158.237 50.4992 158.237 51.4382C158.206 53.3124 158.091 55.9032 157.926 58.7585C157.761 61.6138 157.627 64.2008 157.562 66.0749C157.531 66.9909 157.508 67.7421 157.489 68.294C157.489 68.5354 157.489 68.7347 157.466 68.8957C157.468 68.9665 157.462 69.0372 157.447 69.1065C157.43 69.0376 157.424 68.9665 157.428 68.8957C157.428 68.7347 157.428 68.5354 157.428 68.294C157.428 67.7689 157.428 67.0101 157.428 66.0711C157.455 64.1931 157.57 61.6061 157.735 58.747C157.899 55.8879 158.037 53.3047 158.118 51.4344C158.148 50.5184 158.171 49.7672 158.187 49.2153C158.187 48.97 158.206 48.7707 158.21 48.6098C158.203 48.5395 158.205 48.4685 158.217 48.399Z" fill="#263238"/>
<path id="Vector_143" d="M154.005 43.271C153.519 43.0823 153.021 42.9236 152.515 42.7957C151.29 42.5155 150.011 42.593 148.829 43.019C147.648 43.445 146.613 44.2016 145.85 45.1987C145.543 45.6203 145.262 46.0592 145.006 46.5133C145.037 46.3795 145.086 46.2505 145.152 46.1301C145.311 45.7773 145.506 45.442 145.735 45.1298C146.49 44.0807 147.545 43.2846 148.761 42.8462C149.978 42.4077 151.298 42.3474 152.549 42.6731C152.924 42.763 153.289 42.8915 153.637 43.0563C153.77 43.1101 153.894 43.1823 154.005 43.271Z" fill="#263238"/>
<path id="Vector_144" d="M142.297 40.7568L154.304 37.66L154.496 39.5227L149.843 40.2432L141.346 44.2099L142.297 40.7568Z" fill="#455A64"/>
<path id="Vector_145" d="M151.606 40.7568C151.606 40.7568 159.371 42.2208 160.666 48.399C160.666 48.399 160.199 45.0723 158.463 43.3553C154.967 39.9059 151.53 40.1052 151.53 40.1052L151.606 40.7568Z" fill="#E0E0E0"/>
<path id="Vector_146" d="M151.506 39.9404C151.56 39.9404 151.625 40.1552 151.656 40.4467C151.687 40.7382 151.656 40.9722 151.606 40.9722C151.556 40.9722 151.483 40.7459 151.457 40.4659C151.43 40.1859 151.449 39.9481 151.506 39.9404Z" fill="#263238"/>
</g>
</g>
</svg>
