<svg xmlns="http://www.w3.org/2000/svg" width="116" height="121" viewBox="0 0 116 121" fill="none">
<path d="M43.1574 1.1578C43.1574 1.1578 55.9919 -1.44725 67.6698 1.1578C74.8122 2.75054 89.8525 6.52746 93.4045 15.0881C96.9565 23.6487 79.8614 30.9522 88.2592 39.6367C91.8826 43.3833 109.269 48.3239 108.291 72.6249C107.313 96.9258 81.8393 111.739 46.4375 111.079C11.0357 110.419 -9.40273 78.1816 4.28879 62.3064C17.9803 46.4313 23.8756 46.3845 17.6699 33.4555C11.4642 20.5265 20.0791 4.85769 43.1574 1.1578Z" fill="#FF7959"/>
<path opacity="0.7" d="M43.1574 1.1578C43.1574 1.1578 55.9919 -1.44725 67.6698 1.1578C74.8122 2.75054 89.8525 6.52746 93.4045 15.0881C96.9565 23.6487 79.8614 30.9522 88.2592 39.6367C91.8826 43.3833 109.269 48.3239 108.291 72.6249C107.313 96.9258 81.8393 111.739 46.4375 111.079C11.0357 110.419 -9.40273 78.1816 4.28879 62.3064C17.9803 46.4313 23.8756 46.3845 17.6699 33.4555C11.4642 20.5265 20.0791 4.85769 43.1574 1.1578Z" fill="white"/>
<path d="M18.6754 40.7837L21.0654 47.7819L9.60453 51.7073L6.76953 43.4025L18.2304 39.4771L18.6754 40.7837Z" stroke="#1F2A37" stroke-width="0.5" stroke-linecap="round" stroke-linejoin="round"/>
<path d="M19.8686 44.2691L21.0663 47.7819L9.60546 51.7074L9.01758 49.9854L11.3279 46.4808L15.0887 47.947L17.7726 43.4136L19.8686 44.2691Z" stroke="#1F2A37" stroke-width="0.5" stroke-linecap="round" stroke-linejoin="round"/>
<path d="M12.7078 43.8261C12.7881 44.0598 12.7973 44.3121 12.7343 44.551C12.6713 44.79 12.539 45.0048 12.354 45.1684C12.169 45.332 11.9397 45.4369 11.6951 45.47C11.4505 45.503 11.2017 45.4626 10.98 45.354C10.7584 45.2453 10.5739 45.0732 10.45 44.8595C10.326 44.6458 10.2682 44.4001 10.2837 44.1535C10.2993 43.9069 10.3876 43.6704 10.5374 43.474C10.6873 43.2777 10.8919 43.1302 11.1255 43.0504C11.2802 42.9971 11.444 42.9749 11.6073 42.9851C11.7706 42.9952 11.9304 43.0375 12.0773 43.1096C12.2243 43.1817 12.3557 43.282 12.4638 43.405C12.572 43.5279 12.6549 43.671 12.7078 43.8261Z" stroke="#1F2A37" stroke-width="0.5" stroke-linecap="round" stroke-linejoin="round"/>
<path d="M86.9738 98.2242L85.3942 105.451L73.5625 102.854L75.436 94.2822L87.2705 96.8763L86.9738 98.2242Z" stroke="#1F2A37" stroke-width="0.5" stroke-linecap="round" stroke-linejoin="round"/>
<path d="M75.9082 101.005L84.0369 102.788" stroke="#1F2A37" stroke-width="0.5" stroke-linecap="round" stroke-linejoin="round"/>
<path d="M76.5728 97.2065C76.5728 97.2065 75.7487 100.989 79.9682 101.916C84.1878 102.843 85.0147 99.0496 85.0147 99.0496" stroke="#1F2A37" stroke-width="0.5" stroke-linecap="round" stroke-linejoin="round"/>
<path d="M76.9303 97.2863C76.9081 97.3798 76.8502 97.4608 76.7692 97.5122C76.6881 97.5636 76.5902 97.5813 76.4963 97.5614C76.4255 97.5459 76.361 97.5097 76.3108 97.4574C76.2606 97.405 76.2271 97.339 76.2145 97.2675C76.202 97.1961 76.2109 97.1225 76.2401 97.0562C76.2694 96.9898 76.3177 96.9336 76.379 96.8949C76.4402 96.8561 76.5115 96.8364 76.5839 96.8383C76.6564 96.8402 76.7266 96.8636 76.7857 96.9055C76.8448 96.9475 76.8901 97.0061 76.9158 97.0739C76.9416 97.1417 76.9466 97.2156 76.9303 97.2863Z" fill="white" stroke="#1F2A37" stroke-width="0.5" stroke-linecap="round" stroke-linejoin="round"/>
<path d="M85.3717 99.1375C85.3648 99.1874 85.3475 99.2354 85.3212 99.2784C85.2948 99.3213 85.2598 99.3584 85.2185 99.3872C85.1771 99.416 85.1303 99.4359 85.0809 99.4457C85.0315 99.4555 84.9806 99.455 84.9314 99.4441C84.8822 99.4333 84.8358 99.4124 84.795 99.3827C84.7543 99.353 84.7201 99.3153 84.6946 99.2717C84.6692 99.2282 84.653 99.1799 84.6471 99.1298C84.6411 99.0797 84.6456 99.029 84.6602 98.9807C84.6869 98.8925 84.7458 98.8177 84.8252 98.7711C84.9046 98.7246 84.9986 98.7097 85.0884 98.7295C85.1783 98.7493 85.2573 98.8023 85.3099 98.8779C85.3624 98.9536 85.3845 99.0463 85.3717 99.1375Z" fill="white" stroke="#1F2A37" stroke-width="0.5" stroke-linecap="round" stroke-linejoin="round"/>
<path d="M76.1331 100.744L75.5078 100.607L75.3709 101.233L75.9962 101.37L76.1331 100.744Z" fill="white" stroke="#1F2A37" stroke-width="0.5" stroke-linecap="round" stroke-linejoin="round"/>
<path d="M80.3518 101.667L79.7266 101.53L79.5897 102.156L80.2149 102.293L80.3518 101.667Z" fill="white" stroke="#1F2A37" stroke-width="0.5" stroke-linecap="round" stroke-linejoin="round"/>
<path d="M84.5745 102.594L83.9492 102.457L83.8123 103.083L84.4376 103.22L84.5745 102.594Z" fill="white" stroke="#1F2A37" stroke-width="0.5" stroke-linecap="round" stroke-linejoin="round"/>
<path d="M32.2222 19.6243L29.2333 26.3887L18.1543 21.4756L21.7035 13.4514L32.7798 18.3617L32.2222 19.6243Z" stroke="#1F2A37" stroke-width="0.5" stroke-linecap="round" stroke-linejoin="round"/>
<path d="M26.406 22.4137C26.1945 22.8923 25.4281 23.0189 24.6974 22.6888C23.9666 22.3587 23.5463 21.7122 23.7578 21.2308C23.9694 20.7494 24.7358 20.6256 25.4665 20.9557C26.1973 21.2858 26.6176 21.9323 26.406 22.4137Z" fill="#1F2A37"/>
<path d="M26.9664 17.1292L24.0105 21.3517L23.7578 21.2389L25.9198 18.1525L26.4692 17.3492C26.6408 17.3027 26.804 17.2294 26.9527 17.1319L26.9664 17.1292Z" fill="#1F2A37"/>
<path d="M26.9641 17.1321L26.2471 18.1499C26.1384 18.1614 26.0289 18.1614 25.9202 18.1499C25.5959 18.1233 25.2807 18.0297 24.9944 17.8748C24.8001 17.7701 24.5801 17.7225 24.3599 17.7376C24.1397 17.7527 23.9283 17.8298 23.75 17.9601C23.7857 17.9161 24.4835 17.0441 25.445 17.3494C25.782 17.456 26.1436 17.456 26.4806 17.3494C26.6522 17.3029 26.8154 17.2296 26.9641 17.1321Z" fill="#1F2A37"/>
<path d="M106.057 74.4596L103.478 81.3918L92.127 77.1582L95.1872 68.9304L106.538 73.1667L106.057 74.4596Z" stroke="#1F2A37" stroke-width="0.5" stroke-linecap="round" stroke-linejoin="round"/>
<path d="M98.4183 72.9358L95.5723 74.2397L96.8744 77.0923" stroke="#1F2A37" stroke-width="0.5" stroke-linecap="round" stroke-linejoin="round"/>
<path d="M99.9316 78.2312L102.78 76.93L101.478 74.0774" stroke="#1F2A37" stroke-width="0.5" stroke-linecap="round" stroke-linejoin="round"/>
<path d="M100.445 73.6868L97.9043 77.4802" stroke="#1F2A37" stroke-width="0.5" stroke-linecap="round" stroke-linejoin="round"/>
<path d="M94.7316 10.0513L92.2015 17.0027L80.8203 12.8462L83.8229 4.59912L95.2041 8.75565L94.7316 10.0513Z" stroke="#1F2A37" stroke-width="0.5" stroke-linecap="round" stroke-linejoin="round"/>
<path d="M86.6681 10.5739C86.6681 10.5739 86.5308 9.79542 85.3825 9.96598C84.3221 10.1255 84.0089 11.3194 84.9155 11.6467C85.9676 12.0319 86.7917 11.1406 87.8164 10.2713C88.885 9.35529 89.8547 8.36773 89.9784 8.2522C89.9784 8.2522 87.5692 12.5683 87.256 13.1377C86.9428 13.7071 87.8851 13.4981 88.0554 13.245" stroke="#1F2A37" stroke-width="0.5" stroke-linecap="round" stroke-linejoin="round"/>
<path d="M90.7364 11.8476C90.4349 11.6464 90.068 11.5679 89.7107 11.6282C89.3534 11.6885 89.0325 11.8831 88.8135 12.1722C88.4783 12.5766 88.6541 12.9975 88.9426 13.1103C89.6843 13.3854 90.1431 13.0553 90.9232 11.9192C90.9232 11.9192 89.8436 13.4376 90.0744 13.5229C90.1774 13.5575 90.2879 13.5632 90.3939 13.5394C90.5 13.5157 90.5975 13.4633 90.676 13.3881" stroke="#1F2A37" stroke-width="0.5" stroke-linecap="round" stroke-linejoin="round"/>
<path d="M87.4902 10.6731L89.3967 11.3691" stroke="#1F2A37" stroke-linecap="round" stroke-linejoin="round"/>
<path d="M19.6157 90.3679L7.78125 87.7766L9.39654 80.3823L21.2695 82.9846L19.6157 90.3679Z" stroke="#1F2A37" stroke-width="0.5" stroke-linecap="round" stroke-linejoin="round"/>
<path d="M12.0762 82.2336L18.9934 83.7494" stroke="#1F2A37" stroke-width="0.3" stroke-linecap="round" stroke-linejoin="round"/>
<path d="M10.959 82.6848L18.8486 84.4151" stroke="#1F2A37" stroke-width="0.3" stroke-linecap="round" stroke-linejoin="round"/>
<path d="M10.8125 83.3503L18.7022 85.0779" stroke="#1F2A37" stroke-width="0.3" stroke-linecap="round" stroke-linejoin="round"/>
<path d="M10.668 84.0161L18.5576 85.7436" stroke="#1F2A37" stroke-width="0.3" stroke-linecap="round" stroke-linejoin="round"/>
<path d="M10.5215 84.6792L18.4111 86.4067" stroke="#1F2A37" stroke-width="0.3" stroke-linecap="round" stroke-linejoin="round"/>
<path d="M10.3789 85.3447L18.2686 87.0723" stroke="#1F2A37" stroke-width="0.3" stroke-linecap="round" stroke-linejoin="round"/>
<path d="M10.2344 86.0078L18.124 87.7353" stroke="#1F2A37" stroke-width="0.3" stroke-linecap="round" stroke-linejoin="round"/>
<path d="M10.0879 86.6733L17.0051 88.1891" stroke="#1F2A37" stroke-width="0.3" stroke-linecap="round" stroke-linejoin="round"/>
<path d="M77.6403 35.2216H33.3682L27.8438 7.70215H83.1647L77.6403 35.2216Z" fill="#1F2A37"/>
<path d="M31.9971 8.59619L23.8438 64.1166H87.1643L79.0109 8.59619" fill="#FF7959"/>
<mask id="mask0_7131_42051" style="mask-type:luminance" maskUnits="userSpaceOnUse" x="23" y="8" width="65" height="57">
<path d="M31.9971 8.59619L23.8438 64.1166H87.1643L79.0109 8.59619" fill="white"/>
</mask>
<g mask="url(#mask0_7131_42051)">
<path opacity="0.3" d="M87.1643 64.1166H23.8438L27.2529 40.8994H83.7551L87.1643 64.1166Z" fill="#4B5563"/>
</g>
<path d="M31.9971 8.59619L23.8438 64.1166H87.1643L79.0109 8.59619" stroke="#1F2A37" stroke-linecap="round" stroke-linejoin="round"/>
<path d="M77.2875 8.59619H33.7186L26.1641 64.1166H84.842L77.2875 8.59619Z" fill="#1F2A37"/>
<path d="M72.9824 12.827H49.3327L49.058 12.2218C48.9842 12.0575 48.8646 11.9182 48.7135 11.8206C48.5623 11.7229 48.3862 11.6712 48.2064 11.6716H42.8441C42.6983 11.6716 42.5586 11.7296 42.4556 11.8328C42.3525 11.936 42.2946 12.0759 42.2946 12.2218V12.838H38.0229C37.9458 12.8381 37.8697 12.8554 37.8001 12.8885C37.7305 12.9216 37.669 12.9697 37.6202 13.0294C37.5713 13.0891 37.5363 13.1589 37.5176 13.2338C37.4989 13.3086 37.4969 13.3867 37.5119 13.4624L41.0062 30.8616H69.9991L73.4934 13.4624C73.5103 13.386 73.5098 13.3067 73.4919 13.2304C73.4741 13.1541 73.4393 13.0829 73.3903 13.0219C73.3412 12.9609 73.2791 12.9117 73.2085 12.8779C73.1379 12.8442 73.0607 12.8268 72.9824 12.827Z" fill="#D1D5DB" stroke="#1F2A37" stroke-linecap="round" stroke-linejoin="round"/>
<path d="M73.8762 14.1611L73.574 15.663L70.4698 31.1201C70.4251 31.3522 70.3012 31.5615 70.1192 31.7121C69.9373 31.8626 69.7086 31.9451 69.4726 31.9453H41.5346C41.2986 31.9451 41.07 31.8626 40.888 31.7121C40.706 31.5615 40.5821 31.3522 40.5374 31.1201L37.3728 15.2972L37.1448 14.1611C37.1299 14.0861 37.1316 14.0087 37.1499 13.9344C37.1681 13.8601 37.2024 13.7907 37.2504 13.7312C37.2983 13.6716 37.3587 13.6233 37.4273 13.5897C37.496 13.5561 37.5711 13.538 37.6475 13.5366H73.3597C73.4373 13.536 73.514 13.5526 73.5843 13.5853C73.6546 13.6181 73.7168 13.6661 73.7662 13.7259C73.8157 13.7857 73.8512 13.8558 73.8702 13.9311C73.8892 14.0063 73.8913 14.0849 73.8762 14.1611Z" fill="white"/>
<mask id="mask1_7131_42051" style="mask-type:luminance" maskUnits="userSpaceOnUse" x="37" y="13" width="37" height="19">
<path d="M73.8762 14.1611L73.574 15.663L70.4698 31.1201C70.4251 31.3522 70.3012 31.5615 70.1192 31.7121C69.9373 31.8626 69.7086 31.9451 69.4726 31.9453H41.5346C41.2986 31.9451 41.07 31.8626 40.888 31.7121C40.706 31.5615 40.5821 31.3522 40.5374 31.1201L37.3728 15.2972L37.1448 14.1611C37.1299 14.0861 37.1316 14.0087 37.1499 13.9344C37.1681 13.8601 37.2024 13.7907 37.2504 13.7312C37.2983 13.6716 37.3587 13.6233 37.4273 13.5897C37.496 13.5561 37.5711 13.538 37.6475 13.5366H73.3597C73.4373 13.536 73.514 13.5526 73.5843 13.5853C73.6546 13.6181 73.7168 13.6661 73.7662 13.7259C73.8157 13.7857 73.8512 13.8558 73.8702 13.9311C73.8892 14.0063 73.8913 14.0849 73.8762 14.1611Z" fill="white"/>
</mask>
<g mask="url(#mask1_7131_42051)">
<path opacity="0.4" d="M73.5743 15.663L70.47 31.12C70.4254 31.3521 70.3014 31.5614 70.1195 31.712C69.9375 31.8626 69.7089 31.9451 69.4729 31.9453H41.5349C41.2988 31.9451 41.0702 31.8626 40.8883 31.712C40.7063 31.5614 40.5824 31.3521 40.5377 31.12L37.373 15.2971L73.5743 15.663Z" fill="#FF7959"/>
</g>
<path d="M73.8762 14.1611L73.574 15.663L70.4698 31.1201C70.4251 31.3522 70.3012 31.5615 70.1192 31.7121C69.9373 31.8626 69.7086 31.9451 69.4726 31.9453H41.5346C41.2986 31.9451 41.07 31.8626 40.888 31.7121C40.706 31.5615 40.5821 31.3522 40.5374 31.1201L37.3728 15.2972L37.1448 14.1611C37.1299 14.0861 37.1316 14.0087 37.1499 13.9344C37.1681 13.8601 37.2024 13.7907 37.2504 13.7312C37.2983 13.6716 37.3587 13.6233 37.4273 13.5897C37.496 13.5561 37.5711 13.538 37.6475 13.5366H73.3597C73.4373 13.536 73.514 13.5526 73.5843 13.5853C73.6546 13.6181 73.7168 13.6661 73.7662 13.7259C73.8157 13.7857 73.8512 13.8558 73.8702 13.9311C73.8892 14.0063 73.8913 14.0849 73.8762 14.1611Z" stroke="#1F2A37" stroke-linecap="round" stroke-linejoin="round"/>
<path d="M73.4046 16.835H49.1862L48.9115 16.2326C48.8339 16.0672 48.7106 15.9275 48.5563 15.83C48.402 15.7326 48.2231 15.6813 48.0406 15.6824H42.5464C42.4007 15.6824 42.261 15.7404 42.1579 15.8435C42.0549 15.9467 41.997 16.0866 41.997 16.2326V16.8487H37.6017C37.5238 16.8478 37.4467 16.8641 37.376 16.8967C37.3053 16.9292 37.2426 16.9771 37.1927 17.0369C37.1427 17.0967 37.1066 17.1668 37.0871 17.2423C37.0676 17.3178 37.065 17.3966 37.0797 17.4732L40.6509 34.82H70.3388L73.91 17.4732C73.9267 17.397 73.9263 17.3181 73.9088 17.2421C73.8913 17.1661 73.8571 17.095 73.8087 17.0339C73.7603 16.9728 73.6989 16.9232 73.629 16.8888C73.5591 16.8544 73.4824 16.836 73.4046 16.835Z" fill="#D1D5DB" stroke="#1F2A37" stroke-linecap="round" stroke-linejoin="round"/>
<path d="M74.3153 18.2158L74.0131 19.6847L70.8292 35.1253C70.7803 35.3599 70.6518 35.5703 70.4655 35.7207C70.2792 35.8712 70.0466 35.9524 69.8073 35.9505H41.199C40.9597 35.9524 40.7271 35.8712 40.5408 35.7207C40.3545 35.5703 40.226 35.3599 40.1771 35.1253L36.9822 19.6325L36.6911 18.2158C36.6764 18.1392 36.6789 18.0604 36.6984 17.9849C36.718 17.9094 36.754 17.8393 36.804 17.7795C36.8539 17.7197 36.9166 17.6718 36.9873 17.6393C37.0581 17.6067 37.1352 17.5904 37.213 17.5914H73.7933C73.8712 17.5904 73.9482 17.6067 74.019 17.6393C74.0897 17.6718 74.1524 17.7197 74.2023 17.7795C74.2523 17.8393 74.2884 17.9094 74.3079 17.9849C74.3274 18.0604 74.3299 18.1392 74.3153 18.2158Z" fill="white"/>
<mask id="mask2_7131_42051" style="mask-type:luminance" maskUnits="userSpaceOnUse" x="36" y="17" width="39" height="19">
<path d="M74.3153 18.2158L74.0131 19.6847L70.8292 35.1253C70.7803 35.3599 70.6518 35.5703 70.4655 35.7207C70.2792 35.8712 70.0466 35.9524 69.8073 35.9505H41.199C40.9597 35.9524 40.7271 35.8712 40.5408 35.7207C40.3545 35.5703 40.226 35.3599 40.1771 35.1253L36.9822 19.6325L36.6911 18.2158C36.6764 18.1392 36.6789 18.0604 36.6984 17.9849C36.718 17.9094 36.754 17.8393 36.804 17.7795C36.8539 17.7197 36.9166 17.6718 36.9873 17.6393C37.0581 17.6067 37.1352 17.5904 37.213 17.5914H73.7933C73.8712 17.5904 73.9482 17.6067 74.019 17.6393C74.0897 17.6718 74.1524 17.7197 74.2023 17.7795C74.2523 17.8393 74.2884 17.9094 74.3079 17.9849C74.3274 18.0604 74.3299 18.1392 74.3153 18.2158Z" fill="white"/>
</mask>
<g mask="url(#mask2_7131_42051)">
<path opacity="0.4" d="M74.0133 19.6848L70.8294 35.1253C70.7805 35.36 70.652 35.5704 70.4657 35.7208C70.2794 35.8713 70.0468 35.9525 69.8075 35.9506H41.1992C40.9599 35.9525 40.7273 35.8713 40.541 35.7208C40.3547 35.5704 40.2262 35.36 40.1773 35.1253L36.9824 19.6326L74.0133 19.6848Z" fill="#FF7959"/>
</g>
<path d="M74.3153 18.2158L74.0131 19.6847L70.8292 35.1253C70.7803 35.3599 70.6518 35.5703 70.4655 35.7207C70.2792 35.8712 70.0466 35.9524 69.8073 35.9505H41.199C40.9597 35.9524 40.7271 35.8712 40.5408 35.7207C40.3545 35.5703 40.226 35.3599 40.1771 35.1253L36.9822 19.6325L36.6911 18.2158C36.6764 18.1392 36.6789 18.0604 36.6984 17.9849C36.718 17.9094 36.754 17.8393 36.804 17.7795C36.8539 17.7197 36.9166 17.6718 36.9873 17.6393C37.0581 17.6067 37.1352 17.5904 37.213 17.5914H73.7933C73.8712 17.5904 73.9482 17.6067 74.019 17.6393C74.0897 17.6718 74.1524 17.7197 74.2023 17.7795C74.2523 17.8393 74.2884 17.9094 74.3079 17.9849C74.3274 18.0604 74.3299 18.1392 74.3153 18.2158Z" stroke="#1F2A37" stroke-linecap="round" stroke-linejoin="round"/>
<path d="M73.8219 20.843H49.0404L48.7656 20.2406C48.6848 20.0737 48.5581 19.9334 48.4005 19.8359C48.2429 19.7385 48.0608 19.688 47.8756 19.6904H42.2386C42.165 19.6882 42.0918 19.7008 42.0232 19.7275C41.9547 19.7541 41.8921 19.7943 41.8394 19.8456C41.7866 19.8969 41.7446 19.9583 41.716 20.0262C41.6874 20.094 41.6726 20.1669 41.6726 20.2406V20.854H37.1866C37.1081 20.8516 37.03 20.8667 36.958 20.8983C36.886 20.93 36.822 20.9773 36.7707 21.0369C36.7193 21.0965 36.6819 21.1668 36.6612 21.2428C36.6405 21.3187 36.637 21.3983 36.651 21.4757L40.3128 38.7703H70.6957L74.3576 21.4757C74.3734 21.3975 74.3713 21.3167 74.3515 21.2393C74.3316 21.162 74.2945 21.0902 74.243 21.0293C74.1914 20.9684 74.1267 20.92 74.0538 20.8878C73.9809 20.8555 73.9016 20.8402 73.8219 20.843Z" fill="#D1D5DB" stroke="#1F2A37" stroke-linecap="round" stroke-linejoin="round"/>
<path d="M74.2229 21.649H36.7855C36.7073 21.6466 36.6295 21.6616 36.5579 21.6931C36.4862 21.7246 36.4226 21.7718 36.3715 21.8311C36.3204 21.8904 36.2832 21.9605 36.2626 22.0361C36.242 22.1116 36.2386 22.1909 36.2526 22.268L39.8238 39.1279C39.8763 39.3648 40.0088 39.5763 40.199 39.7267C40.3892 39.877 40.6254 39.957 40.8677 39.9532H70.1435C70.3858 39.957 70.622 39.877 70.8122 39.7267C71.0024 39.5763 71.1349 39.3648 71.1874 39.1279L74.7586 22.268C74.7726 22.1907 74.7691 22.1112 74.7484 22.0354C74.7277 21.9596 74.6903 21.8894 74.6389 21.83C74.5875 21.7706 74.5234 21.7235 74.4514 21.6922C74.3794 21.6609 74.3014 21.6461 74.2229 21.649Z" fill="white" stroke="#1F2A37" stroke-linecap="round" stroke-linejoin="round"/>
<path d="M74.2417 24.0257H48.8915L48.6031 23.426C48.5182 23.2582 48.3879 23.1177 48.2272 23.0204C48.0664 22.9231 47.8816 22.873 47.6938 22.8758H41.9249C41.8502 22.8717 41.7755 22.8829 41.7054 22.9087C41.6352 22.9345 41.571 22.9744 41.5167 23.0259C41.4625 23.0774 41.4193 23.1394 41.3898 23.2082C41.3603 23.277 41.3452 23.3511 41.3453 23.426V24.0394H36.7659C36.6866 24.0354 36.6074 24.0493 36.5342 24.08C36.461 24.1108 36.3956 24.1576 36.3429 24.217C36.2902 24.2764 36.2514 24.3469 36.2295 24.4233C36.2077 24.4997 36.2032 24.58 36.2164 24.6584L39.9607 41.9035H71.0441L74.7884 24.6584C74.8039 24.5793 74.8013 24.4976 74.7806 24.4197C74.7599 24.3417 74.7218 24.2695 74.6691 24.2086C74.6164 24.1476 74.5505 24.0994 74.4765 24.0677C74.4024 24.036 74.3221 24.0217 74.2417 24.0257Z" fill="#D1D5DB" stroke="#1F2A37" stroke-linecap="round" stroke-linejoin="round"/>
<path d="M74.6502 24.8784H36.3557C36.2764 24.8744 36.1973 24.8882 36.1241 24.919C36.0509 24.9497 35.9855 24.9965 35.9327 25.0559C35.88 25.1153 35.8413 25.1858 35.8194 25.2622C35.7975 25.3386 35.793 25.4189 35.8063 25.4973L39.4572 42.3077C39.517 42.5441 39.6555 42.753 39.8497 42.9C40.0439 43.047 40.2824 43.1233 40.5258 43.1165H70.4691C70.7125 43.1233 70.951 43.047 71.1452 42.9C71.3395 42.753 71.4779 42.5441 71.5377 42.3077L75.1886 25.4973C75.2017 25.4199 75.1974 25.3405 75.1761 25.265C75.1548 25.1894 75.1171 25.1195 75.0656 25.0603C75.0141 25.0011 74.9501 24.9541 74.8783 24.9226C74.8065 24.8912 74.7286 24.876 74.6502 24.8784Z" fill="white" stroke="#1F2A37" stroke-linecap="round" stroke-linejoin="round"/>
<path d="M74.6593 27.2084H48.7432L48.4493 26.6087C48.3602 26.4396 48.226 26.2986 48.0615 26.2015C47.8971 26.1043 47.7089 26.0548 47.518 26.0586H41.631C41.482 26.0511 41.3362 26.1031 41.2255 26.2031C41.1147 26.3032 41.0482 26.4431 41.0404 26.5922V27.2029H36.3483C36.2703 27.2024 36.193 27.2185 36.1216 27.2501C36.0503 27.2818 35.9865 27.3284 35.9345 27.3867C35.8825 27.445 35.8435 27.5137 35.8202 27.5882C35.7968 27.6628 35.7895 27.7415 35.7989 27.8191L39.6283 45.0119H71.3902L75.2197 27.8191C75.2284 27.741 75.2202 27.662 75.1958 27.5873C75.1714 27.5126 75.1313 27.444 75.0782 27.3861C75.0251 27.3283 74.9602 27.2825 74.888 27.2518C74.8157 27.2212 74.7377 27.2064 74.6593 27.2084Z" fill="#D1D5DB" stroke="#1F2A37" stroke-linecap="round" stroke-linejoin="round"/>
<path d="M75.077 28.1107H35.9309C35.852 28.1073 35.7734 28.1215 35.7007 28.1522C35.628 28.183 35.563 28.2295 35.5104 28.2885C35.4578 28.3474 35.419 28.4174 35.3967 28.4932C35.3744 28.569 35.3692 28.6488 35.3815 28.7269L36.299 32.8532L39.112 45.4878C39.1775 45.7269 39.3216 45.9368 39.521 46.0836C39.7204 46.2304 39.9635 46.3054 40.2109 46.2966H70.8135C71.0609 46.3054 71.304 46.2304 71.5034 46.0836C71.7028 45.9368 71.8469 45.7269 71.9124 45.4878L73.2859 39.2902L75.6374 28.7297C75.6504 28.6504 75.6454 28.5693 75.6227 28.4923C75.6 28.4152 75.5602 28.3443 75.5063 28.2848C75.4525 28.2253 75.3859 28.1788 75.3115 28.1486C75.2372 28.1185 75.157 28.1055 75.077 28.1107Z" fill="white"/>
<mask id="mask3_7131_42051" style="mask-type:luminance" maskUnits="userSpaceOnUse" x="35" y="28" width="41" height="19">
<path d="M75.077 28.1107H35.9309C35.852 28.1073 35.7734 28.1215 35.7007 28.1522C35.628 28.183 35.563 28.2295 35.5104 28.2885C35.4578 28.3474 35.419 28.4174 35.3967 28.4932C35.3744 28.569 35.3692 28.6488 35.3815 28.7269L36.299 32.8532L39.112 45.4878C39.1775 45.7269 39.3216 45.9368 39.521 46.0836C39.7204 46.2304 39.9635 46.3054 40.2109 46.2966H70.8135C71.0609 46.3054 71.304 46.2304 71.5034 46.0836C71.7028 45.9368 71.8469 45.7269 71.9124 45.4878L73.2859 39.2902L75.6374 28.7297C75.6504 28.6504 75.6454 28.5693 75.6227 28.4923C75.6 28.4152 75.5602 28.3443 75.5063 28.2848C75.4525 28.2253 75.3859 28.1788 75.3115 28.1486C75.2372 28.1185 75.157 28.1055 75.077 28.1107Z" fill="white"/>
</mask>
<g mask="url(#mask3_7131_42051)">
<path opacity="0.4" d="M36.2871 32.8503L39.1001 45.485C39.1656 45.724 39.3097 45.9339 39.5091 46.0807C39.7085 46.2275 39.9516 46.3026 40.199 46.2937H70.8126C71.0599 46.3026 71.303 46.2275 71.5025 46.0807C71.7019 45.9339 71.846 45.724 71.9114 45.485L73.285 39.2873L36.2871 32.8503Z" fill="#FF7959"/>
</g>
<path d="M75.077 28.1107H35.9309C35.852 28.1073 35.7734 28.1215 35.7007 28.1522C35.628 28.183 35.563 28.2295 35.5104 28.2885C35.4578 28.3474 35.419 28.4174 35.3967 28.4932C35.3744 28.569 35.3692 28.6488 35.3815 28.7269L36.299 32.8532L39.112 45.4878C39.1775 45.7269 39.3216 45.9368 39.521 46.0836C39.7204 46.2304 39.9635 46.3054 40.2109 46.2966H70.8135C71.0609 46.3054 71.304 46.2304 71.5034 46.0836C71.7028 45.9368 71.8469 45.7269 71.9124 45.4878L73.2859 39.2902L75.6374 28.7297C75.6504 28.6504 75.6454 28.5693 75.6227 28.4923C75.6 28.4152 75.5602 28.3443 75.5063 28.2848C75.4525 28.2253 75.3859 28.1788 75.3115 28.1486C75.2372 28.1185 75.157 28.1055 75.077 28.1107Z" stroke="#1F2A37" stroke-linecap="round" stroke-linejoin="round"/>
<path d="M47.7487 46.8907L47.4026 46.313C47.2891 46.1462 47.1334 46.0124 46.9515 45.9254C46.7696 45.8385 46.5679 45.8013 46.3669 45.8179L39.9717 46.1122C39.8176 46.1061 39.6671 46.1599 39.5519 46.2625C39.4366 46.3651 39.3656 46.5084 39.3536 46.6624L39.3811 47.2676L34.2825 47.5014C33.8924 47.5179 33.6122 47.826 33.7056 48.1368L38.6503 64.917L73.1648 63.327L76.5465 46.17C76.6069 45.8509 76.302 45.5703 75.9092 45.5896L47.7487 46.8907Z" fill="#D1D5DB" stroke="#1F2A37" stroke-linecap="round" stroke-linejoin="round"/>
<path d="M77.0407 47.2427L76.6561 49.2179L73.7525 63.9707C73.6807 64.2196 73.5291 64.438 73.3211 64.5921C73.1131 64.7463 72.8602 64.8275 72.6014 64.8234L39.3424 66.3529C39.085 66.381 38.8256 66.3235 38.6041 66.1893C38.3827 66.055 38.2116 65.8515 38.1171 65.6102L33.5268 50.0129L33.3042 49.2564C33.2136 48.9455 33.4938 48.6374 33.8839 48.6209L76.4116 46.6623C76.799 46.6458 77.1039 46.9264 77.0407 47.2427Z" fill="white"/>
<mask id="mask4_7131_42051" style="mask-type:luminance" maskUnits="userSpaceOnUse" x="33" y="46" width="45" height="21">
<path d="M77.0407 47.2427L76.6561 49.2179L73.7525 63.9707C73.6807 64.2196 73.5291 64.438 73.3211 64.5921C73.1131 64.7463 72.8602 64.8275 72.6014 64.8234L39.3424 66.3529C39.085 66.381 38.8256 66.3235 38.6041 66.1893C38.3827 66.055 38.2116 65.8515 38.1171 65.6102L33.5268 50.0129L33.3042 49.2564C33.2136 48.9455 33.4938 48.6374 33.8839 48.6209L76.4116 46.6623C76.799 46.6458 77.1039 46.9264 77.0407 47.2427Z" fill="white"/>
</mask>
<g mask="url(#mask4_7131_42051)">
<path opacity="0.4" d="M76.6567 49.2178L73.753 63.9706C73.6813 64.2195 73.5297 64.4379 73.3217 64.5921C73.1137 64.7462 72.8608 64.8275 72.602 64.8233L39.3429 66.3528C39.0856 66.3809 38.8262 66.3234 38.6047 66.1892C38.3833 66.055 38.2122 65.8514 38.1177 65.6101L33.5273 50.0128L76.6567 49.2178Z" fill="#FF7959"/>
</g>
<path d="M77.0407 47.2427L76.6561 49.2179L73.7525 63.9707C73.6807 64.2196 73.5291 64.438 73.3211 64.5921C73.1131 64.7463 72.8602 64.8275 72.6014 64.8234L39.3424 66.3529C39.085 66.381 38.8256 66.3235 38.6041 66.1893C38.3827 66.055 38.2116 65.8515 38.1171 65.6102L33.5268 50.0129L33.3042 49.2564C33.2136 48.9455 33.4938 48.6374 33.8839 48.6209L76.4116 46.6623C76.799 46.6458 77.1039 46.9264 77.0407 47.2427Z" stroke="#1F2A37" stroke-linecap="round" stroke-linejoin="round"/>
<path d="M48.4815 50.7198L48.1875 50.1147C48.0864 49.9363 47.9403 49.7877 47.7639 49.6834C47.5875 49.5792 47.3869 49.523 47.1821 49.5205L40.6688 49.1794C40.5127 49.1554 40.3535 49.1935 40.2252 49.2855C40.0969 49.3775 40.0096 49.5161 39.982 49.6718L39.9518 50.2742L34.7543 49.9991C34.3559 49.9771 34.0428 50.255 34.1032 50.5713L37.4629 67.7063L72.6614 69.5494L77.7847 52.86C77.8781 52.5492 77.5952 52.2411 77.1969 52.2218L48.4815 50.7198Z" fill="#D1D5DB" stroke="#1F2A37" stroke-linecap="round" stroke-linejoin="round"/>
<path d="M78.1845 54.0236L77.3604 56.7415L73.2013 70.2921C73.1011 70.5345 72.9243 70.7373 72.6981 70.8694C72.4718 71.0016 72.2086 71.0558 71.9486 71.0239L38.0302 69.2496C37.7685 69.2535 37.5126 69.1718 37.3014 69.0169C37.0902 68.862 36.9352 68.6424 36.8599 68.3913L33.9892 53.7375L33.5882 51.6881C33.525 51.3718 33.8409 51.094 34.2392 51.116L77.5966 53.3854C77.9949 53.4074 78.2806 53.7155 78.1845 54.0236Z" fill="white"/>
<mask id="mask5_7131_42051" style="mask-type:luminance" maskUnits="userSpaceOnUse" x="33" y="51" width="46" height="21">
<path d="M78.1845 54.0236L77.3604 56.7415L73.2013 70.2921C73.1011 70.5345 72.9243 70.7373 72.6981 70.8694C72.4718 71.0016 72.2086 71.0558 71.9486 71.0239L38.0302 69.2496C37.7685 69.2535 37.5126 69.1718 37.3014 69.0169C37.0902 68.862 36.9352 68.6424 36.8599 68.3913L33.9892 53.7375L33.5882 51.6881C33.525 51.3718 33.8409 51.094 34.2392 51.116L77.5966 53.3854C77.9949 53.4074 78.2806 53.7155 78.1845 54.0236Z" fill="white"/>
</mask>
<g mask="url(#mask5_7131_42051)">
<path opacity="0.4" d="M77.3496 56.7415L73.1905 70.2922C73.0904 70.5345 72.9136 70.7373 72.6874 70.8694C72.4611 71.0016 72.1978 71.0559 71.9379 71.0239L38.0195 69.2496C37.7577 69.2535 37.5019 69.1718 37.2907 69.0169C37.0795 68.862 36.9245 68.6424 36.8492 68.3913L33.9785 53.7375L77.3496 56.7415Z" fill="#FF7959"/>
</g>
<path d="M78.1845 54.0236L77.3604 56.7415L73.2013 70.2921C73.1011 70.5345 72.9243 70.7373 72.6981 70.8694C72.4718 71.0016 72.2086 71.0558 71.9486 71.0239L38.0302 69.2496C37.7685 69.2535 37.5126 69.1718 37.3014 69.0169C37.0902 68.862 36.9352 68.6424 36.8599 68.3913L33.9892 53.7375L33.5882 51.6881C33.525 51.3718 33.8409 51.094 34.2392 51.116L77.5966 53.3854C77.9949 53.4074 78.2806 53.7155 78.1845 54.0236Z" stroke="#1F2A37" stroke-linecap="round" stroke-linejoin="round"/>
<path d="M47.8552 55.1075L47.5365 54.5188C47.4238 54.3437 47.2675 54.2009 47.0831 54.1044C46.8986 54.008 46.6923 53.9612 46.4844 53.9687H39.8117C39.6536 53.9515 39.4951 53.9968 39.3698 54.0949C39.2446 54.193 39.1627 54.3363 39.1414 54.4941V55.0938H33.834C33.4274 55.0938 33.1225 55.3854 33.2022 55.699L37.5316 72.5809H73.4746L77.804 55.699C77.8837 55.3854 77.5787 55.0938 77.1722 55.0938L47.8552 55.1075Z" fill="#D1D5DB" stroke="#1F2A37" stroke-linecap="round" stroke-linejoin="round"/>
<path d="M72.8104 74.1517H38.197C37.5982 74.1517 37.079 73.8188 36.9608 73.3594L32.7303 56.9011C32.6479 56.5875 32.9528 56.2959 33.3621 56.2959H77.6453C78.0546 56.2959 78.3596 56.5875 78.2771 56.9011L74.0576 73.3594C73.9395 73.8188 73.4203 74.1517 72.8104 74.1517Z" fill="white" stroke="#1F2A37" stroke-linecap="round" stroke-linejoin="round"/>
<path d="M47.7071 59.1156L47.3692 58.5297C47.2506 58.3561 47.0897 58.2157 46.9017 58.1218C46.7137 58.028 46.5049 57.9837 46.2951 57.9933H39.5098C39.3499 57.9744 39.1889 58.0187 39.0612 58.1169C38.9334 58.215 38.8489 58.3592 38.8257 58.5187V59.1156H33.4167C32.9991 59.1156 32.6887 59.4072 32.7711 59.7208L37.1857 76.5505H73.821L78.2355 59.7126C78.318 59.399 78.0075 59.1074 77.59 59.1074L47.7071 59.1156Z" fill="#D1D5DB" stroke="#1F2A37" stroke-linecap="round" stroke-linejoin="round"/>
<path d="M73.1564 78.1431H37.8508C37.2409 78.1431 36.7135 77.8102 36.5926 77.3508L32.2879 60.9448C32.2082 60.6312 32.5187 60.3396 32.9335 60.3396H78.0737C78.4885 60.3396 78.799 60.6312 78.7193 60.9448L74.4146 77.3508C74.2937 77.8212 73.7663 78.1431 73.1564 78.1431Z" fill="white" stroke="#1F2A37" stroke-linecap="round" stroke-linejoin="round"/>
<path d="M80.329 97.1157H30.6781L19.8105 66.2539H91.1965L80.329 97.1157Z" fill="#FF7959"/>
<mask id="mask6_7131_42051" style="mask-type:luminance" maskUnits="userSpaceOnUse" x="19" y="66" width="73" height="32">
<path d="M80.329 97.1157H30.6781L19.8105 66.2539H91.1965L80.329 97.1157Z" fill="white"/>
</mask>
<g mask="url(#mask6_7131_42051)">
<path opacity="0.3" d="M80.329 97.1157H30.6781L19.8105 66.2539H91.1965L80.329 97.1157Z" fill="#4B5563"/>
</g>
<path d="M80.329 97.1157H30.6781L19.8105 66.2539H91.1965L80.329 97.1157Z" stroke="#1F2A37" stroke-linecap="round" stroke-linejoin="round"/>
<path d="M90.2515 62.1909H20.7555L19.8105 66.2539H91.1965L90.2515 62.1909Z" fill="#FF7959" stroke="#1F2A37" stroke-linecap="round" stroke-linejoin="round"/>
<path d="M38.2712 80.3933L37.5762 86.9816H73.4313L72.7362 80.3933H71.1539L71.6044 85.0945H39.403L39.8535 80.3933H38.2712Z" fill="#D1D5DB" stroke="#1F2A37" stroke-linecap="round" stroke-linejoin="round"/>
<path d="M73.162 88.4947H37.8454L37.5762 86.9817H73.4313L73.162 88.4947Z" fill="#9CA3AF" stroke="#1F2A37" stroke-linecap="round" stroke-linejoin="round"/>
<path d="M71.1534 80.3933L70.9336 82.1401L71.1534 85.0945H71.6039L71.1534 80.3933Z" fill="#9CA3AF" stroke="#1F2A37" stroke-linecap="round" stroke-linejoin="round"/>
<path d="M39.8529 80.3933L40.0754 82.1401L39.8529 85.0945H39.4023L39.8529 80.3933Z" fill="#9CA3AF" stroke="#1F2A37" stroke-linecap="round" stroke-linejoin="round"/>
<path d="M67.0578 77.0868H43.9492L42.8477 71.4971H68.1594L67.0578 77.0868Z" fill="white" stroke="#1F2A37" stroke-linecap="round" stroke-linejoin="round"/>
<path d="M57.0514 22.9969L56.8262 22.3504C56.7531 22.1663 56.631 22.0058 56.4731 21.8864C56.3151 21.7671 56.1275 21.6935 55.9306 21.6737L49.8211 20.8842C49.6692 20.8551 49.512 20.8874 49.3838 20.974C49.2557 21.0606 49.167 21.1945 49.137 21.3464L49.0574 21.9653L44.1895 21.3381C44.1086 21.3211 44.0248 21.3226 43.9446 21.3426C43.8643 21.3625 43.7895 21.4003 43.7259 21.4532C43.6623 21.5061 43.6114 21.5727 43.577 21.648C43.5426 21.7234 43.5257 21.8055 43.5275 21.8883L45.2609 39.8073L78.226 44.0629L84.4399 27.1699C84.4623 27.0905 84.4665 27.007 84.4523 26.9257C84.4381 26.8443 84.4058 26.7673 84.3578 26.7002C84.3097 26.6331 84.2472 26.5776 84.1749 26.538C84.1026 26.4984 84.0223 26.4755 83.94 26.4712L57.0514 22.9969Z" fill="white"/>
<mask id="mask7_7131_42051" style="mask-type:luminance" maskUnits="userSpaceOnUse" x="43" y="20" width="42" height="25">
<path d="M57.0514 22.9969L56.8262 22.3504C56.7531 22.1663 56.631 22.0058 56.4731 21.8864C56.3151 21.7671 56.1275 21.6935 55.9306 21.6737L49.8211 20.8842C49.6692 20.8551 49.512 20.8874 49.3838 20.974C49.2557 21.0606 49.167 21.1945 49.137 21.3464L49.0574 21.9653L44.1895 21.3381C44.1086 21.3211 44.0248 21.3226 43.9446 21.3426C43.8643 21.3625 43.7895 21.4003 43.7259 21.4532C43.6623 21.5061 43.6114 21.5727 43.577 21.648C43.5426 21.7234 43.5257 21.8055 43.5275 21.8883L45.2609 39.8073L78.226 44.0629L84.4399 27.1699C84.4623 27.0905 84.4665 27.007 84.4523 26.9257C84.4381 26.8443 84.4058 26.7673 84.3578 26.7002C84.3097 26.6331 84.2472 26.5776 84.1749 26.538C84.1026 26.4984 84.0223 26.4755 83.94 26.4712L57.0514 22.9969Z" fill="white"/>
</mask>
<g mask="url(#mask7_7131_42051)">
<path opacity="0.4" d="M57.0514 22.9969L56.8262 22.3504C56.7531 22.1663 56.631 22.0058 56.4731 21.8864C56.3151 21.7671 56.1275 21.6935 55.9306 21.6737L49.8211 20.8842C49.6692 20.8551 49.512 20.8874 49.3838 20.974C49.2557 21.0606 49.167 21.1945 49.137 21.3464L49.0574 21.9653L44.1895 21.3381C44.1086 21.3211 44.0248 21.3226 43.9446 21.3426C43.8643 21.3625 43.7895 21.4003 43.7259 21.4532C43.6623 21.5061 43.6114 21.5727 43.577 21.648C43.5426 21.7234 43.5257 21.8055 43.5275 21.8883L45.2609 39.8073L78.226 44.0629L84.4399 27.1699C84.4623 27.0905 84.4665 27.007 84.4523 26.9257C84.4381 26.8443 84.4058 26.7673 84.3578 26.7002C84.3097 26.6331 84.2472 26.5776 84.1749 26.538C84.1026 26.4984 84.0223 26.4755 83.94 26.4712L57.0514 22.9969Z" fill="#FF7959"/>
</g>
<path d="M57.0514 22.9969L56.8262 22.3504C56.7531 22.1663 56.631 22.0058 56.4731 21.8864C56.3151 21.7671 56.1275 21.6935 55.9306 21.6737L49.8211 20.8842C49.6692 20.8551 49.512 20.8874 49.3838 20.974C49.2557 21.0606 49.167 21.1945 49.137 21.3464L49.0574 21.9653L44.1895 21.3381C44.1086 21.3211 44.0248 21.3226 43.9446 21.3426C43.8643 21.3625 43.7895 21.4003 43.7259 21.4532C43.6623 21.5061 43.6114 21.5727 43.577 21.648C43.5426 21.7234 43.5257 21.8055 43.5275 21.8883L45.2609 39.8073L78.226 44.0629L84.4399 27.1699C84.4623 27.0905 84.4666 27.007 84.4523 26.9257C84.4381 26.8443 84.4058 26.7673 84.3578 26.7002C84.3097 26.6331 84.2472 26.5776 84.1749 26.538C84.1026 26.4984 84.0223 26.4755 83.94 26.4712L57.0514 22.9969Z" stroke="#1F2A37" stroke-linecap="round" stroke-linejoin="round"/>
<path d="M84.7549 28.185L79.1289 43.4825L78.6948 44.6598C78.5933 44.8945 78.4159 45.0883 78.1913 45.21C77.9666 45.3317 77.7076 45.3743 77.4559 45.331L45.6858 41.2268C45.4312 41.2044 45.1916 41.0971 45.0053 40.922C44.8189 40.7469 44.6968 40.5142 44.6583 40.2612L42.9689 22.7933C42.9671 22.7105 42.984 22.6284 43.0184 22.5531C43.0528 22.4777 43.1037 22.4111 43.1673 22.3582C43.2309 22.3054 43.3057 22.2675 43.386 22.2476C43.4662 22.2277 43.55 22.2262 43.6309 22.2432L70.6678 25.734L84.255 27.4863C84.3373 27.4906 84.4176 27.5134 84.4899 27.5531C84.5622 27.5927 84.6247 27.6481 84.6727 27.7152C84.7208 27.7823 84.7531 27.8594 84.7673 27.9407C84.7815 28.0221 84.7773 28.1055 84.7549 28.185Z" fill="white"/>
<mask id="mask8_7131_42051" style="mask-type:luminance" maskUnits="userSpaceOnUse" x="42" y="22" width="43" height="24">
<path d="M84.7549 28.185L79.1289 43.4825L78.6948 44.6598C78.5933 44.8945 78.4159 45.0883 78.1913 45.21C77.9666 45.3317 77.7076 45.3743 77.4559 45.331L45.6858 41.2268C45.4312 41.2044 45.1916 41.0971 45.0053 40.922C44.8189 40.7469 44.6968 40.5142 44.6583 40.2612L42.9689 22.7933C42.9671 22.7105 42.984 22.6284 43.0184 22.5531C43.0528 22.4777 43.1037 22.4111 43.1673 22.3582C43.2309 22.3054 43.3057 22.2675 43.386 22.2476C43.4662 22.2277 43.55 22.2262 43.6309 22.2432L70.6678 25.734L84.255 27.4863C84.3373 27.4906 84.4176 27.5134 84.4899 27.5531C84.5622 27.5927 84.6247 27.6481 84.6727 27.7152C84.7208 27.7823 84.7531 27.8594 84.7673 27.9407C84.7815 28.0221 84.7773 28.1055 84.7549 28.185Z" fill="white"/>
</mask>
<g mask="url(#mask8_7131_42051)">
<path opacity="0.3" d="M84.7548 28.185L79.1287 43.4825C75.1427 42.5389 74.9916 40.0522 74.3241 38.7648C73.5878 37.3453 68.9205 36.5916 67.6156 36.3633C66.3108 36.135 65.5169 34.8118 65.5169 34.8118C64.3411 31.5108 70.4781 28.6224 70.4781 28.6224C70.3572 28.1685 70.5358 26.6803 70.6649 25.7395L84.252 27.4918C84.334 27.4959 84.414 27.5184 84.4861 27.5575C84.5583 27.5967 84.6208 27.6515 84.669 27.718C84.7172 27.7845 84.7499 27.8609 84.7648 27.9418C84.7796 28.0226 84.7762 28.1057 84.7548 28.185Z" fill="#4B5563"/>
</g>
<path d="M84.7549 28.185L79.1289 43.4825L78.6948 44.6598C78.5933 44.8945 78.4159 45.0883 78.1913 45.21C77.9666 45.3317 77.7077 45.3743 77.4559 45.331L45.6858 41.2268C45.4312 41.2044 45.1916 41.0971 45.0053 40.922C44.8189 40.7469 44.6968 40.5142 44.6583 40.2612L42.9689 22.7933C42.9671 22.7105 42.984 22.6284 43.0184 22.5531C43.0528 22.4777 43.1037 22.4111 43.1673 22.3582C43.2309 22.3054 43.3057 22.2675 43.386 22.2476C43.4662 22.2277 43.55 22.2262 43.6309 22.2432L70.6678 25.734L84.255 27.4863C84.3373 27.4906 84.4176 27.5134 84.4899 27.5531C84.5622 27.5927 84.6247 27.6481 84.6727 27.7152C84.7208 27.7823 84.7531 27.8594 84.7673 27.9407C84.7815 28.0221 84.7773 28.1055 84.7549 28.185Z" stroke="#1F2A37" stroke-linecap="round" stroke-linejoin="round"/>
<path d="M48.9434 27.5L49.3774 38.3108L53.2893 38.817L53.7508 28.0447L48.9434 27.5Z" fill="#FF7959" stroke="#1F2A37" stroke-linecap="round" stroke-linejoin="round"/>
<path d="M51.3311 37.5158C51.3808 37.3246 51.3896 37.1251 51.3569 36.9303C51.3243 36.7354 51.2509 36.5497 51.1416 36.3852C50.9193 36.0585 50.652 35.765 50.3477 35.5132C50.8016 35.7738 51.3033 35.9404 51.8228 36.0029C51.8228 35.4389 51.2734 35.0483 50.8037 34.7512C50.9112 34.7094 51.0266 34.6921 51.1417 34.7007C51.2567 34.7093 51.3683 34.7434 51.4685 34.8007C51.4753 34.7133 51.4612 34.6255 51.4273 34.5446C51.3933 34.4637 51.3406 34.3922 51.2734 34.3358C51.3339 34.3881 51.4273 34.3056 51.4245 34.2286C51.4098 34.1513 51.3769 34.0786 51.3284 34.0167C51.2546 33.8501 51.2253 33.6672 51.2432 33.4858C51.2432 32.8394 51.2624 32.1902 51.2707 31.5437C51.2799 31.6029 51.3061 31.658 51.3461 31.7025C51.3861 31.7469 51.4382 31.7787 51.4959 31.7941C51.4959 31.5382 51.4657 31.2824 51.441 31.0266C51.3806 30.3801 51.3201 29.7309 51.2569 29.0845" stroke="#1F2A37" stroke-width="0.5" stroke-linecap="round" stroke-linejoin="round"/>
<path d="M113.468 62.6503C113.468 62.6503 91.2988 42.7892 89.8868 41.5375C88.4748 40.2859 87.4419 40.3409 86.681 39.5789C85.92 38.8169 85.5382 38.275 82.4422 38.3273C79.3462 38.3796 75.2146 36.696 74.2916 36.0964C73.3686 35.4967 72.0637 35.9341 71.1929 35.5957C70.322 35.2574 68.0969 35.5544 66.7371 35.5957C65.3773 35.637 65.2701 34.2478 65.8141 32.6688C66.358 31.0898 70.4841 30.1133 71.0335 30.4379C71.583 30.7625 73.7504 29.8409 73.7504 29.8409C73.4235 28.6966 73.5334 25.921 73.5334 25.921C73.5334 25.921 71.2506 24.9417 70.3825 24.6171C69.7137 24.4151 69.0128 24.3413 68.3167 24.3998C68.3167 24.3998 68.5914 23.1509 69.0227 22.686C69.454 22.2211 71.5225 21.7864 73.5334 20.3725C75.5443 18.9586 76.7942 18.6312 77.1046 18.7385C77.415 18.8458 79.6594 19.5005 80.2583 19.5005C80.8571 19.5005 81.7252 18.9503 82.5933 19.1209C83.4614 19.2914 85.0382 20.6448 85.7442 20.8071C86.4502 20.9694 86.6672 21.118 87.593 21.118C87.9996 21.118 89.6588 22.3311 89.6588 22.3311C90.3536 22.464 91.0291 22.683 91.6697 22.9831C92.6999 23.4727 93.7877 25.8137 94.2767 26.5757C94.7657 27.3377 94.8261 29.1862 94.8261 29.1862C94.8261 29.1862 96.131 29.8932 96.62 30.8725C97.109 31.8518 115.116 41.5375 115.116 41.5375C115.116 41.5375 117.954 52.6757 113.468 62.6503Z" fill="white"/>
<path opacity="0.4" d="M97.6819 48.5027C93.7096 44.9431 90.4131 41.9942 89.8966 41.5375C88.4819 40.2859 87.4517 40.3409 86.6908 39.5789C85.9298 38.8169 85.548 38.275 82.452 38.3273C79.356 38.3796 75.2244 36.696 74.3014 36.0964C73.3783 35.4967 72.0735 35.9341 71.2026 35.5957C70.3318 35.2574 68.1067 35.5544 66.7468 35.5957C65.387 35.637 65.2799 34.2478 65.8238 32.6688C66.3677 31.0898 70.4939 30.1133 71.0433 30.4379C71.5927 30.7625 73.7602 29.8409 73.7602 29.8409C73.4333 28.6966 73.5432 25.921 73.5432 25.921C73.5432 25.921 71.2603 24.9417 70.3922 24.6171C69.7234 24.4151 69.0225 24.3413 68.3264 24.3998C68.3264 24.3998 68.6011 23.1509 69.0324 22.686C69.4637 22.2211 71.5323 21.7864 73.5432 20.3725C75.554 18.9586 76.804 18.6312 77.1144 18.7385C77.4248 18.8458 79.6692 19.5005 80.268 19.5005C80.7213 19.5005 81.3339 19.1869 81.985 19.1071C81.4575 19.4015 81.0922 19.9626 81.1911 20.2625C81.3477 20.7356 81.7899 21.9405 81.8147 22.0175C81.6965 21.902 78.8478 19.0851 77.0072 19.2309C75.4167 19.3547 73.8014 22.0368 74.0733 24.0064C74.3453 25.976 73.686 25.976 74.0431 27.4449C74.4002 28.9139 74.7244 30.9825 74.1805 31.7995C73.6366 32.6165 72.5515 31.1641 72.5515 31.1641C72.144 31.388 71.8026 31.7153 71.5615 32.1132C71.3204 32.5111 71.1881 32.9655 71.1779 33.4308C71.1779 35.0098 72.8262 35.1171 73.7986 35.2821C74.7711 35.4472 78.3588 37.414 80.8092 37.5186L83.2596 37.6203C83.2596 37.6203 81.8449 35.6947 82.4355 35.5957C83.0261 35.4967 84.8255 35.6727 86.0067 37.5213C87.188 39.3699 88.0945 39.7797 90.2839 40.6875C91.5778 41.2074 94.9897 44.8963 97.6819 48.5027Z" fill="#FF7959"/>
<path opacity="0.4" d="M108.54 37.9532C108.208 37.7964 97.5517 32.7678 97.016 32.0169C96.4803 31.2659 95.821 31.0816 95.2222 30.3251C94.6233 29.5686 92.6152 29.079 92.3432 28.0446C92.0712 27.0103 91.7443 23.8716 91.2444 23.4837C90.8334 23.1818 90.3978 22.9149 89.9422 22.686L90.7499 24.7024C90.7499 24.7024 88.9093 22.0918 88.4726 22.0203C88.0358 21.9488 88.9451 23.9184 88.8654 23.8578C88.7857 23.7973 86.7913 21.9322 85.1211 20.5183C85.3193 20.6381 85.5328 20.7306 85.7557 20.7934C86.4644 20.9557 86.6787 21.1042 87.6045 21.1042C88.011 21.1042 89.6703 22.3174 89.6703 22.3174C90.365 22.4502 91.0405 22.6692 91.6812 22.9693C92.7113 23.459 93.7992 25.7999 94.2881 26.5619C94.7771 27.3239 94.8376 29.1725 94.8376 29.1725C94.8376 29.1725 96.1424 29.8794 96.6314 30.8588C96.9254 31.4529 103.351 35.0868 108.54 37.9532Z" fill="#FF7959"/>
<path d="M113.468 62.6503C113.468 62.6503 91.2989 42.7892 89.8868 41.5375C88.4748 40.2859 87.4419 40.3409 86.681 39.5789C85.92 38.817 85.5382 38.275 82.4422 38.3273C79.3462 38.3796 75.2146 36.696 74.2916 36.0964C73.3686 35.4967 72.0637 35.9341 71.1929 35.5957C70.322 35.2574 68.0969 35.5544 66.7371 35.5957C65.3773 35.637 65.2701 34.2478 65.8141 32.6688C66.358 31.0898 70.4841 30.1133 71.0335 30.4379C71.583 30.7625 73.7504 29.8409 73.7504 29.8409C73.4235 28.6966 73.5334 25.921 73.5334 25.921C73.5334 25.921 71.2506 24.9417 70.3825 24.6171C69.7137 24.4151 69.0128 24.3413 68.3167 24.3998C68.3167 24.3998 68.5914 23.1509 69.0227 22.686C69.454 22.2211 71.5225 21.7864 73.5334 20.3725C75.5443 18.9586 76.7942 18.6312 77.1046 18.7385C77.415 18.8458 79.6594 19.5005 80.2583 19.5005C80.8571 19.5005 81.7252 18.9503 82.5933 19.1209C83.4614 19.2914 85.0382 20.6448 85.7442 20.8071C86.4502 20.9694 86.6672 21.118 87.593 21.118C87.9996 21.118 89.6588 22.3311 89.6588 22.3311C90.3536 22.464 91.0291 22.683 91.6697 22.9831C92.6999 23.4727 93.7877 25.8137 94.2767 26.5757C94.7657 27.3377 94.8261 29.1862 94.8261 29.1862C94.8261 29.1862 96.131 29.8932 96.62 30.8725C97.109 31.8518 115.116 41.5375 115.116 41.5375" stroke="#1F2A37" stroke-linecap="round" stroke-linejoin="round"/>
<path d="M73.541 25.9209C73.541 25.9209 73.7937 23.7807 73.541 23.4836" stroke="#1F2A37" stroke-linecap="round" stroke-linejoin="round"/>
<path d="M80.2422 20.6807C80.2422 20.6807 83.9398 23.8139 84.2282 24.0064" stroke="#1F2A37" stroke-linecap="round" stroke-linejoin="round"/>
<path d="M83.7129 19.627C84.2211 19.9433 88.3198 23.5827 89.6603 24.4162" stroke="#1F2A37" stroke-linecap="round" stroke-linejoin="round"/>
<path d="M94.8428 29.178C94.4444 28.9442 93.3923 28.4353 93.2852 28.0364" stroke="#1F2A37" stroke-linecap="round" stroke-linejoin="round"/>
<path d="M73.7578 29.8408C73.7578 29.8408 73.9748 30.7293 73.7578 31.164" stroke="#1F2A37" stroke-linecap="round" stroke-linejoin="round"/>
<path d="M70.4968 32.6523C70.4968 32.6523 69.9913 34.0663 71.1863 35.0098" stroke="#1F2A37" stroke-linecap="round" stroke-linejoin="round"/>
<path d="M75.4264 19.231C75.0454 19.6307 74.7928 20.1357 74.7012 20.6807" stroke="#1F2A37" stroke-linecap="round" stroke-linejoin="round"/>
<path d="M69.7891 23.4836C69.9091 23.8113 70.0969 24.1098 70.3403 24.3597C70.5836 24.6095 70.877 24.805 71.2011 24.9333" stroke="#1F2A37" stroke-linecap="round" stroke-linejoin="round"/>
<path d="M86.0369 38.9738C85.3307 37.9482 84.5541 36.973 83.7129 36.0552" stroke="#1F2A37" stroke-linecap="round" stroke-linejoin="round"/>
<path d="M10.0352 111.514C10.0352 111.514 27.7814 99.8336 28.8665 98.3261C29.4235 97.5132 30.0806 96.7738 30.8224 96.1255C30.8224 96.1255 31.3306 91.7709 32.6355 89.5234C33.9404 87.276 34.4458 85.6035 35.0255 84.4426C35.6051 83.2818 38.3577 82.4125 39.1461 81.9669C39.9345 81.5212 41.3218 80.6602 42.1185 80.6602C42.7268 80.7088 43.3187 80.882 43.8574 81.1691C43.8574 81.1691 46.5386 79.7937 47.7693 80.6602C47.7693 80.6602 50.813 80.806 51.5355 80.7317C52.258 80.6574 53.3486 81.1691 53.3486 81.1691C53.3486 81.1691 55.1589 79.8652 56.3896 80.3714C57.6203 80.8775 58.2082 81.0948 58.2412 81.8211C58.2741 82.5473 57.9362 85.012 57.9362 85.012H57.3319C57.3319 85.012 55.3045 87.6556 55.0875 88.1838C54.8705 88.7119 53.714 91.6141 53.714 91.6141C53.714 91.6141 55.2331 90.4532 56.1863 89.584C57.1396 88.7147 58.7961 87.0449 60.535 86.6103C62.2739 86.1757 63.5046 87.1467 63.5046 88.1838C63.5046 88.1838 61.4773 89.8013 61.0322 90.3102C60.5872 90.8191 59.8125 92.123 58.9389 93.061C58.0654 93.9991 56.0517 97.9493 54.2991 99.8336C52.5464 101.718 44.959 105.781 43.2118 106.361C43.2118 106.361 32.6355 113.761 27.9984 120C27.9984 120 15.3947 120.074 10.0352 111.514Z" fill="white"/>
<path opacity="0.4" d="M44.4461 104.766C44.5972 104.92 45.2153 105.013 46.0943 105.041C45.1638 105.542 44.2042 105.986 43.2209 106.372C43.2209 106.372 36.3037 111.211 31.2051 116.363C32.9605 113.566 36.3312 110.075 37.5838 109.349C39.3282 108.331 42.6797 105.047 42.6797 105.047C42.6797 105.047 43.9434 104.257 44.4461 104.766Z" fill="#FF7959"/>
<path opacity="0.4" d="M56.1817 89.6032C56.9236 88.8729 57.7188 88.1989 58.5607 87.5868C57.6665 88.5694 56.939 89.6919 56.4069 90.9099C56.0718 92.7337 52.9291 96.4941 52.9291 96.4941C53.9428 93.2316 53.072 92.5769 53.3577 91.6333C53.6434 90.6898 53.8274 88.3763 53.8274 88.3763C53.8274 88.3763 54.3768 87.4273 54.9565 87.21C55.5361 86.9927 57.058 83.147 57.341 82.6271C57.6239 82.1071 55.4647 81.2516 54.8851 81.1884C54.3054 81.1251 54.0884 82.1291 52.9291 82.6271C51.7698 83.125 50.3139 84.0382 49.7782 84.5719C49.2425 85.1056 48.3113 87.4658 48.2508 87.6116C48.292 87.4465 48.9486 84.7975 49.1189 84.2693C49.2617 83.8292 50.6545 83.0177 51.171 82.7288C50.3139 83.1277 49.8331 82.3712 49.1189 81.6835C48.3525 80.9463 47.2097 80.7125 45.9597 81.0948C44.7098 81.4772 43.8719 82.4207 43.8665 82.3492C43.861 82.2777 41.9984 81.9503 41.3941 82.1291C40.7897 82.308 39.3942 82.9407 39.3942 82.9407C39.3942 82.9407 38.125 82.2089 36.04 84.2693C35.1691 85.1303 32.271 91.6966 32.705 90.9099C33.139 90.1231 35.0318 87.7739 35.1499 87.6281C35.0236 87.9362 31.1804 96.5739 30.3947 97.124C29.609 97.6742 29.381 99.6218 26.5488 101.22C23.8621 102.736 13.5001 109.258 12.4727 109.904C17.3872 106.634 28.0322 99.4843 28.8563 98.3261C29.4133 97.5132 30.0705 96.7738 30.8123 96.1255C30.8123 96.1255 31.3205 91.7709 32.6253 89.5234C33.9302 87.276 34.4357 85.6035 35.0153 84.4426C35.595 83.2818 38.3475 82.4125 39.136 81.9669C39.9244 81.5212 41.3117 80.6602 42.1083 80.6602C42.7166 80.7088 43.3085 80.882 43.8472 81.1691C43.8472 81.1691 46.5284 79.7937 47.7591 80.6602C47.7591 80.6602 50.8029 80.806 51.5254 80.7317C52.2478 80.6574 53.3384 81.1691 53.3384 81.1691C53.3384 81.1691 55.1488 79.8652 56.3795 80.3714C57.6102 80.8775 58.198 81.0948 58.231 81.8211C58.264 82.5473 57.9261 85.012 57.9261 85.012H57.3217C57.3217 85.012 55.2944 87.6556 55.0773 88.1838C54.8603 88.7119 53.7038 91.6141 53.7038 91.6141C53.7038 91.6141 55.2284 90.4725 56.1817 89.6032Z" fill="#FF7959"/>
<path opacity="0.4" d="M63.499 88.2032C63.499 88.2032 61.4716 89.8206 61.0266 90.3296C60.7656 90.6349 60.3783 91.2291 59.9277 91.859C60.1539 91.1237 60.3094 90.3683 60.392 89.6033C60.8193 88.9792 61.4256 88.4996 62.1309 88.2279C62.5763 88.0966 63.0444 88.061 63.5045 88.1234C63.5052 88.1501 63.5033 88.1768 63.499 88.2032Z" fill="#FF7959"/>
<path d="M10.0352 111.514C10.0352 111.514 27.7814 99.8336 28.8665 98.3261C29.4235 97.5132 30.0806 96.7738 30.8224 96.1255C30.8224 96.1255 31.3306 91.7709 32.6355 89.5234C33.9404 87.276 34.4458 85.6035 35.0255 84.4426C35.6051 83.2818 38.3577 82.4125 39.1461 81.9669C39.9345 81.5212 41.3218 80.6602 42.1185 80.6602C42.7268 80.7088 43.3187 80.882 43.8574 81.1691C43.8574 81.1691 46.5386 79.7937 47.7693 80.6602C47.7693 80.6602 50.813 80.806 51.5355 80.7317C52.258 80.6574 53.3486 81.1691 53.3486 81.1691C53.3486 81.1691 55.1589 79.8652 56.3896 80.3714C57.6203 80.8775 58.2082 81.0948 58.2412 81.8211C58.2741 82.5473 57.9362 85.012 57.9362 85.012H57.3319C57.3319 85.012 55.3045 87.6556 55.0875 88.1838C54.8705 88.7119 53.714 91.6141 53.714 91.6141C53.714 91.6141 55.2331 90.4532 56.1863 89.584C57.1396 88.7147 58.7961 87.0449 60.535 86.6103C62.2739 86.1756 63.5046 87.1467 63.5046 88.1838C63.5046 88.1838 61.4773 89.8013 61.0322 90.3102C60.5872 90.8191 59.8125 92.123 58.9389 93.061C58.0654 93.9991 56.0517 97.9493 54.2991 99.8336C52.5464 101.718 44.959 105.781 43.2118 106.361C43.2118 106.361 32.6355 113.761 27.9984 120" stroke="#1F2A37" stroke-linecap="round" stroke-linejoin="round"/>
<path d="M53.72 91.6223C53.72 91.6223 54.154 93.801 53.2832 95.7486" stroke="#1F2A37" stroke-linecap="round" stroke-linejoin="round"/>
<path d="M50.8926 82.8555C51.8031 82.4405 52.6386 81.8772 53.365 81.1885" stroke="#1F2A37" stroke-linecap="round" stroke-linejoin="round"/>
<path d="M57.3398 85.0202C57.5737 84.5402 57.7331 84.0272 57.8123 83.499" stroke="#1F2A37" stroke-linecap="round" stroke-linejoin="round"/>
<path d="M47.778 80.6794C46.8968 80.6599 46.037 80.9521 45.3496 81.5046" stroke="#1F2A37" stroke-linecap="round" stroke-linejoin="round"/>
<path d="M43.8658 81.1885C43.8658 81.1885 41.6928 82.2035 40.9319 82.2035C40.1709 82.2035 38.9375 83.2186 38.9375 83.5102" stroke="#1F2A37" stroke-linecap="round" stroke-linejoin="round"/>
<path d="M30.8223 96.1338C31.464 95.1459 31.9877 94.086 32.3826 92.9758" stroke="#1F2A37" stroke-linecap="round" stroke-linejoin="round"/>
<path d="M51.3626 83.51C51.3626 83.51 49.989 83.8704 49.5165 85.0312C49.044 86.1921 46.8711 90.2193 46.8711 90.2193" stroke="#1F2A37" stroke-linecap="round" stroke-linejoin="round"/>
<path d="M44.4446 82.8555C44.1534 83.5459 40.8926 89.6033 40.8926 89.6033" stroke="#1F2A37" stroke-linecap="round" stroke-linejoin="round"/>
<path d="M49.366 76.05C49.176 76.05 48.9977 76.0333 48.831 76C48.6643 75.9667 48.5193 75.92 48.396 75.86V75.2C48.5293 75.2633 48.6743 75.3167 48.831 75.36C48.991 75.4 49.141 75.42 49.281 75.42C49.4343 75.42 49.551 75.3967 49.631 75.35C49.711 75.3 49.751 75.2267 49.751 75.13C49.751 75.06 49.7243 75.0033 49.671 74.96C49.6177 74.9133 49.5293 74.8667 49.406 74.82C49.366 74.8033 49.2727 74.7717 49.126 74.725C48.9293 74.6583 48.776 74.5867 48.666 74.51C48.556 74.43 48.476 74.335 48.426 74.225C48.3793 74.115 48.356 73.975 48.356 73.805C48.356 73.5083 48.4527 73.2833 48.646 73.13C48.8427 72.9733 49.136 72.895 49.526 72.895C49.666 72.895 49.821 72.9083 49.991 72.935C50.161 72.9617 50.2993 72.9933 50.406 73.03V73.695C50.156 73.5817 49.9077 73.525 49.661 73.525C49.4943 73.525 49.3693 73.5483 49.286 73.595C49.2027 73.6383 49.161 73.7067 49.161 73.8C49.161 73.85 49.1743 73.8933 49.201 73.93C49.231 73.9633 49.2793 73.995 49.346 74.025C49.416 74.0517 49.506 74.08 49.616 74.11C49.6293 74.1167 49.6427 74.1233 49.656 74.13C49.6727 74.1333 49.691 74.1367 49.711 74.14C49.9377 74.2 50.1127 74.275 50.236 74.365C50.3593 74.455 50.4443 74.56 50.491 74.68C50.5377 74.8 50.561 74.95 50.561 75.13C50.561 75.42 50.4593 75.6467 50.256 75.81C50.0527 75.97 49.756 76.05 49.366 76.05ZM52.659 75.365V76H50.524V72.94H52.659V73.575H51.319V74.145H52.489V74.8H51.319V75.365H52.659ZM53.5479 75.325L53.3129 76H52.4879L53.5729 72.94H54.4129L55.5029 76H54.6779L54.4379 75.325H53.5479ZM54.3379 74.72L53.9929 73.78L53.6429 74.72H54.3379ZM56.2565 75.08V76H55.4615V72.94H56.9215C57.2515 72.94 57.4999 73.0383 57.6665 73.235C57.8332 73.4283 57.9165 73.6867 57.9165 74.01C57.9165 74.2233 57.8682 74.4067 57.7715 74.56C57.6749 74.7133 57.5432 74.8333 57.3765 74.92C57.4165 74.9433 57.4482 74.9717 57.4715 75.005C57.4949 75.035 57.5165 75.075 57.5365 75.125L57.8865 76H57.0615L56.7565 75.245C56.7399 75.2017 56.7215 75.1683 56.7015 75.145C56.6849 75.1217 56.6599 75.105 56.6265 75.095C56.5965 75.085 56.5549 75.08 56.5015 75.08H56.2565ZM56.7515 73.63H56.2565V74.395H56.7165C56.8465 74.395 56.9465 74.3633 57.0165 74.3C57.0865 74.2367 57.1215 74.14 57.1215 74.01C57.1215 73.88 57.0899 73.785 57.0265 73.725C56.9632 73.6617 56.8715 73.63 56.7515 73.63ZM59.2931 76.05C58.7764 76.05 58.3864 75.9167 58.1231 75.65C57.8598 75.3833 57.7281 75 57.7281 74.5C57.7281 73.9767 57.8564 73.5783 58.1131 73.305C58.3698 73.0317 58.7598 72.895 59.2831 72.895C59.4564 72.895 59.6114 72.9083 59.7481 72.935C59.8881 72.9583 60.0231 72.9967 60.1531 73.05V73.81C59.8931 73.69 59.6214 73.63 59.3381 73.63C59.0648 73.63 58.8614 73.7017 58.7281 73.845C58.5981 73.985 58.5331 74.2033 58.5331 74.5C58.5331 74.7767 58.6014 74.9817 58.7381 75.115C58.8781 75.245 59.0814 75.31 59.3481 75.31C59.4848 75.31 59.6214 75.295 59.7581 75.265C59.8981 75.235 60.0314 75.19 60.1581 75.13V75.895C60.0181 75.945 59.8798 75.9833 59.7431 76.01C59.6064 76.0367 59.4564 76.05 59.2931 76.05ZM60.9157 74.87V76H60.1207V72.94H60.9157V74.065H61.9307V72.94H62.7157V76H61.9307V74.87H60.9157Z" fill="#1F2A37"/>
</svg>