<svg width="182" height="171" viewBox="0 0 182 171" fill="none" xmlns="http://www.w3.org/2000/svg">
<rect width="182" height="171" fill="#FBFBFB"/>
<g id="Mission, MH End Load Scan Popup" clip-path="url(#clip0_2716_28987)">
<rect width="390" height="844" transform="translate(-104 -444)" fill="#F9F5F2"/>
<g id="Content" clip-path="url(#clip1_2716_28987)">
<g id="Mission">
<rect x="-80" y="-60" width="342" height="71" rx="16" fill="white"/>
</g>
<g id="Mission_2">
<rect x="-80" y="19" width="342" height="71" rx="16" fill="white"/>
<g id="Content_2">
<g id="Content_3">
<path id="&#216;&#168;&#216;&#167;&#217;&#134;&#216;&#175;&#217;&#132; &#219;&#177;&#219;&#183;&#219;&#176;&#219;&#185;&#219;&#180;&#219;&#180;" d="M166.259 41.36C166.259 40.4453 166.208 39.6567 166.105 38.994C166.012 38.3313 165.83 37.5287 165.559 36.586L166.959 36.096C167.258 37.0387 167.454 37.8693 167.547 38.588C167.65 39.2973 167.701 40.2167 167.701 41.346V45H166.259V41.36ZM172.475 45C172.204 43.376 171.835 41.934 171.369 40.674C170.911 39.414 170.295 38.1493 169.521 36.88L170.725 36.026C171.35 37.0527 171.868 38.098 172.279 39.162C172.699 40.2167 173.007 41.2947 173.203 42.396C173.399 41.2387 173.688 40.1327 174.071 39.078C174.453 38.0233 174.948 37.006 175.555 36.026L176.815 36.88C176.077 38.0467 175.48 39.2647 175.023 40.534C174.565 41.794 174.178 43.2827 173.861 45H172.475ZM181.285 38.07C181.752 38.07 182.2 38.2053 182.629 38.476C183.068 38.7373 183.418 39.0827 183.679 39.512C183.941 39.9413 184.071 40.3847 184.071 40.842C184.071 41.3087 183.941 41.7567 183.679 42.186C183.418 42.6153 183.068 42.9653 182.629 43.236C182.2 43.4973 181.752 43.628 181.285 43.628C180.819 43.628 180.371 43.4973 179.941 43.236C179.512 42.9653 179.162 42.6153 178.891 42.186C178.63 41.7567 178.499 41.3087 178.499 40.842C178.499 40.3847 178.63 39.9413 178.891 39.512C179.162 39.0827 179.512 38.7373 179.941 38.476C180.371 38.2053 180.819 38.07 181.285 38.07ZM181.285 42.242C181.509 42.242 181.729 42.172 181.943 42.032C182.167 41.892 182.345 41.7193 182.475 41.514C182.615 41.2993 182.685 41.0753 182.685 40.842C182.685 40.618 182.615 40.3987 182.475 40.184C182.345 39.9693 182.172 39.7967 181.957 39.666C181.743 39.5353 181.519 39.47 181.285 39.47C181.061 39.47 180.842 39.5353 180.627 39.666C180.413 39.7967 180.235 39.974 180.095 40.198C179.955 40.4127 179.885 40.6273 179.885 40.842C179.885 41.0753 179.955 41.2993 180.095 41.514C180.235 41.7193 180.413 41.892 180.627 42.032C180.842 42.172 181.061 42.242 181.285 42.242ZM189.977 41.29C189.557 41.4673 189.044 41.556 188.437 41.556C187.681 41.556 187.088 41.346 186.659 40.926C186.239 40.506 186.029 39.9273 186.029 39.19C186.029 38.6487 186.146 38.14 186.379 37.664C186.612 37.188 186.934 36.81 187.345 36.53C187.765 36.2407 188.236 36.096 188.759 36.096C189.618 36.096 190.276 36.4227 190.733 37.076C191.19 37.7293 191.419 38.672 191.419 39.904V45H189.977V41.29ZM189.977 39.778C189.977 39.022 189.87 38.462 189.655 38.098C189.45 37.734 189.128 37.552 188.689 37.552C188.456 37.552 188.246 37.6173 188.059 37.748C187.882 37.8787 187.737 38.0607 187.625 38.294C187.522 38.5273 187.471 38.784 187.471 39.064C187.471 39.3907 187.569 39.638 187.765 39.806C187.961 39.9647 188.241 40.044 188.605 40.044C188.885 40.044 189.137 40.0253 189.361 39.988C189.594 39.9413 189.8 39.8713 189.977 39.778ZM196.171 39.792C196.077 39.6427 196.003 39.4607 195.947 39.246C195.891 39.0313 195.863 38.812 195.863 38.588C195.863 38.14 195.979 37.7247 196.213 37.342C196.455 36.9593 196.777 36.656 197.179 36.432C197.589 36.208 198.042 36.096 198.537 36.096C199.115 36.096 199.713 36.236 200.329 36.516L199.951 37.846C199.68 37.7433 199.433 37.6687 199.209 37.622C198.994 37.5753 198.789 37.552 198.593 37.552C198.341 37.552 198.117 37.608 197.921 37.72C197.725 37.8227 197.571 37.9673 197.459 38.154C197.356 38.3407 197.305 38.5413 197.305 38.756C197.305 38.9987 197.351 39.2133 197.445 39.4C197.538 39.5867 197.664 39.7313 197.823 39.834C197.981 39.9273 198.154 39.974 198.341 39.974C198.621 39.974 198.933 39.932 199.279 39.848C199.624 39.7547 199.988 39.6287 200.371 39.47L200.735 40.8C199.755 41.2573 198.775 41.486 197.795 41.486C197.272 41.486 196.801 41.4347 196.381 41.332C195.961 41.22 195.629 41.0707 195.387 40.884C195.387 40.9773 195.387 41.0753 195.387 41.178C195.387 41.2807 195.387 41.3973 195.387 41.528V45H193.945V41.36C193.945 40.4453 193.893 39.6567 193.791 38.994C193.697 38.3313 193.515 37.5287 193.245 36.586L194.631 36.096C194.743 36.488 194.887 37.0853 195.065 37.888C195.102 38.056 195.135 38.2287 195.163 38.406C195.2 38.5833 195.233 38.7513 195.261 38.91C195.298 39.134 195.382 39.316 195.513 39.456C195.643 39.596 195.863 39.708 196.171 39.792ZM205.344 39.792C205.251 39.6427 205.176 39.4607 205.12 39.246C205.064 39.0313 205.036 38.812 205.036 38.588C205.036 38.14 205.153 37.7247 205.386 37.342C205.629 36.9593 205.951 36.656 206.352 36.432C206.763 36.208 207.216 36.096 207.71 36.096C208.289 36.096 208.886 36.236 209.502 36.516L209.124 37.846C208.854 37.7433 208.606 37.6687 208.382 37.622C208.168 37.5753 207.962 37.552 207.766 37.552C207.514 37.552 207.29 37.608 207.094 37.72C206.898 37.8227 206.744 37.9673 206.632 38.154C206.53 38.3407 206.478 38.5413 206.478 38.756C206.478 38.9987 206.525 39.2133 206.618 39.4C206.712 39.5867 206.838 39.7313 206.996 39.834C207.155 39.9273 207.328 39.974 207.514 39.974C207.794 39.974 208.107 39.932 208.452 39.848C208.798 39.7547 209.162 39.6287 209.544 39.47L209.908 40.8C208.928 41.2573 207.948 41.486 206.968 41.486C206.446 41.486 205.974 41.4347 205.554 41.332C205.134 41.22 204.803 41.0707 204.56 40.884C204.56 40.9773 204.56 41.0753 204.56 41.178C204.56 41.2807 204.56 41.3973 204.56 41.528V45H203.118V41.36C203.118 40.4453 203.067 39.6567 202.964 38.994C202.871 38.3313 202.689 37.5287 202.418 36.586L203.804 36.096C203.916 36.488 204.061 37.0853 204.238 37.888C204.276 38.056 204.308 38.2287 204.336 38.406C204.374 38.5833 204.406 38.7513 204.434 38.91C204.472 39.134 204.556 39.316 204.686 39.456C204.817 39.596 205.036 39.708 205.344 39.792ZM218.878 48.388C217.683 48.388 216.764 48.0427 216.12 47.352C215.476 46.6707 215.154 45.7093 215.154 44.468V41.752H216.596V44.44C216.596 45.2427 216.782 45.8493 217.156 46.26C217.538 46.6707 218.117 46.876 218.892 46.876H219.466C219.96 46.876 220.39 46.7827 220.754 46.596C221.118 46.4187 221.393 46.1527 221.58 45.798C221.776 45.4527 221.874 45.042 221.874 44.566V35.956H223.33V44.44C223.33 45.2613 223.166 45.966 222.84 46.554C222.522 47.1513 222.07 47.604 221.482 47.912C220.894 48.2293 220.222 48.388 219.466 48.388H218.878ZM228.47 43.488C228.759 43.488 228.988 43.4273 229.156 43.306C229.333 43.1847 229.422 43.0307 229.422 42.844C229.422 42.6853 229.356 42.4193 229.226 42.046C229.104 41.6727 228.773 40.7673 228.232 39.33C228.064 38.8913 227.956 38.6067 227.91 38.476L229.254 37.846L230.878 42.424C231.018 42.816 231.172 43.0913 231.34 43.25C231.508 43.4087 231.736 43.488 232.026 43.488H232.348C232.441 43.488 232.488 43.7493 232.488 44.272C232.488 44.5893 232.474 44.79 232.446 44.874C232.427 44.958 232.394 45 232.348 45H231.97C231.54 45 231.186 44.9347 230.906 44.804C230.626 44.6733 230.402 44.4633 230.234 44.174C230.066 44.4633 229.837 44.6733 229.548 44.804C229.268 44.9347 228.908 45 228.47 45H225.278L225.138 43.488H228.47ZM236.205 42.648C236.205 43.3853 235.986 43.964 235.547 44.384C235.109 44.7947 234.521 45 233.783 45H232.355C232.262 45 232.215 44.7573 232.215 44.272C232.215 43.964 232.229 43.7587 232.257 43.656C232.285 43.544 232.318 43.488 232.355 43.488H233.783C234.073 43.488 234.306 43.4133 234.483 43.264C234.661 43.1053 234.749 42.886 234.749 42.606V40.352H236.205V42.648ZM233.923 38.756V37.384H235.603V38.756H233.923ZM241.114 43.488C241.161 43.488 241.194 43.5393 241.212 43.642C241.24 43.7447 241.254 43.9547 241.254 44.272C241.254 44.58 241.24 44.7807 241.212 44.874C241.194 44.958 241.161 45 241.114 45H240.694C239.948 45 239.383 44.7807 239 44.342C238.618 43.9033 238.426 43.2827 238.426 42.48V35.956H239.868V42.382C239.868 42.7553 239.943 43.0353 240.092 43.222C240.242 43.3993 240.47 43.488 240.778 43.488H241.114ZM244.969 42.648C244.969 43.3853 244.75 43.964 244.311 44.384C243.872 44.7947 243.284 45 242.547 45H241.119C241.026 45 240.979 44.7573 240.979 44.272C240.979 43.964 240.993 43.7587 241.021 43.656C241.049 43.544 241.082 43.488 241.119 43.488H242.547C242.836 43.488 243.07 43.4133 243.247 43.264C243.424 43.1053 243.513 42.886 243.513 42.606V40.352H244.969V42.648ZM241.399 48.01V46.638H243.079V48.01H241.399Z" fill="#111928"/>
</g>
</g>
</g>
<g id="Mission_3" opacity="0.48">
<rect x="-80" y="98" width="342" height="71" rx="16" fill="white"/>
<g id="Content_4">
<g id="Content_5">
<path id="&#216;&#168;&#216;&#167;&#217;&#134;&#216;&#175;&#217;&#132; &#219;&#177;&#219;&#177;&#219;&#185;&#219;&#176;&#219;&#185;&#219;&#176;" d="M174.038 120.36C174.038 119.445 173.987 118.657 173.884 117.994C173.791 117.331 173.609 116.529 173.338 115.586L174.738 115.096C175.037 116.039 175.233 116.869 175.326 117.588C175.429 118.297 175.48 119.217 175.48 120.346V124H174.038V120.36ZM178.14 120.36C178.14 119.445 178.089 118.657 177.986 117.994C177.893 117.331 177.711 116.529 177.44 115.586L178.84 115.096C179.139 116.039 179.335 116.869 179.428 117.588C179.531 118.297 179.582 119.217 179.582 120.346V124H178.14V120.36ZM185.629 120.29C185.209 120.467 184.696 120.556 184.089 120.556C183.333 120.556 182.741 120.346 182.311 119.926C181.891 119.506 181.681 118.927 181.681 118.19C181.681 117.649 181.798 117.14 182.031 116.664C182.265 116.188 182.587 115.81 182.997 115.53C183.417 115.241 183.889 115.096 184.411 115.096C185.27 115.096 185.928 115.423 186.385 116.076C186.843 116.729 187.071 117.672 187.071 118.904V124H185.629V120.29ZM185.629 118.778C185.629 118.022 185.522 117.462 185.307 117.098C185.102 116.734 184.78 116.552 184.341 116.552C184.108 116.552 183.898 116.617 183.711 116.748C183.534 116.879 183.389 117.061 183.277 117.294C183.175 117.527 183.123 117.784 183.123 118.064C183.123 118.391 183.221 118.638 183.417 118.806C183.613 118.965 183.893 119.044 184.257 119.044C184.537 119.044 184.789 119.025 185.013 118.988C185.247 118.941 185.452 118.871 185.629 118.778ZM191.963 117.07C192.43 117.07 192.878 117.205 193.307 117.476C193.746 117.737 194.096 118.083 194.357 118.512C194.618 118.941 194.749 119.385 194.749 119.842C194.749 120.309 194.618 120.757 194.357 121.186C194.096 121.615 193.746 121.965 193.307 122.236C192.878 122.497 192.43 122.628 191.963 122.628C191.496 122.628 191.048 122.497 190.619 122.236C190.19 121.965 189.84 121.615 189.569 121.186C189.308 120.757 189.177 120.309 189.177 119.842C189.177 119.385 189.308 118.941 189.569 118.512C189.84 118.083 190.19 117.737 190.619 117.476C191.048 117.205 191.496 117.07 191.963 117.07ZM191.963 121.242C192.187 121.242 192.406 121.172 192.621 121.032C192.845 120.892 193.022 120.719 193.153 120.514C193.293 120.299 193.363 120.075 193.363 119.842C193.363 119.618 193.293 119.399 193.153 119.184C193.022 118.969 192.85 118.797 192.635 118.666C192.42 118.535 192.196 118.47 191.963 118.47C191.739 118.47 191.52 118.535 191.305 118.666C191.09 118.797 190.913 118.974 190.773 119.198C190.633 119.413 190.563 119.627 190.563 119.842C190.563 120.075 190.633 120.299 190.773 120.514C190.913 120.719 191.09 120.892 191.305 121.032C191.52 121.172 191.739 121.242 191.963 121.242ZM200.655 120.29C200.235 120.467 199.722 120.556 199.115 120.556C198.359 120.556 197.766 120.346 197.337 119.926C196.917 119.506 196.707 118.927 196.707 118.19C196.707 117.649 196.824 117.14 197.057 116.664C197.29 116.188 197.612 115.81 198.023 115.53C198.443 115.241 198.914 115.096 199.437 115.096C200.296 115.096 200.954 115.423 201.411 116.076C201.868 116.729 202.097 117.672 202.097 118.904V124H200.655V120.29ZM200.655 118.778C200.655 118.022 200.548 117.462 200.333 117.098C200.128 116.734 199.806 116.552 199.367 116.552C199.134 116.552 198.924 116.617 198.737 116.748C198.56 116.879 198.415 117.061 198.303 117.294C198.2 117.527 198.149 117.784 198.149 118.064C198.149 118.391 198.247 118.638 198.443 118.806C198.639 118.965 198.919 119.044 199.283 119.044C199.563 119.044 199.815 119.025 200.039 118.988C200.272 118.941 200.478 118.871 200.655 118.778ZM206.988 117.07C207.455 117.07 207.903 117.205 208.332 117.476C208.771 117.737 209.121 118.083 209.382 118.512C209.644 118.941 209.774 119.385 209.774 119.842C209.774 120.309 209.644 120.757 209.382 121.186C209.121 121.615 208.771 121.965 208.332 122.236C207.903 122.497 207.455 122.628 206.988 122.628C206.522 122.628 206.074 122.497 205.644 122.236C205.215 121.965 204.865 121.615 204.594 121.186C204.333 120.757 204.202 120.309 204.202 119.842C204.202 119.385 204.333 118.941 204.594 118.512C204.865 118.083 205.215 117.737 205.644 117.476C206.074 117.205 206.522 117.07 206.988 117.07ZM206.988 121.242C207.212 121.242 207.432 121.172 207.646 121.032C207.87 120.892 208.048 120.719 208.178 120.514C208.318 120.299 208.388 120.075 208.388 119.842C208.388 119.618 208.318 119.399 208.178 119.184C208.048 118.969 207.875 118.797 207.66 118.666C207.446 118.535 207.222 118.47 206.988 118.47C206.764 118.47 206.545 118.535 206.33 118.666C206.116 118.797 205.938 118.974 205.798 119.198C205.658 119.413 205.588 119.627 205.588 119.842C205.588 120.075 205.658 120.299 205.798 120.514C205.938 120.719 206.116 120.892 206.33 121.032C206.545 121.172 206.764 121.242 206.988 121.242ZM218.878 127.388C217.683 127.388 216.764 127.043 216.12 126.352C215.476 125.671 215.154 124.709 215.154 123.468V120.752H216.596V123.44C216.596 124.243 216.782 124.849 217.156 125.26C217.538 125.671 218.117 125.876 218.892 125.876H219.466C219.96 125.876 220.39 125.783 220.754 125.596C221.118 125.419 221.393 125.153 221.58 124.798C221.776 124.453 221.874 124.042 221.874 123.566V114.956H223.33V123.44C223.33 124.261 223.166 124.966 222.84 125.554C222.522 126.151 222.07 126.604 221.482 126.912C220.894 127.229 220.222 127.388 219.466 127.388H218.878ZM228.47 122.488C228.759 122.488 228.988 122.427 229.156 122.306C229.333 122.185 229.422 122.031 229.422 121.844C229.422 121.685 229.356 121.419 229.226 121.046C229.104 120.673 228.773 119.767 228.232 118.33C228.064 117.891 227.956 117.607 227.91 117.476L229.254 116.846L230.878 121.424C231.018 121.816 231.172 122.091 231.34 122.25C231.508 122.409 231.736 122.488 232.026 122.488H232.348C232.441 122.488 232.488 122.749 232.488 123.272C232.488 123.589 232.474 123.79 232.446 123.874C232.427 123.958 232.394 124 232.348 124H231.97C231.54 124 231.186 123.935 230.906 123.804C230.626 123.673 230.402 123.463 230.234 123.174C230.066 123.463 229.837 123.673 229.548 123.804C229.268 123.935 228.908 124 228.47 124H225.278L225.138 122.488H228.47ZM236.205 121.648C236.205 122.385 235.986 122.964 235.547 123.384C235.109 123.795 234.521 124 233.783 124H232.355C232.262 124 232.215 123.757 232.215 123.272C232.215 122.964 232.229 122.759 232.257 122.656C232.285 122.544 232.318 122.488 232.355 122.488H233.783C234.073 122.488 234.306 122.413 234.483 122.264C234.661 122.105 234.749 121.886 234.749 121.606V119.352H236.205V121.648ZM233.923 117.756V116.384H235.603V117.756H233.923ZM241.114 122.488C241.161 122.488 241.194 122.539 241.212 122.642C241.24 122.745 241.254 122.955 241.254 123.272C241.254 123.58 241.24 123.781 241.212 123.874C241.194 123.958 241.161 124 241.114 124H240.694C239.948 124 239.383 123.781 239 123.342C238.618 122.903 238.426 122.283 238.426 121.48V114.956H239.868V121.382C239.868 121.755 239.943 122.035 240.092 122.222C240.242 122.399 240.47 122.488 240.778 122.488H241.114ZM244.969 121.648C244.969 122.385 244.75 122.964 244.311 123.384C243.872 123.795 243.284 124 242.547 124H241.119C241.026 124 240.979 123.757 240.979 123.272C240.979 122.964 240.993 122.759 241.021 122.656C241.049 122.544 241.082 122.488 241.119 122.488H242.547C242.836 122.488 243.07 122.413 243.247 122.264C243.424 122.105 243.513 121.886 243.513 121.606V119.352H244.969V121.648ZM241.399 127.01V125.638H243.079V127.01H241.399Z" fill="#111928"/>
</g>
</g>
</g>
</g>
<g id="End Load Pop-up">
<g id="Pop-up End Load">
<rect width="390" height="844" transform="translate(-104 -444)" fill="black" fill-opacity="0.35"/>
<g id="Pop Up">
<rect x="-88" y="-23.4172" width="358" height="407.417" rx="16" fill="white"/>
<g id="End Load:Unload 1">
<g id="freepik--background-complete--inject-33">
<path id="Vector" d="M106.607 113.144C106.479 113.144 106.351 113.144 106.218 113.144C106.347 113.127 106.478 113.127 106.607 113.144Z" fill="#EBEBEB"/>
<path id="Vector_2" d="M88.6491 19.4839V171H87.4795L75.6386 170.979H75.566L52.708 170.94H52.2043L44.9051 170.932L43.5306 170.928H43.4538L23.6179 170.893L20.6 170.881L20.092 170.876L10.1848 170.829V19.4839H88.6491Z" fill="#EBEBEB"/>
<path id="Vector_3" d="M43.4922 29.8521L37.704 29.7923H31.9201L20.3438 29.7539H19.917V30.1808L19.9853 48.6337V48.9794H20.3268L31.9842 48.8343L43.4751 48.6337L31.822 48.433L20.6683 48.2922V48.6337L20.3268 48.2879H20.6683L20.7408 30.5863H20.314L20.7408 30.1594V30.5863L31.9031 30.5479L37.6869 30.5222L43.1848 30.4668V30.1765L43.4793 30.4625H43.1891L43.2403 34.731L43.3086 39.3154L43.4793 48.6166L43.6458 39.4563L43.7141 34.8207L43.7696 30.1637V29.8734L43.4922 29.8521Z" fill="#DBDBDB"/>
<path id="Vector_4" d="M75.8435 34.8037L75.899 30.1467V29.8565H75.6002L69.8163 29.7967H64.0239L52.4519 29.7583H52.025V30.1852L52.0976 48.6381V48.9838H52.4348L64.0922 48.8387L75.5831 48.6381L63.9257 48.4374L52.7806 48.2966V48.6381L52.4348 48.2923H52.7806L52.8489 30.5907H52.422L52.8489 30.1638V30.5907L64.0068 30.5522L69.7992 30.5266L75.2971 30.4711V30.1809L75.5874 30.4669H75.3014L75.3483 34.7354L75.4209 39.3198L75.5874 48.621L75.7538 39.4607L75.8264 34.8251" fill="#DBDBDB"/>
<path id="Vector_5" d="M43.4922 58.5582L20.3438 58.5112H19.917V58.9381L19.9639 85.4415C19.9639 89.858 19.9824 94.2759 20.0194 98.6953L20.1133 111.949V112.18H20.3396L31.9628 112.073L43.4879 111.953L31.8646 111.83L20.5701 111.727V111.949L20.3396 111.719H20.5701L20.6469 98.6867C20.6754 94.2674 20.6939 89.8494 20.7024 85.4329L20.7536 59.3436H20.3268L20.7536 58.9167V59.3436L43.1208 59.3009V58.9295L43.4879 59.3009H43.1293C43.1293 63.5695 43.1293 67.838 43.172 72.1065L43.2659 85.339L43.4964 111.945L43.7226 85.5354L43.8208 72.2431C43.8592 67.8124 43.8507 63.3688 43.8635 58.9295V58.5625L43.4922 58.5582Z" fill="#DBDBDB"/>
<path id="Vector_6" d="M75.6044 58.5582L52.4561 58.5112H52.0292V58.9381L52.0847 85.4415C52.0847 89.8594 52.1103 94.2774 52.1359 98.6953L52.217 111.953V112.184H52.4433L64.0665 112.077L75.5916 111.958L63.9683 111.834L52.6738 111.731V111.949L52.4433 111.719H52.6738L52.7506 98.6867C52.7848 94.2674 52.8033 89.8494 52.8061 85.4329L52.8573 59.3436H52.4305L52.8573 58.9167V59.3436L75.2202 59.3009V58.9295L75.5916 59.3009H75.2202C75.2202 63.5695 75.2202 67.838 75.2672 72.1065L75.3611 85.339L75.5916 111.945L75.8221 85.5354L75.9117 72.2431C75.9544 67.8124 75.9459 63.3688 75.9587 58.9295V58.5625L75.6044 58.5582Z" fill="#DBDBDB"/>
<path id="Vector_7" d="M43.4922 121.895L20.3438 121.852H19.917V122.279L19.9639 148.787C19.9639 153.206 19.9824 157.624 20.0194 162.04L20.0792 170.71V170.876H20.5872V170.701L20.6341 162.023C20.6626 157.607 20.6811 153.189 20.6896 148.769L20.7408 122.676H20.314L20.7408 122.249V122.676L43.1293 122.62V122.253L43.4964 122.62H43.1293C43.1293 126.889 43.1293 131.157 43.172 135.426L43.2659 148.658L43.4537 170.637V170.906H43.5306V170.637L43.7141 148.846L43.8123 135.558C43.8507 131.123 43.8422 126.684 43.855 122.245V121.873L43.4922 121.895Z" fill="#DBDBDB"/>
<path id="Vector_8" d="M75.6044 121.895L52.4561 121.852H52.0292V122.279L52.0847 148.787C52.0847 153.204 52.1103 157.622 52.1359 162.04L52.1872 170.659V170.953H52.6909V170.659L52.7421 162.04C52.7762 157.624 52.7947 153.206 52.7976 148.787L52.8488 122.693H52.4219L52.8488 122.266V122.693L75.2117 122.646V122.279L75.583 122.646H75.2117C75.2117 126.915 75.2117 131.183 75.2586 135.452L75.3525 148.684L75.5404 170.612V170.983H75.6129V170.612L75.805 148.872L75.8946 135.584C75.9373 131.149 75.9288 126.71 75.9416 122.27V121.899L75.6044 121.895Z" fill="#DBDBDB"/>
<path id="Vector_9" d="M95.6666 12.2659V170.987L88.6491 171V19.484H10.1848V170.829L3.17154 170.8V12.2659H95.6666Z" fill="#DBDBDB"/>
<path id="Vector_10" d="M85.8532 111.94H78.7375V131.426H85.8532V111.94Z" fill="#DBDBDB"/>
<path id="Vector_11" d="M85.1659 115.334C85.1508 115.899 84.9696 116.446 84.6449 116.909C84.3202 117.371 83.8664 117.727 83.3404 117.933C82.8143 118.138 82.2393 118.184 81.6872 118.065C81.1351 117.946 80.6304 117.666 80.2363 117.262C79.8422 116.857 79.5761 116.345 79.4713 115.79C79.3666 115.235 79.4278 114.661 79.6473 114.141C79.8668 113.62 80.2349 113.176 80.7055 112.864C81.1761 112.551 81.7284 112.385 82.2932 112.385C82.6755 112.39 83.0531 112.47 83.4044 112.621C83.7557 112.772 84.0738 112.99 84.3405 113.264C84.6073 113.538 84.8175 113.862 84.9591 114.217C85.1007 114.572 85.171 114.952 85.1659 115.334Z" fill="#C7C7C7"/>
<path id="Vector_12" d="M166.541 0.582764H151.909V6.76788H166.541V0.582764Z" fill="#EBEBEB"/>
<path id="Vector_13" d="M158.376 8.38135H143.743V14.5665H158.376V8.38135Z" fill="#EBEBEB"/>
<path id="Vector_14" d="M174.703 8.38135H160.07V14.5665H174.703V8.38135Z" fill="#EBEBEB"/>
<path id="Vector_15" d="M120.851 64.3718H106.218V70.5569H120.851V64.3718Z" fill="#EBEBEB"/>
<path id="Vector_16" d="M14.6326 0.591309H0V6.77643H14.6326V0.591309Z" fill="#EBEBEB"/>
<path id="Vector_17" d="M151.905 141.624H166.537V135.439H151.905V141.624Z" fill="#EBEBEB"/>
<path id="Vector_18" d="M160.07 133.825H174.703V127.64H160.07V133.825Z" fill="#EBEBEB"/>
<path id="Vector_19" d="M127.234 24.6096L126.438 47.0779L161.865 48.3336L162.662 25.8653L127.234 24.6096Z" fill="#EBEBEB"/>
<path id="Vector_20" d="M162.649 25.8653C161.172 27.1843 159.661 28.4264 158.179 29.7369C156.698 31.0473 155.191 32.2724 153.663 33.5231C152.087 34.8293 150.509 36.124 148.929 37.4075L148.789 37.5312L144.58 40.9461L144.375 41.104L144.183 40.929C142.865 39.7025 141.549 38.4717 140.234 37.2367C140.184 37.1976 140.137 37.1548 140.094 37.1087C138.604 35.7171 137.106 34.317 135.641 32.8913C134.229 31.5467 132.816 30.1765 131.411 28.8063C130.007 27.4361 128.607 26.0489 127.224 24.6274C128.705 25.8568 130.156 27.1373 131.616 28.3923C133.076 29.6472 134.532 30.9534 135.979 32.234C137.586 33.6568 139.194 35.1096 140.802 36.5922L144.409 39.8875C145.69 38.8758 146.97 37.8557 148.251 36.8568C149.958 35.508 151.666 34.1705 153.373 32.8444C154.904 31.6606 156.442 30.4853 157.987 29.3186C159.558 28.1618 161.095 27.005 162.649 25.8653Z" fill="white"/>
<path id="Vector_21" d="M140.849 37.1045L140.802 37.1386C140.61 37.2923 140.418 37.446 140.226 37.5911C139.312 38.3125 138.378 38.9955 137.426 39.6613C136.269 40.4852 135.087 41.2663 133.896 42.0432C132.705 42.8201 131.505 43.5628 130.28 44.2885C129.055 45.0141 127.822 45.7184 126.545 46.3587C127.655 45.458 128.803 44.6171 129.96 43.7976C131.117 42.978 132.308 42.1926 133.494 41.4157C134.681 40.6388 135.889 39.8919 137.114 39.1662C138.087 38.5899 139.078 38.0222 140.102 37.4929C140.333 37.3691 140.567 37.2496 140.806 37.1301L140.849 37.1045Z" fill="white"/>
<path id="Vector_22" d="M161.795 47.6092C160.57 46.8793 159.383 46.0854 158.218 45.2786C157.052 44.4719 155.904 43.631 154.765 42.7858C153.625 41.9406 152.506 41.057 151.409 40.1564C150.513 39.4264 149.629 38.6837 148.776 37.9026L148.225 37.4032C148.213 37.3893 148.201 37.3765 148.187 37.3647L148.238 37.3904L148.917 37.8172C149.886 38.4191 150.829 39.0508 151.764 39.6996C152.933 40.5064 154.073 41.3473 155.213 42.1967C156.352 43.0462 157.467 43.9042 158.564 44.8262C159.661 45.7482 160.762 46.6403 161.795 47.6092Z" fill="white"/>
<path id="Vector_23" d="M157.395 57.002L152.324 72.6072L176.93 80.602L182 64.9968L157.395 57.002Z" fill="#EBEBEB"/>
<path id="Vector_24" d="M181.985 64.995C180.683 65.6225 179.377 66.203 178.071 66.8134C176.765 67.4238 175.454 67.9872 174.144 68.5635C172.833 69.1398 171.408 69.7544 170.042 70.3392L169.918 70.399L166.285 71.9356L166.106 72.0039L166.008 71.846C165.328 70.7077 164.65 69.5794 163.976 68.4611L163.908 68.3458C163.139 67.0652 162.38 65.7847 161.628 64.5041C160.877 63.2236 160.194 62.0326 159.494 60.7862C158.794 59.5398 158.081 58.2891 157.394 57.0171C158.188 58.1739 158.948 59.3648 159.72 60.5386C160.493 61.7125 161.253 62.9162 162.008 64.1157C162.862 65.4475 163.699 66.7906 164.518 68.1452C165.146 69.1526 165.765 70.1685 166.388 71.1801C167.485 70.7234 168.586 70.2666 169.683 69.8227C171.151 69.2194 172.618 68.6247 174.084 68.0385C175.394 67.5134 176.713 66.9969 178.028 66.489C179.343 65.981 180.666 65.456 181.985 64.995Z" fill="white"/>
<path id="Vector_25" d="M164.429 68.491H164.39L163.895 68.6959C163.11 69.016 162.316 69.3063 161.513 69.5837C160.536 69.9295 159.55 70.2411 158.559 70.5484C157.569 70.8557 156.574 71.1332 155.571 71.4021C154.568 71.671 153.557 71.9143 152.536 72.1064C153.493 71.6796 154.466 71.3381 155.443 70.9966C156.421 70.6551 157.415 70.3435 158.401 70.0362C159.387 69.7288 160.39 69.4471 161.389 69.1825C162.188 68.969 162.994 68.7556 163.81 68.6019L164.377 68.491H164.429Z" fill="white"/>
<path id="Vector_26" d="M177.021 80.0715C176.308 79.3117 175.633 78.5177 174.98 77.7152C174.327 76.9127 173.7 76.0974 173.055 75.2736C172.411 74.4498 171.822 73.6089 171.233 72.7552C170.75 72.0637 170.276 71.3636 169.832 70.6465C169.739 70.4886 169.645 70.3392 169.551 70.1855C169.545 70.1736 169.537 70.1621 169.529 70.1514L169.559 70.1812L169.952 70.6081C170.511 71.2228 171.045 71.8588 171.574 72.4991C172.231 73.3016 172.855 74.1211 173.491 74.9449C174.127 75.7688 174.729 76.6097 175.318 77.4634C175.907 78.3171 176.487 79.1751 177.021 80.0715Z" fill="white"/>
</g>
<g id="freepik--Table--inject-33">
<path id="Vector_27" d="M2.30499 170.786L24.2496 170.684L46.1941 170.645L90.0833 170.573L133.972 170.645L155.917 170.684L177.862 170.786L155.917 170.889L133.972 170.927L90.0833 170.999L46.1941 170.927L24.2496 170.889L2.30499 170.786Z" fill="#263238"/>
</g>
<g id="freepik--Character--inject-33">
<path id="Vector_28" d="M56.0886 128.916C56.0886 128.916 66.0173 165.399 68.4119 170.786H106.923C100.277 153.384 93.242 130.611 93.0414 129.027C93.0414 128.955 93.0414 128.916 93.0414 128.916H56.0886Z" fill="#37474F"/>
<path id="Vector_29" d="M61.4841 133.77C61.7274 136.732 72.5012 168.238 73.4061 170.786H73.961C73.961 170.786 62.2609 135.93 61.6335 133.77C61.6164 133.68 61.4841 133.68 61.4841 133.77Z" fill="#263238"/>
<path id="Vector_30" d="M87.6929 128.912L82.7201 161.669L82.545 162.779L82.1182 165.741L82.084 165.95L81.9645 166.74L81.3541 170.774H68.4119C66.0215 165.387 56.0886 128.899 56.0886 128.899L87.6929 128.912Z" fill="#263238"/>
<path id="Vector_31" d="M36.7778 170.786H73.2183C73.2183 170.633 73.2439 170.509 73.2482 170.406C73.2525 170.304 73.2695 170.159 73.2695 170.159L73.8799 169.83C76.0142 168.661 77.9052 167.751 79.4547 167.06C79.7193 166.945 79.9711 166.834 80.2187 166.718C80.9188 166.415 81.5462 166.159 82.067 165.954C83.4116 165.425 84.1543 165.186 84.1543 165.186C84.2013 165.075 84.2397 164.968 84.2781 164.857C89.5583 151.416 92.7426 130.935 93.0414 129.027C93.0414 128.925 93.0414 128.882 93.0414 128.882H40.9951C37.9047 138.572 31.6939 156.389 36.7778 170.786Z" fill="#37474F"/>
<path id="Vector_32" d="M86.0154 164.226C81.6017 165.745 77.3417 167.901 73.2695 170.163C73.2409 170.182 73.2201 170.211 73.2108 170.244C73.2014 170.278 73.2042 170.313 73.2186 170.344C73.2329 170.376 73.258 170.401 73.2892 170.415C73.3204 170.43 73.3558 170.433 73.3891 170.424C77.6832 168.58 82.0585 166.817 86.2459 164.738C86.308 164.704 86.3551 164.648 86.3776 164.58C86.4001 164.513 86.3964 164.44 86.3673 164.375C86.3382 164.311 86.2859 164.259 86.2206 164.232C86.1554 164.204 86.0821 164.202 86.0154 164.226Z" fill="#263238"/>
<path id="Vector_33" d="M87.3813 134.76C87.3813 134.611 87.1081 134.576 87.1081 134.739C87.1423 139.835 86.8179 144.322 86.391 149.085C86.1904 151.296 84.4104 163.521 80.573 162.629C79.9327 162.48 79.604 161.848 79.5059 160.884C79.3821 159.718 79.8217 158.288 80.0138 157.131C80.4407 154.57 80.7822 152.009 80.9999 149.422C81.4461 144.609 81.3946 139.763 80.8462 134.961C80.8462 134.928 80.8331 134.896 80.8099 134.873C80.7867 134.85 80.7552 134.837 80.7224 134.837C80.6896 134.837 80.6581 134.85 80.6349 134.873C80.6117 134.896 80.5986 134.928 80.5986 134.961C80.5986 141.641 80.4279 148.308 79.429 154.925C78.9509 158.105 77.3502 162.89 80.6754 163.381C84.0006 163.871 86.2416 155.872 86.6685 153.678C87.8167 147.561 87.8637 140.975 87.3813 134.76Z" fill="#263238"/>
<path id="Vector_34" d="M80.6925 162.958C80.3552 163.784 80.0701 164.631 79.8388 165.493C79.5914 166.16 79.4698 166.866 79.4802 167.576C79.4868 167.604 79.501 167.629 79.5213 167.649C79.5417 167.669 79.5672 167.682 79.5949 167.688C79.6227 167.694 79.6515 167.692 79.6781 167.682C79.7046 167.672 79.7278 167.655 79.7449 167.632C80.1973 167.064 80.3852 166.283 80.637 165.604C80.9315 164.823 81.2389 164.046 81.4907 163.252C81.5194 163.149 81.5083 163.039 81.4594 162.944C81.4106 162.848 81.3277 162.775 81.2272 162.738C81.1267 162.7 81.0159 162.703 80.9169 162.743C80.8178 162.784 80.7377 162.861 80.6925 162.958Z" fill="#263238"/>
<path id="Vector_35" d="M63.3196 138.759C63.3301 138.226 63.2757 137.692 63.1574 137.172C63.1519 137.156 63.1416 137.142 63.1278 137.132C63.114 137.122 63.0975 137.116 63.0805 137.116C63.0636 137.116 63.047 137.122 63.0332 137.132C63.0195 137.142 63.0091 137.156 63.0037 137.172C62.8947 137.621 62.8346 138.08 62.8244 138.542C62.7689 139.067 62.7006 139.592 62.6451 140.121C62.5322 141.197 62.3439 142.264 62.0817 143.314C61.5968 145.3 60.5852 147.118 59.1535 148.577C57.7313 149.977 56.0493 151.084 54.202 151.838C52.1402 152.692 49.9718 153.034 47.8461 153.661C47.8279 153.667 47.8125 153.68 47.8026 153.696C47.7927 153.712 47.7889 153.732 47.792 153.751C47.7951 153.77 47.8048 153.787 47.8194 153.799C47.834 153.812 47.8525 153.819 47.8717 153.819C50.2313 153.813 52.5675 153.352 54.7526 152.462C56.6861 151.737 58.4458 150.614 59.9175 149.166C61.3972 147.671 62.4394 145.799 62.9311 143.754C63.1779 142.703 63.3208 141.631 63.358 140.552C63.3813 139.954 63.3685 139.356 63.3196 138.759Z" fill="#263238"/>
<path id="Vector_36" d="M41.8872 170.787C40.803 167.632 40.1287 164.351 39.881 161.024C39.5993 157.697 39.5822 154.353 39.8298 151.023C40.0005 149.367 40.1286 147.702 40.4103 146.059C40.5469 145.235 40.6451 144.407 40.8372 143.592L41.3494 141.146C41.439 140.719 41.5159 140.33 41.614 139.925L41.9384 138.717L42.5915 136.31C42.822 135.511 43.1123 134.73 43.3684 133.94C43.6245 133.151 43.902 132.365 44.1794 131.584C43.8123 133.206 43.3599 134.798 42.997 136.416L42.4592 138.841L42.1988 140.053C42.1135 140.459 42.0537 140.864 41.9811 141.274L41.5543 143.715C41.4049 144.526 41.328 145.35 41.2128 146.166C40.9567 147.796 40.8372 149.444 40.6792 151.087C40.4331 154.377 40.3875 157.678 40.5426 160.973C40.5896 161.797 40.628 162.621 40.7176 163.44L40.8286 164.674L40.9823 165.903C41.1789 167.549 41.4812 169.18 41.8872 170.787Z" fill="#263238"/>
<path id="Vector_37" d="M74.597 79.5761C81.5803 91.0457 95.4062 109.114 102.078 113.135C109.492 117.605 130.677 102.434 144.396 93.3507C147.12 91.5451 134.416 69.5237 131.591 71.5812C124.253 77.0065 109.078 89.6072 107.064 89.1804C105.416 88.8303 91.4065 79.0724 83.5567 73.4807C71.084 64.5936 69.6797 71.5043 74.597 79.5761Z" fill="#D3766A"/>
<path id="Vector_38" d="M126.234 74.8126L138.015 100.121C138.015 100.121 112.365 116.892 104.387 114.851C96.4093 112.811 79.4546 89.3256 74.4818 80.1056C69.5089 70.8855 71.8225 65.7078 81.4608 71.8929C91.0992 78.078 105.937 87.9682 107.499 88.0194C109.061 88.0707 126.234 74.8126 126.234 74.8126Z" fill="#FF7959"/>
<path id="Vector_39" d="M130.75 103.143C127.382 92.3307 122.213 81.4758 121.427 79.5208C121.393 79.4312 121.248 79.4995 121.286 79.5891C122.14 81.4673 126.72 94.529 130.596 103.22C130.634 103.318 130.784 103.245 130.75 103.143Z" fill="#263238"/>
<path id="Vector_40" opacity="0.1" d="M112.113 113.797C109.031 114.839 106.287 115.329 104.387 114.843C96.4093 112.802 79.4503 89.3255 74.4775 80.1097C72.3432 76.1656 71.5578 72.9642 72.1042 71.0647C81.6615 81.3348 104.024 105.183 112.113 113.797Z" fill="black"/>
<path id="Vector_41" d="M136.773 98.4431L126.319 75.6662C126.686 75.1924 128.257 74.2533 129.806 72.7934C129.806 72.7934 133.87 67.2017 135.509 61.1361C136.892 56.0394 138.365 48.3304 141.135 48.9579C145.173 49.8842 144.482 59.8726 143.739 65.6052C146.641 64.4356 149.254 63.7015 150.927 63.8295C156.476 64.2564 157.757 89.3682 153.061 92.5696C148.528 95.6131 139.85 98.887 136.773 98.4431Z" fill="#D3766A"/>
<path id="Vector_42" d="M151.849 100.799L114.965 98.0462L118.593 49.4446L155.477 52.2021L151.849 100.799Z" fill="#455A64"/>
<path id="Vector_43" d="M151.747 55.0533L121.856 52.8215L118.693 95.1841L148.584 97.4159L151.747 55.0533Z" fill="white"/>
<path id="Vector_44" d="M133.056 53.6572L121.857 52.821L118.694 95.1837L129.893 96.0198L133.056 53.6572Z" fill="#EBEBEB"/>
<path id="Vector_45" d="M128.564 61.9472C128.144 62.1697 127.676 62.2887 127.2 62.2941C126.725 62.2996 126.254 62.1913 125.829 61.9783C125.404 61.7654 125.035 61.4539 124.754 61.0699C124.473 60.6858 124.288 60.2402 124.215 59.7702C124.129 59.2279 124.195 58.6727 124.405 58.1654C124.614 57.658 124.96 57.2183 125.403 56.8943C125.846 56.5703 126.37 56.3747 126.917 56.3288C127.464 56.2829 128.013 56.3887 128.504 56.6343C128.995 56.88 129.408 57.2562 129.699 57.7215C129.991 58.1868 130.148 58.7234 130.154 59.2723C130.16 59.8212 130.015 60.3612 129.735 60.833C129.454 61.3049 129.049 61.6904 128.564 61.9472Z" fill="#A6A6A6"/>
<path id="Vector_46" d="M128.116 59.0189C128.104 59.2 128.038 59.3734 127.927 59.5172C127.817 59.661 127.666 59.7687 127.494 59.8267C127.322 59.8847 127.136 59.8904 126.961 59.843C126.786 59.7957 126.629 59.6974 126.509 59.5607C126.39 59.424 126.314 59.255 126.29 59.075C126.267 58.8949 126.298 58.7121 126.378 58.5494C126.459 58.3868 126.586 58.2517 126.743 58.1613C126.901 58.0709 127.081 58.0291 127.262 58.0414C127.505 58.0578 127.732 58.17 127.892 58.3533C128.052 58.5367 128.132 58.7761 128.116 59.0189Z" fill="white"/>
<path id="Vector_47" d="M128.59 61.5801L128.564 61.96C128.068 62.2155 127.51 62.3284 126.953 62.2862C126.396 62.244 125.862 62.0484 125.41 61.721L125.44 61.3454C125.455 61.1385 125.511 60.9368 125.604 60.7516C125.698 60.5664 125.827 60.4014 125.984 60.266C126.141 60.1306 126.323 60.0276 126.52 59.9626C126.717 59.8977 126.925 59.8723 127.132 59.8877C127.339 59.9031 127.541 59.9591 127.726 60.0525C127.911 60.1459 128.076 60.2748 128.211 60.432C128.347 60.5892 128.45 60.7715 128.515 60.9684C128.58 61.1654 128.605 61.3733 128.59 61.5801Z" fill="white"/>
<path id="Vector_48" d="M142.831 57.9887L134.765 57.3865L134.723 57.9435L142.79 58.5457L142.831 57.9887Z" fill="#EBEBEB"/>
<path id="Vector_49" d="M148.592 59.9671L134.651 58.9263L134.61 59.4833L148.55 60.5241L148.592 59.9671Z" fill="#EBEBEB"/>
<path id="Vector_50" d="M145.37 61.2766L134.537 60.4678L134.495 61.0248L145.329 61.8336L145.37 61.2766Z" fill="#EBEBEB"/>
<path id="Vector_51" d="M140.561 64.0218L134.308 63.5549L134.266 64.1119L140.519 64.5788L140.561 64.0218Z" fill="#EBEBEB"/>
<path id="Vector_52" d="M145.027 65.9038L134.193 65.095L134.152 65.652L144.985 66.4608L145.027 65.9038Z" fill="#EBEBEB"/>
<path id="Vector_53" d="M148.019 67.6761L134.079 66.6353L134.037 67.1922L147.978 68.2331L148.019 67.6761Z" fill="#EBEBEB"/>
<path id="Vector_54" d="M142.026 68.7793L133.959 68.177L133.918 68.734L141.984 69.3363L142.026 68.7793Z" fill="#EBEBEB"/>
<path id="Vector_55" d="M148.535 71.8218L134.556 70.8433L134.517 71.4018L148.496 72.3804L148.535 71.8218Z" fill="#EBEBEB"/>
<path id="Vector_56" d="M143.732 73.5588L133.619 72.8037L133.577 73.3607L143.691 74.1158L143.732 73.5588Z" fill="#EBEBEB"/>
<path id="Vector_57" d="M141.012 74.9058L133.503 74.3452L133.461 74.9022L140.97 75.4628L141.012 74.9058Z" fill="#EBEBEB"/>
<path id="Vector_58" d="M145.944 76.8226L133.387 75.885L133.346 76.442L145.903 77.3796L145.944 76.8226Z" fill="#EBEBEB"/>
<path id="Vector_59" d="M143.27 79.7224L133.157 78.9673L133.115 79.5243L143.229 80.2794L143.27 79.7224Z" fill="#EBEBEB"/>
<path id="Vector_60" d="M146.985 81.5526L133.044 80.5117L133.003 81.0687L146.943 82.1096L146.985 81.5526Z" fill="#EBEBEB"/>
<path id="Vector_61" d="M145.368 84.5313L132.811 83.5938L132.769 84.1508L145.326 85.0883L145.368 84.5313Z" fill="#EBEBEB"/>
<path id="Vector_62" d="M140.134 85.6951L132.697 85.1399L132.656 85.6969L140.092 86.2521L140.134 85.6951Z" fill="#EBEBEB"/>
<path id="Vector_63" d="M147.447 87.2872L133.468 86.3086L133.429 86.8671L147.408 87.8457L147.447 87.2872Z" fill="#EBEBEB"/>
<path id="Vector_64" d="M142.465 90.5215L132.351 89.7664L132.309 90.3234L142.423 91.0785L142.465 90.5215Z" fill="#EBEBEB"/>
<path id="Vector_65" d="M147.119 91.9244L133.14 90.9458L133.101 91.5044L147.08 92.4829L147.119 91.9244Z" fill="#EBEBEB"/>
<path id="Vector_66" d="M145.623 93.3771L133.031 92.4956L132.992 93.0542L145.584 93.9356L145.623 93.3771Z" fill="#EBEBEB"/>
<path id="Vector_67" d="M128.265 64.1804L124.551 63.9204L124.512 64.479L128.226 64.7389L128.265 64.1804Z" fill="#A6A6A6"/>
<path id="Vector_68" d="M129.837 66.3203L123.674 65.8601L123.632 66.4171L129.796 66.8773L129.837 66.3203Z" fill="#A6A6A6"/>
<path id="Vector_69" d="M128.708 67.7857L123.558 67.4011L123.516 67.9581L128.667 68.3427L128.708 67.7857Z" fill="#A6A6A6"/>
<path id="Vector_70" d="M129.494 70.9473L123.33 70.4871L123.289 71.0441L129.452 71.5043L129.494 70.9473Z" fill="#A6A6A6"/>
<path id="Vector_71" d="M129.762 72.5122L123.215 72.0234L123.173 72.5804L129.72 73.0692L129.762 72.5122Z" fill="#A6A6A6"/>
<path id="Vector_72" d="M127.69 73.9118L123.097 73.5688L123.056 74.1258L127.649 74.4688L127.69 73.9118Z" fill="#A6A6A6"/>
<path id="Vector_73" d="M129.229 75.1295L123.787 74.7485L123.748 75.3071L129.19 75.6881L129.229 75.1295Z" fill="#A6A6A6"/>
<path id="Vector_74" d="M146.595 48.6974L127.9 47.3015L127.405 53.9249L146.101 55.3208L146.595 48.6974Z" fill="#A6A6A6"/>
<path id="Vector_75" d="M143.705 51.0709L130.404 50.0763L130.788 44.937L144.089 45.9273L143.705 51.0709Z" fill="#A6A6A6"/>
<path id="Vector_76" d="M142.219 64.8412C141.011 67.4834 144.815 67.4023 144.815 67.4023C144.815 67.4023 139.372 68.8365 139.172 72.0422C138.997 75.1326 143.585 74.8637 143.914 74.8466C143.628 74.9277 138.659 76.3876 138.792 79.6231C138.937 82.991 143.487 81.9324 143.79 81.8599C143.543 82.0221 140.303 84.1862 140.964 86.6235C142.108 90.811 150.551 85.4967 153.941 86.4229C153.941 86.4229 153.036 92.3477 153.044 92.5227C153.044 92.5227 161.176 87.6309 162.166 82.991C162.319 82.3183 162.239 81.6135 161.938 80.9928C161.637 80.372 161.133 79.8724 160.51 79.5762C160.51 79.5762 163.306 78.2956 163.28 75.7345C163.259 74.4241 161.146 73.2844 161.146 73.2844C161.146 73.2844 163.344 72.1617 163.178 69.8909C163.05 68.081 160.95 67.2188 160.95 67.2188C160.95 67.2188 162.559 65.1613 161.829 63.3557C160.373 59.7019 144.81 59.1939 142.219 64.8412Z" fill="#D3766A"/>
<path id="Vector_77" d="M160.655 67.0353C160.664 67.0325 160.671 67.0271 160.676 67.0198C160.682 67.0125 160.684 67.0038 160.684 66.9948C160.684 66.9858 160.682 66.977 160.676 66.9697C160.671 66.9625 160.664 66.957 160.655 66.9542C155.576 65.5371 149.557 65.5371 144.593 67.3811C144.426 67.4408 144.456 67.7354 144.648 67.7012C150.154 66.7792 155.097 66.4036 160.655 67.0353Z" fill="#263238"/>
<path id="Vector_78" d="M161.24 73.2546C161.3 73.2546 161.312 73.1649 161.24 73.1479C156.002 71.7136 149.228 71.9014 143.739 74.6973C143.551 74.7955 143.478 75.0687 143.7 74.9748C147.504 73.3912 156.246 72.6783 161.24 73.2546Z" fill="#263238"/>
<path id="Vector_79" d="M143.487 82.1886C148.848 79.7086 154.466 79.2007 160.309 79.4995C160.386 79.4995 160.382 79.397 160.309 79.3757C157.488 78.4494 153.744 78.6415 150.842 79.0427C148.141 79.3597 145.572 80.3797 143.389 82.0008C143.316 82.0691 143.376 82.2399 143.487 82.1886Z" fill="#263238"/>
<path id="Vector_80" d="M93.0243 128.916L91.5175 112.44C91.5175 112.44 95.9184 105.713 95.2739 97.7645C94.8086 91.9763 78.2851 71.7264 77.2222 70.7532C72.9536 66.7706 65.7441 68.3585 62.786 70.5952C46.4033 82.974 46.5442 102.767 41.0164 128.882L93.0243 128.916Z" fill="#FF7959"/>
<path id="Vector_81" d="M93.0243 128.916L91.5175 112.44C91.5175 112.44 97.1861 104.885 95.2738 97.7646C93.3615 90.6447 87.7271 84.1479 87.7271 84.1479H63.3622C63.3622 84.1479 61.1554 105.465 55.5764 109.093C52.1891 111.352 48.0555 112.203 44.0513 111.467L40.9951 128.882L93.0243 128.916Z" fill="#37474F"/>
<path id="Vector_82" d="M75.9715 110.284C78.3315 110.146 80.6985 110.183 83.053 110.395C84.2226 110.515 85.3751 110.69 86.5319 110.886C87.1124 110.988 87.6887 111.065 88.2649 111.142C88.8701 111.241 89.485 111.265 90.0961 111.215C90.1074 111.215 90.1183 111.219 90.1263 111.227C90.1343 111.235 90.1388 111.246 90.1388 111.257C90.1388 111.269 90.1343 111.279 90.1263 111.287C90.1183 111.296 90.1074 111.3 90.0961 111.3C88.9746 111.543 87.8204 111.596 86.6813 111.458C85.4946 111.347 84.3165 111.18 83.1299 111.057C80.7395 110.805 78.3491 110.557 75.9459 110.48C75.8605 110.476 75.8605 110.293 75.9715 110.284Z" fill="#263238"/>
<path id="Vector_83" d="M70.5249 113.204C72.4127 112.717 74.3267 112.338 76.2575 112.068C77.2265 111.936 78.1912 111.859 79.1687 111.808C79.6297 111.787 80.0992 111.77 80.5645 111.761C81.0297 111.753 81.5889 111.808 82.1012 111.791C82.1566 111.791 82.1652 111.872 82.1012 111.872C81.6188 111.906 81.1365 112.017 80.6584 112.077L79.2113 112.252C78.2467 112.372 77.2862 112.504 76.3173 112.615C74.3836 112.837 72.4756 113.076 70.5334 113.362C70.448 113.379 70.448 113.23 70.5249 113.204Z" fill="#263238"/>
<path id="Vector_84" d="M66.2691 77.6C63.2555 81.8899 40.4444 108.999 34.0032 113.097C29.1072 116.218 16.2375 118.121 16.8992 105.973C17.326 97.8628 49.7669 74.9834 62.8543 69.4386C68.8687 66.8732 72.5823 68.6019 66.2691 77.6Z" fill="#FF7959"/>
<path id="Vector_85" d="M22.0641 114.984C23.9857 115.505 25.9989 115.594 27.9589 115.244C29.9064 114.926 31.7762 114.243 33.4696 113.23C34.313 112.72 35.1176 112.15 35.8771 111.522C36.6369 110.899 37.3625 110.22 38.0797 109.537C39.5096 108.159 40.8926 106.724 42.2543 105.269C45.0032 102.392 47.6583 99.4123 50.3176 96.4456L58.2656 87.4817C57.0491 89.0611 55.7856 90.602 54.5306 92.1771C53.2757 93.7522 51.9695 95.2462 50.6889 96.77C48.1022 99.8036 45.44 102.78 42.7025 105.7C41.3195 107.147 39.9194 108.573 38.4638 109.947C37.7339 110.63 36.9954 111.309 36.21 111.945C35.4242 112.587 34.5828 113.159 33.6959 113.652C31.9314 114.649 29.9929 115.299 27.9846 115.569C26.9931 115.69 25.9918 115.709 24.9966 115.624C23.9942 115.547 23.0072 115.332 22.0641 114.984Z" fill="#263238"/>
<path id="Vector_86" d="M55.2136 91.1227C55.7366 90.6952 56.2824 90.2963 56.8484 89.9276L58.526 88.8049C58.1149 89.3545 57.6072 89.8246 57.0277 90.1922C56.4651 90.5784 55.8555 90.8911 55.2136 91.1227Z" fill="#263238"/>
<path id="Vector_87" d="M63.3622 84.1479H67.0844C67.2321 78.7937 66.47 73.4533 64.8306 68.3542L62.4232 68.9647C62.4232 68.9647 64.7922 78.8335 63.3622 84.1479Z" fill="#37474F"/>
<path id="Vector_88" d="M78.4814 69.8312C78.4814 69.8312 83.5012 77.0621 87.727 84.1479H85.3623L75.8904 68.8367L78.4814 69.8312Z" fill="#37474F"/>
<path id="Vector_89" d="M66.1794 71.1416C66.474 72.1746 71.1822 78.2487 75.9629 77.792C77.521 77.6426 77.7002 69.6007 77.7002 69.6007L77.8112 68.9604L79.3607 60.0349L68.668 53.8967L67.1271 53.0857C67.1271 53.0857 66.8667 55.5572 66.5679 58.6348C66.5679 58.7757 66.5423 58.9208 66.5295 59.0617C66.5167 59.2025 66.4825 59.3989 66.4697 59.5611C66.4228 60.0178 66.3715 60.4873 66.3331 60.9569C66.3032 61.3154 66.2691 61.6612 66.252 62.0368C66.2349 62.4125 66.2008 62.7753 66.1709 63.1552C65.966 66.8688 66.0642 70.6977 66.1794 71.1416Z" fill="#D3766A"/>
<path id="Vector_90" d="M66.5679 58.622C67.5801 61.0583 69.1105 63.245 71.0528 65.0303C72.9951 66.8156 75.3028 68.1567 77.8155 68.9604L79.365 60.0349L68.6681 53.8967L67.1271 53.0857C67.1271 53.0857 66.8667 55.5444 66.5679 58.622Z" fill="#263238"/>
<path id="Vector_91" d="M69.7949 52.2234C66.9478 50.3154 58.9486 47.5067 54.7227 53.7217C48.687 62.5875 61.7573 78.1378 62.4274 86.312C63.644 101.12 71.3359 109.435 78.1613 105.299C85.8148 100.663 85.3367 88.0451 70.9773 73.818C62.0134 64.9181 60.6304 58.4171 62.6964 56.9231C64.7623 55.4291 67.9765 56.7481 67.9765 56.7481L69.7949 52.2234Z" fill="#263238"/>
<path id="Vector_92" d="M68.6638 51.5661C67.1991 50.8121 65.6482 50.2387 64.0452 49.8587C62.4138 49.4532 60.7159 49.3921 59.0596 49.6794C57.3602 49.9865 55.8009 50.8215 54.6032 52.0656C53.4093 53.2995 52.5307 54.8033 52.0421 56.4494C51.6053 58.0952 51.5253 59.8154 51.8073 61.4948C52.0904 63.1365 52.5602 64.7405 53.2074 66.2755C54.5228 69.2967 56.1738 72.1604 58.129 74.8126C56.4895 71.9962 55.0627 69.0612 53.8605 66.0322C53.3056 64.5261 52.9066 62.967 52.6696 61.3795C52.4278 59.8219 52.5165 58.2308 52.9299 56.7097C53.3618 55.2018 54.1477 53.8188 55.2221 52.676C56.2815 51.5276 57.6667 50.7307 59.1919 50.3923C60.7551 50.0557 62.369 50.0281 63.9428 50.3112C64.7449 50.4302 65.5389 50.5984 66.3204 50.8149C67.1115 51.034 67.8926 51.2844 68.6638 51.5661Z" fill="#263238"/>
<path id="Vector_93" d="M66.1496 68.7939C67.4728 70.305 68.9583 71.6624 70.3883 73.0625C71.8182 74.4626 73.2738 75.837 74.6568 77.2627C76.0398 78.6884 77.4057 80.1568 78.6394 81.7063C79.8968 83.23 81.0006 84.8743 81.9347 86.6151C82.8809 88.323 83.4964 90.194 83.7488 92.1301C83.9262 94.0787 83.7615 96.0434 83.2622 97.9353C82.7726 99.8397 81.8411 101.602 80.5431 103.079C79.8911 103.823 79.1449 104.478 78.3235 105.03C77.914 105.303 77.4861 105.549 77.0429 105.764C76.5998 105.996 76.1253 106.163 75.6343 106.259C76.6379 106.115 77.6012 105.766 78.4643 105.234C79.3483 104.728 80.162 104.108 80.8846 103.39C81.6053 102.66 82.2319 101.843 82.75 100.957C83.2633 100.067 83.6729 99.12 83.9708 98.1359C84.2687 97.1618 84.4717 96.1611 84.5769 95.1479L84.6452 94.3796L84.6751 93.6155C84.6971 93.0972 84.6828 92.5781 84.6324 92.0618C84.3918 90.0081 83.7585 88.0198 82.767 86.2053C80.8249 82.5899 78.0716 79.5549 75.1776 76.7719C73.7263 75.376 72.2152 74.0528 70.6913 72.7509C69.1675 71.449 67.6222 70.1556 66.1496 68.7939Z" fill="#263238"/>
<path id="Vector_94" d="M70.2645 51.8435C69.6967 51.0923 68.4076 50.563 67.8271 50.8276C67.2466 51.0923 64.9544 55.4291 65.3813 56.5731C65.8081 57.7171 68.0107 57.2518 68.0107 57.2518L70.2645 51.8435Z" fill="#FF7959"/>
<path id="Vector_95" d="M91.048 44.2839C94.3988 59.8256 85.4733 63.5862 82.1182 64.3076C79.0747 64.9564 68.6339 66.7962 63.6952 51.6855C58.7565 36.5749 64.9202 30.1038 71.8054 28.2427C78.6905 26.3816 87.6972 28.7421 91.048 44.2839Z" fill="#D3766A"/>
<path id="Vector_96" d="M85.9599 41.9918C85.5946 41.9869 85.2299 41.9627 84.8671 41.9193C84.477 41.9499 84.0879 41.8492 83.7616 41.6333C83.6725 41.546 83.6146 41.4319 83.5968 41.3084C83.5791 41.185 83.6025 41.0591 83.6634 40.9503C83.818 40.7539 84.022 40.6022 84.2545 40.5107C84.487 40.4192 84.7397 40.3912 84.9867 40.4295C85.4984 40.4314 85.9912 40.623 86.3697 40.9674C86.452 41.0507 86.5082 41.1563 86.5313 41.2711C86.5545 41.3859 86.5437 41.505 86.5002 41.6138C86.4567 41.7225 86.3824 41.8162 86.2864 41.8834C86.1905 41.9506 86.077 41.9882 85.9599 41.9918Z" fill="#263238"/>
<path id="Vector_97" d="M75.0666 46.0298C75.4176 45.9237 75.7624 45.7983 76.0996 45.6542C76.4807 45.5716 76.8241 45.3661 77.0771 45.0694C77.1387 44.9607 77.1625 44.8347 77.1448 44.7111C77.127 44.5875 77.0686 44.4733 76.9789 44.3864C76.7763 44.2407 76.5384 44.152 76.2899 44.1295C76.0414 44.107 75.7915 44.1515 75.566 44.2583C75.0734 44.4008 74.6526 44.724 74.3879 45.1633C74.3331 45.2661 74.3093 45.3827 74.3195 45.4988C74.3297 45.615 74.3734 45.7256 74.4452 45.8174C74.5171 45.9092 74.6141 45.9781 74.7244 46.0158C74.8347 46.0535 74.9536 46.0584 75.0666 46.0298Z" fill="#263238"/>
<path id="Vector_98" d="M77.7344 47.9677C77.7344 47.9293 77.6575 48.0317 77.6661 48.0744C77.8795 49.1373 77.9435 50.3922 77.0386 50.9044C77.0087 50.9044 77.0386 50.977 77.0386 50.9642C78.2082 50.6014 78.1057 48.9409 77.7344 47.9677Z" fill="#263238"/>
<path id="Vector_99" d="M76.5947 47.0115C74.8574 47.1695 75.3141 50.6355 76.9106 50.4904C78.507 50.3453 78.0503 46.8835 76.5947 47.0115Z" fill="#263238"/>
<path id="Vector_100" d="M75.9374 47.2848C75.6599 47.5195 75.4081 47.9037 75.0452 47.9848C74.6824 48.0659 74.2641 47.7586 73.944 47.4427C73.9098 47.4128 73.8842 47.4427 73.8885 47.4897C73.9653 48.1556 74.3153 48.8044 75.0324 48.8129C75.6941 48.8129 76.0825 48.1726 76.1636 47.4854C76.1807 47.3573 76.0483 47.1866 75.9374 47.2848Z" fill="#263238"/>
<path id="Vector_101" d="M84.1671 46.5846C84.1671 46.5419 84.2567 46.6273 84.2567 46.6742C84.2951 47.7542 84.5256 48.9878 85.5373 49.2781C85.5672 49.2781 85.5672 49.3421 85.5373 49.3378C84.3208 49.2524 84.0305 47.6133 84.1671 46.5846Z" fill="#263238"/>
<path id="Vector_102" d="M85.055 45.3895C86.7837 45.1377 87.1594 48.6123 85.5587 48.8428C83.958 49.0733 83.6037 45.5987 85.055 45.3895Z" fill="#263238"/>
<path id="Vector_103" d="M85.755 45.4962C86.0794 45.6627 86.4166 45.9743 86.7837 45.9743C87.1508 45.9743 87.4923 45.5688 87.7313 45.1889C87.7569 45.1505 87.7911 45.1889 87.7953 45.223C87.8765 45.8889 87.6972 46.5975 86.9929 46.7768C86.3526 46.939 85.819 46.3969 85.58 45.7481C85.5373 45.6285 85.6269 45.4322 85.755 45.4962Z" fill="#263238"/>
<path id="Vector_104" d="M79.7065 56.2743C79.9839 56.5048 80.2699 56.8335 80.6669 56.8335C81.067 56.7922 81.4538 56.6671 81.8023 56.4664C81.8365 56.4664 81.8749 56.4664 81.8536 56.5176C81.7171 56.7432 81.5219 56.9275 81.2888 57.0508C81.0558 57.1741 80.7936 57.2317 80.5303 57.2176C80.3063 57.1774 80.0991 57.0721 79.9344 56.915C79.7697 56.7579 79.6548 56.5559 79.604 56.3341C79.5827 56.27 79.6638 56.2401 79.7065 56.2743Z" fill="#263238"/>
<path id="Vector_105" d="M83.6464 51.7625C83.6464 51.7625 84.0732 53.3333 84.197 54.0888C84.197 54.1571 84.0305 54.2169 83.7701 54.2681C83.7701 54.2681 83.7701 54.2681 83.7403 54.2681C83.1082 54.4756 82.4313 54.5057 81.7833 54.3552C81.1353 54.2046 80.541 53.8792 80.0651 53.4144C80.0492 53.4014 80.0392 53.3826 80.0372 53.3622C80.0352 53.3418 80.0414 53.3214 80.0544 53.3056C80.0674 53.2897 80.0862 53.2797 80.1066 53.2777C80.127 53.2757 80.1474 53.2819 80.1632 53.2949C81.22 53.8186 82.4175 53.9878 83.5781 53.7772C83.6037 53.5595 82.7243 51.1137 82.8439 51.0881C83.4382 51.0574 84.0339 51.1062 84.6153 51.2332C83.783 47.9379 82.4298 44.8005 81.6529 41.5052C81.6273 41.3857 81.7938 41.3259 81.8408 41.4283C83.4927 44.6169 84.5342 48.3903 85.4776 51.771C85.6014 52.2107 83.9665 51.8607 83.6464 51.7625Z" fill="#263238"/>
<path id="Vector_106" d="M62.8031 51.2887C65.5051 51.4978 66.124 45.8335 66.124 45.8335C66.124 45.8335 71.6133 45.8335 73.4275 37.9537C73.4275 37.9537 73.3079 41.629 70.9944 44.4803C70.9944 44.4803 80.6754 43.4559 84.7519 35.3542C84.7519 35.3542 83.1256 39.4819 81.6017 40.9503C81.6017 40.9503 85.6611 39.8148 87.6417 36.5195C87.6417 36.5195 89.3491 41.2149 90.6297 42.4955C90.6297 42.4955 90.2327 25.5579 74.5416 27.3592C74.5416 27.3592 64.7239 28.0123 61.1896 35.7896C57.6552 43.5669 62.8031 51.2887 62.8031 51.2887Z" fill="#263238"/>
<path id="Vector_107" d="M66.4185 52.3473C66.4185 52.3473 62.3549 47.8568 60.2761 49.3593C58.1973 50.8619 61.689 57.6787 64.4379 58.3233C64.7842 58.4301 65.1486 58.4658 65.5091 58.428C65.8696 58.3903 66.2187 58.2799 66.5354 58.1036C66.8521 57.9273 67.1298 57.6887 67.3518 57.4022C67.5738 57.1157 67.7355 56.7873 67.8271 56.4366L66.4185 52.3473Z" fill="#D3766A"/>
<path id="Vector_108" d="M61.3261 51.2972C61.2835 51.2972 61.2835 51.3569 61.3261 51.3655C63.2598 51.8777 64.4422 53.4613 65.3428 55.1431C64.7111 54.5327 63.9214 54.2553 63.089 55.0193C63.0464 55.062 63.089 55.1303 63.1531 55.1132C63.4631 54.9694 63.81 54.925 64.1463 54.9862C64.4826 55.0473 64.7917 55.211 65.0312 55.4547C65.4282 55.8673 65.7802 56.3209 66.0813 56.8079C66.188 56.9615 66.474 56.8335 66.3844 56.6542C66.3836 56.64 66.3836 56.6257 66.3844 56.6115C66.1112 54.2638 63.8745 51.2118 61.3261 51.2972Z" fill="#263238"/>
<path id="Vector_109" d="M64.8306 58.4384C64.8306 58.6073 64.8807 58.7723 64.9745 58.9127C65.0683 59.0531 65.2016 59.1625 65.3576 59.2272C65.5136 59.2918 65.6853 59.3087 65.8509 59.2757C66.0165 59.2428 66.1686 59.1615 66.288 59.0421C66.4074 58.9227 66.4887 58.7706 66.5216 58.605C66.5546 58.4394 66.5377 58.2677 66.4731 58.1117C66.4084 57.9557 66.299 57.8224 66.1586 57.7286C66.0182 57.6348 65.8532 57.5847 65.6843 57.5847C65.4579 57.5847 65.2408 57.6747 65.0807 57.8348C64.9206 57.9949 64.8306 58.212 64.8306 58.4384Z" fill="white"/>
<path id="Vector_110" d="M86.1733 29.6684C84.325 29.8135 74.8488 33.2198 71.1566 36.4682C67.4643 39.7166 61.8469 48.3902 61.5609 48.847C61.2749 49.3037 54.1635 34.1717 66.013 27.1244C78.9168 19.4452 86.1733 29.6684 86.1733 29.6684Z" fill="#FF7959"/>
<path id="Vector_111" d="M62.0859 47.9592C62.0859 47.9592 66.9009 34.0522 70.7681 29.9758C74.6354 25.8993 84.6836 21.0118 92.1109 21.7674C97.9118 22.3479 87.6588 32.9125 87.6588 32.9125C87.6588 32.9125 86.724 31.2051 84.8842 31.1027C81.3072 30.8807 75.6087 33.8089 72.5567 36.0798C68.7406 38.9568 62.0859 47.9592 62.0859 47.9592Z" fill="#FF7959"/>
<path id="Vector_112" opacity="0.2" d="M62.0859 47.9592C62.0859 47.9592 66.9009 34.0522 70.7681 29.9758C74.6354 25.8993 84.6836 21.0118 92.1109 21.7674C97.9118 22.3479 87.6588 32.9125 87.6588 32.9125C87.6588 32.9125 86.724 31.2051 84.8842 31.1027C81.3072 30.8807 75.6087 33.8089 72.5567 36.0798C68.7406 38.9568 62.0859 47.9592 62.0859 47.9592Z" fill="black"/>
<path id="Vector_113" d="M97.2715 100.795H40.056V136.292H97.2715V100.795Z" fill="#FF7959"/>
<path id="Vector_114" opacity="0.2" d="M97.2715 100.795H40.056V136.292H97.2715V100.795Z" fill="black"/>
<path id="Vector_115" opacity="0.2" d="M40.0602 136.292H61.7274L61.7274 100.795H40.0602V136.292Z" fill="black"/>
<path id="Vector_116" d="M41.55 133.846C43.155 131.322 44.7457 128.79 46.3222 126.248L51.0176 118.616L55.6575 110.933C57.197 108.372 58.7209 105.811 60.2291 103.25C58.6242 105.771 57.0348 108.302 55.4612 110.843L50.7658 118.48L46.1259 126.163C44.5863 128.707 43.0611 131.268 41.55 133.846Z" fill="#FF7959"/>
<path id="Vector_117" d="M41.55 103.241C43.0611 105.802 44.5849 108.363 46.1216 110.924L50.7615 118.608L55.4569 126.24C57.0277 128.784 58.617 131.317 60.2249 133.838C58.7166 131.26 57.1928 128.691 55.6532 126.133L51.0133 118.45L46.3179 110.813C44.7471 108.289 43.1578 105.765 41.55 103.241Z" fill="#FF7959"/>
<path id="Vector_118" d="M54.1421 100.795H47.5601V107.377H54.1421V100.795Z" fill="#EBEBEB"/>
<path id="Vector_119" d="M85.2513 126.842H84.7903V133.343H85.2513V126.842Z" fill="#263238"/>
<path id="Vector_120" d="M86.3569 126.842H85.8959V133.343H86.3569V126.842Z" fill="#263238"/>
<path id="Vector_121" d="M87.4624 126.842H87.0014V133.343H87.4624V126.842Z" fill="#263238"/>
<path id="Vector_122" d="M88.5679 126.842H88.1069V133.343H88.5679V126.842Z" fill="#263238"/>
<path id="Vector_123" d="M89.6735 126.842H89.2125V133.343H89.6735V126.842Z" fill="#263238"/>
<path id="Vector_124" d="M90.7791 126.842H90.3181V133.343H90.7791V126.842Z" fill="#263238"/>
<path id="Vector_125" d="M91.8846 126.842H91.4236V133.343H91.8846V126.842Z" fill="#263238"/>
<path id="Vector_126" d="M92.9902 126.842H92.5292V133.343H92.9902V126.842Z" fill="#263238"/>
<path id="Vector_127" d="M94.1 126.842H93.639V133.343H94.1V126.842Z" fill="#263238"/>
<path id="Vector_128" d="M80.2656 132.865L82.0371 133.356H77.8752L79.651 132.856V130.47C78.3704 130.304 77.8752 129.049 77.8752 126.859H82.0371C82.0371 129.044 81.5334 130.304 80.2656 130.47V132.865Z" fill="#263238"/>
<path id="Vector_129" d="M76.9063 130.158H75.8179V133.339H73.0348V130.158H71.9463L74.4263 126.842L76.9063 130.158Z" fill="#263238"/>
<path id="Vector_130" opacity="0.1" d="M97.2715 136.292V133.181L61.7274 127.418V136.288L97.2715 136.292Z" fill="black"/>
<path id="Vector_131" d="M94.1 99.6511H45.7203V100.795H94.1V99.6511Z" fill="#EBEBEB"/>
<path id="Vector_132" d="M92.845 98.5115H44.4654V99.6555H92.845V98.5115Z" fill="#C7C7C7"/>
<path id="Vector_133" d="M96.1032 109.082L61.0836 115.095L64.8969 137.302L99.9165 131.289L96.1032 109.082Z" fill="white"/>
<path id="Vector_134" d="M95.086 109.097C93.9036 110.681 92.6828 112.213 91.4876 113.793C90.2925 115.372 89.0546 116.87 87.8295 118.394C86.5489 119.986 85.2684 121.566 83.9878 123.141L83.8726 123.29C82.7329 124.678 81.5846 126.065 80.4577 127.452L80.287 127.648L80.065 127.516C78.5284 126.58 76.9945 125.641 75.4635 124.699L75.3013 124.601C73.5683 123.534 71.8353 122.466 70.1065 121.365C68.4546 120.332 66.8027 119.274 65.155 118.219C63.5074 117.165 61.8597 116.085 60.2249 114.971C61.9323 115.872 63.5927 116.836 65.2745 117.771C66.9563 118.706 68.6339 119.688 70.3071 120.665C72.1682 121.747 74.0307 122.846 75.8947 123.965C77.2919 124.796 78.6863 125.629 80.0778 126.466C81.1194 125.224 82.1652 123.969 83.2152 122.74C84.611 121.083 86.0068 119.432 87.4197 117.797C88.6832 116.334 89.9524 114.877 91.2273 113.426C92.5121 111.949 93.7799 110.502 95.086 109.097Z" fill="#DBDBDB"/>
<path id="Vector_135" d="M75.9971 124.443L75.9629 124.486C75.805 124.673 75.6513 124.861 75.4934 125.045C74.7421 125.933 73.9653 126.791 73.167 127.627C72.1981 128.664 71.1993 129.668 70.1791 130.666C69.1589 131.665 68.143 132.626 67.0929 133.578C66.0429 134.529 64.9586 135.469 63.8574 136.352C64.758 135.247 65.7142 134.196 66.6831 133.168C67.6521 132.139 68.6552 131.132 69.6711 130.133C70.687 129.134 71.7115 128.165 72.7615 127.209C73.6152 126.453 74.469 125.698 75.3227 124.981C75.5276 124.81 75.7282 124.648 75.9373 124.486L75.9971 124.443Z" fill="#DBDBDB"/>
<path id="Vector_136" d="M98.5948 130.526C97.2502 130.056 95.9312 129.518 94.6336 128.959C93.3359 128.4 92.0426 127.811 90.7577 127.213C89.4729 126.616 88.1966 125.98 86.9545 125.314C85.9343 124.78 84.9184 124.23 83.9238 123.636L83.2921 123.261C83.276 123.249 83.2588 123.239 83.2408 123.231H83.3006C83.5524 123.32 83.8 123.41 84.0433 123.504C85.1147 123.897 86.1776 124.328 87.2063 124.784C88.5082 125.339 89.7931 125.933 91.0736 126.539C92.3542 127.145 93.6347 127.772 94.8812 128.434C96.1276 129.096 97.3825 129.774 98.5948 130.526Z" fill="#DBDBDB"/>
<path id="Vector_137" d="M69.3726 115.64L68.6523 138.059L104.008 139.195L104.728 116.775L69.3726 115.64Z" fill="#EBEBEB"/>
<path id="Vector_138" d="M104.729 116.772C103.256 118.096 101.762 119.355 100.277 120.652C98.7911 121.95 97.2886 123.188 95.7861 124.443C94.2209 125.755 92.6558 127.052 91.0907 128.336L90.9455 128.46L86.7624 131.874L86.5532 132.037L86.3611 131.862C85.0436 130.641 83.726 129.417 82.4085 128.191C82.3599 128.151 82.3142 128.109 82.2719 128.063C80.7779 126.68 79.291 125.282 77.8112 123.871C76.3983 122.531 74.9855 121.169 73.5811 119.807C72.1768 118.446 70.7724 117.063 69.3894 115.65C70.8663 116.87 72.3219 118.147 73.786 119.393C75.2501 120.64 76.7014 121.933 78.1484 123.235C79.7577 124.661 81.3712 126.112 82.9762 127.572L86.5831 130.846C87.8637 129.834 89.1229 128.81 90.3906 127.811C92.098 126.462 93.7969 125.123 95.4873 123.794C97.0154 122.607 98.5478 121.429 100.084 120.26C101.643 119.077 103.175 117.895 104.729 116.772Z" fill="#C7C7C7"/>
<path id="Vector_139" d="M83.0018 128.058C82.9856 128.069 82.9712 128.082 82.9591 128.097L82.3999 128.549C81.4864 129.271 80.5559 129.958 79.6083 130.624C78.4558 131.448 77.2777 132.233 76.0953 133.014C74.9129 133.795 73.7134 134.538 72.4926 135.264C71.2718 135.989 70.0467 136.698 68.7747 137.342C69.876 136.437 71.02 135.597 72.1896 134.781C73.3591 133.966 74.5287 133.168 75.7068 132.391C76.885 131.614 78.0929 130.859 79.3138 130.133C80.2827 129.552 81.2687 128.985 82.2761 128.455C82.5066 128.327 82.7414 128.208 82.9762 128.088L83.0018 128.058Z" fill="#C7C7C7"/>
<path id="Vector_140" d="M103.948 138.474C102.722 137.748 101.536 136.963 100.37 136.16C99.2052 135.358 98.0569 134.521 96.9172 133.684C95.7775 132.848 94.6592 131.977 93.5622 131.072C92.6658 130.346 91.7779 129.604 90.9242 128.827C90.7364 128.665 90.5571 128.498 90.3736 128.332L90.3351 128.293C90.3495 128.307 90.3671 128.317 90.3864 128.323L91.0651 128.75C92.034 129.343 92.9731 129.975 93.9122 130.615C95.0818 131.422 96.2215 132.254 97.3612 133.1C98.5009 133.945 99.615 134.807 100.716 135.708C101.818 136.608 102.889 137.5 103.948 138.474Z" fill="#C7C7C7"/>
<path id="Vector_141" d="M67.11 123.662C62.2438 119.338 34.2806 103.702 28.6163 101.747C22.9519 99.7921 14.9569 102.362 17.5181 110.877C20.0792 119.393 48.8022 144.539 59.6443 146.306C63.4561 146.951 68.8729 125.224 67.11 123.662Z" fill="#D3766A"/>
<path id="Vector_142" d="M75.3526 131.226C74.2385 130.372 74.6824 129.774 77.188 129.753C79.6937 129.732 89.6138 131.768 90.0321 128.246C90.4504 124.725 76.424 122.053 72.2408 122.407C68.0576 122.761 61.4841 124.797 61.4841 124.797C64.0964 125.864 70.226 129.066 75.3526 131.226Z" fill="#D3766A"/>
<path id="Vector_143" d="M55.7728 144.898C63.2854 147.634 72.4713 151.501 81.3456 149.862C82.3298 149.703 83.2319 149.217 83.9067 148.483C87.8978 147.822 88.7814 145.739 88.7814 145.739C92.3115 143.98 92.9219 141.726 92.9219 141.726C92.9219 141.726 97.6173 140.898 97.5661 137.987C97.5405 134.726 90.9754 136.527 86.7624 135.315C77.1027 132.532 64.1391 125.877 61.4499 124.797L55.7728 144.898Z" fill="#D3766A"/>
<path id="Vector_144" d="M74.6098 139.511C77.4698 140.275 80.2571 141.099 83.2024 141.466C86.438 141.893 89.6052 141.726 92.8579 141.654C92.8782 141.654 92.8978 141.662 92.9122 141.676C92.9266 141.691 92.9347 141.71 92.9347 141.73C92.9347 141.751 92.9266 141.77 92.9122 141.785C92.8978 141.799 92.8782 141.807 92.8579 141.807C87.0142 142.866 80.0266 141.935 74.5586 139.639C74.4391 139.583 74.4647 139.472 74.6098 139.511Z" fill="#263238"/>
<path id="Vector_145" d="M72.0828 145.098C74.9043 145.683 79.8729 146.682 88.7899 145.64C88.8198 145.64 88.8326 145.687 88.7899 145.696C83.2783 147.1 77.4849 146.943 72.0572 145.243C71.8822 145.179 71.895 145.056 72.0828 145.098Z" fill="#263238"/>
<path id="Vector_146" d="M70.7809 148.125C75.6172 148.94 78.7717 148.842 83.9025 148.466C83.9323 148.466 83.9451 148.513 83.9025 148.518C78.1186 149.559 75.8989 149.277 70.7212 148.287C70.5504 148.253 70.5931 148.091 70.7809 148.125Z" fill="#263238"/>
<path id="Vector_147" d="M68.5698 122.381L54.9831 149.085C54.9831 149.085 31.2073 135.268 18.4614 113.447C14.2142 106.191 18.4828 96.4242 31.361 101.64C44.2392 106.856 68.5698 122.381 68.5698 122.381Z" fill="#FF7959"/>
<path id="Vector_148" d="M63.089 120.435C60.9548 124.341 52.7208 140.629 51.1841 144.27C51.0774 144.522 51.2097 144.655 51.3548 144.403C58.082 132.878 61.3261 124.46 63.2384 120.524C63.2897 120.426 63.1445 120.337 63.089 120.435Z" fill="#263238"/>
</g>
<g id="freepik--speech-bubble--inject-33">
<path id="Vector_149" d="M128.534 27.3804C128.253 30.0809 127.227 32.6501 125.57 34.8011C123.913 36.9521 121.691 38.6005 119.152 39.5621C116.613 40.5237 113.857 40.7608 111.191 40.2469C108.525 39.733 106.054 38.4883 104.054 36.6517L96.7209 37.7274L100.388 31.3886C99.5476 29.3258 99.1888 27.0987 99.3386 24.8765C99.4884 22.6542 100.143 20.4954 101.252 18.564C102.361 16.6326 103.896 14.9794 105.74 13.7301C107.584 12.4809 109.688 11.6684 111.893 11.3544C114.098 11.0404 116.346 11.2331 118.465 11.918C120.585 12.6029 122.52 13.7619 124.124 15.3069C125.729 16.8519 126.96 18.7423 127.724 20.8343C128.488 22.9264 128.765 25.1652 128.534 27.3804Z" fill="white"/>
<path id="Vector_150" d="M128.534 27.3807C128.252 30.0833 127.229 32.6552 125.576 34.8123C125.165 35.348 124.722 35.8583 124.249 36.3404C123.762 36.8091 123.246 37.2468 122.704 37.6508C121.623 38.4689 120.434 39.1313 119.169 39.6186C117.904 40.1115 116.577 40.4275 115.225 40.5577C114.548 40.6196 113.868 40.6325 113.189 40.5961C112.508 40.5823 111.83 40.5123 111.161 40.387C108.456 39.8916 105.943 38.6513 103.905 36.8057L104.08 36.8611L96.7551 37.9838L96.2215 38.0649L96.4904 37.5953L100.14 31.248V31.4956C99.2798 29.3956 98.9137 27.126 99.0698 24.862C99.226 22.598 99.9003 20.4002 101.041 18.4381C102.182 16.4836 103.751 14.8128 105.629 13.5506C107.506 12.3068 109.64 11.5047 111.872 11.2045C114.103 10.9043 116.373 11.114 118.512 11.8176C120.63 12.536 122.561 13.7187 124.163 15.2794C125.76 16.8346 126.982 18.7317 127.739 20.8278C128.497 22.9239 128.768 25.1644 128.534 27.3807ZM128.534 27.3807C128.765 25.1747 128.487 22.9452 127.722 20.8633C126.956 18.7815 125.724 16.9028 124.119 15.3715C122.515 13.8402 120.581 12.6971 118.465 12.03C116.35 11.3628 114.11 11.1894 111.917 11.5231C109.748 11.851 107.683 12.6684 105.877 13.9135C104.082 15.1709 102.582 16.8036 101.48 18.6985C100.4 20.5974 99.7635 22.7164 99.6193 24.8964C99.4805 27.0811 99.8334 29.2691 100.652 31.2992L100.708 31.4273L100.635 31.5511L96.9471 37.8728L96.6825 37.4886L104.02 36.4599H104.123L104.195 36.5282C106.153 38.3613 108.583 39.6119 111.213 40.1394C111.868 40.274 112.533 40.3553 113.202 40.3827C115.212 40.5263 117.23 40.2351 119.118 39.529C120.384 39.0727 121.575 38.4312 122.652 37.6252C123.195 37.2314 123.713 36.8037 124.202 36.3447C124.676 35.8685 125.121 35.3639 125.534 34.8336C127.205 32.6753 128.244 30.0951 128.534 27.3807Z" fill="#263238"/>
<path id="Vector_151" d="M112.246 34.2147L105.988 27.8802L108.088 25.8014L111.746 29.5022L119.34 17.593L121.833 19.1852L112.246 34.2147Z" fill="#FF7959"/>
</g>
<g id="freepik--Boxes--inject-33">
<path id="Vector_152" d="M172.193 121.882H109.091V170.787H172.193V121.882Z" fill="#FF7959"/>
<path id="Vector_153" opacity="0.2" d="M172.193 121.882H109.091V170.787H172.193V121.882Z" fill="black"/>
<path id="Vector_154" opacity="0.2" d="M109.091 170.791H132.991V121.886H109.091V170.791Z" fill="black"/>
<path id="Vector_155" d="M110.739 167.44C112.512 163.962 114.266 160.474 116.002 156.973L121.184 146.456L126.306 135.891C128.014 132.365 129.694 128.825 131.347 125.271C129.58 128.748 127.827 132.237 126.088 135.737L120.902 146.259L115.78 156.824C114.081 160.336 112.401 163.874 110.739 167.44Z" fill="#FF7959"/>
<path id="Vector_156" d="M110.739 125.25C112.404 128.801 114.084 132.341 115.78 135.87L120.902 146.435L126.088 156.952C127.821 160.452 129.574 163.941 131.347 167.419C129.685 163.867 128.005 160.329 126.306 156.803L121.184 146.238L116.002 135.716C114.263 132.216 112.509 128.727 110.739 125.25Z" fill="#FF7959"/>
<path id="Vector_157" d="M124.62 121.882H117.364V127.849H124.62V121.882Z" fill="#EBEBEB"/>
<path id="Vector_158" d="M158.935 160.363H158.427V167.534H158.935V160.363Z" fill="#263238"/>
<path id="Vector_159" d="M160.151 160.363H159.643V167.534H160.151V160.363Z" fill="#263238"/>
<path id="Vector_160" d="M161.372 160.363H160.864V167.534H161.372V160.363Z" fill="#263238"/>
<path id="Vector_161" d="M162.593 160.363H162.085V167.534H162.593V160.363Z" fill="#263238"/>
<path id="Vector_162" d="M163.814 160.363H163.306V167.534H163.814V160.363Z" fill="#263238"/>
<path id="Vector_163" d="M165.035 160.363H164.527V167.534H165.035V160.363Z" fill="#263238"/>
<path id="Vector_164" d="M166.251 160.363H165.743V167.534H166.251V160.363Z" fill="#263238"/>
<path id="Vector_165" d="M167.472 160.363H166.964V167.534H167.472V160.363Z" fill="#263238"/>
<path id="Vector_166" d="M168.693 160.363H168.185V167.534H168.693V160.363Z" fill="#263238"/>
<path id="Vector_167" d="M153.437 166.987L155.392 167.53H150.803L152.758 166.983V164.345C151.358 164.162 150.803 162.783 150.803 160.367H155.392C155.392 162.774 154.837 164.162 153.437 164.345V166.987Z" fill="#263238"/>
<path id="Vector_168" d="M149.732 164.021H148.532V167.53H145.463V164.021H144.26L147 160.367L149.732 164.021Z" fill="#263238"/>
<path id="Vector_169" opacity="0.1" d="M172.193 170.787V167.355L132.991 160.999V170.787H172.193Z" fill="black"/>
<path id="Vector_170" d="M169.918 104.637H121.167V121.882H169.918V104.637Z" fill="#FF7959"/>
<path id="Vector_171" opacity="0.2" d="M169.918 104.637H121.167V121.882H169.918V104.637Z" fill="black"/>
<path id="Vector_172" opacity="0.2" d="M121.171 121.882H136.068V104.637H121.171V121.882Z" fill="black"/>
<path id="Vector_173" d="M122.196 120.695C123.297 119.466 124.394 118.237 125.474 117.003L128.705 113.294L131.898 109.567C132.957 108.324 134.004 107.076 135.04 105.824C133.935 107.05 132.843 108.281 131.761 109.516L128.526 113.23L125.337 116.956C124.279 118.194 123.231 119.44 122.196 120.695Z" fill="#FF7959"/>
<path id="Vector_174" d="M122.196 105.824C123.231 107.073 124.279 108.321 125.337 109.567L128.526 113.294L131.761 117.003C132.843 118.238 133.935 119.469 135.04 120.695C134.001 119.44 132.954 118.193 131.898 116.952L128.705 113.23L125.474 109.52C124.394 108.278 123.297 107.049 122.196 105.824Z" fill="#FF7959"/>
<path id="Vector_175" d="M130.848 104.637H126.323V108.675H130.848V104.637Z" fill="#EBEBEB"/>
<path id="Vector_176" d="M161.654 115.385H161.338V119.854H161.654V115.385Z" fill="#263238"/>
<path id="Vector_177" d="M162.414 115.385H162.098V119.854H162.414V115.385Z" fill="#263238"/>
<path id="Vector_178" d="M163.174 115.385H162.858V119.854H163.174V115.385Z" fill="#263238"/>
<path id="Vector_179" d="M163.933 115.385H163.617V119.854H163.933V115.385Z" fill="#263238"/>
<path id="Vector_180" d="M164.693 115.385H164.377V119.854H164.693V115.385Z" fill="#263238"/>
<path id="Vector_181" d="M165.453 115.385H165.137V119.854H165.453V115.385Z" fill="#263238"/>
<path id="Vector_182" d="M166.217 115.385H165.901V119.854H166.217V115.385Z" fill="#263238"/>
<path id="Vector_183" d="M166.977 115.385H166.661V119.854H166.977V115.385Z" fill="#263238"/>
<path id="Vector_184" d="M167.737 115.385H167.421V119.854H167.737V115.385Z" fill="#263238"/>
<path id="Vector_185" d="M158.226 119.513L159.447 119.854H156.583L157.804 119.509V117.865C156.95 117.754 156.583 116.892 156.583 115.385H159.447C159.447 116.888 159.101 117.754 158.226 117.865V119.513Z" fill="#263238"/>
<path id="Vector_186" d="M155.917 117.665H155.17V119.854H153.258V117.665H152.506L154.214 115.385L155.917 117.665Z" fill="#263238"/>
<path id="Vector_187" opacity="0.1" d="M169.918 121.882V119.743L136.064 115.782V121.882H169.918Z" fill="black"/>
</g>
</g>
</g>
</g>
</g>
</g>
<defs>
<clipPath id="clip0_2716_28987">
<rect width="390" height="844" fill="white" transform="translate(-104 -444)"/>
</clipPath>
<clipPath id="clip1_2716_28987">
<rect width="342" height="320" fill="white" transform="translate(-80 -108)"/>
</clipPath>
</defs>
</svg>
