<svg width="14" height="16" viewBox="0 0 14 16" fill="none" xmlns="http://www.w3.org/2000/svg">
<g id="elements">
<path id="Rectangle 567" d="M1 7.33334C1 4.83352 1 3.58361 1.63661 2.70739C1.84221 2.42441 2.09107 2.17555 2.37405 1.96995C3.25027 1.33334 4.50018 1.33334 7 1.33334C9.49982 1.33334 10.7497 1.33334 11.626 1.96995C11.9089 2.17555 12.1578 2.42441 12.3634 2.70739C13 3.58361 13 4.83352 13 7.33334V8.66668C13 11.1665 13 12.4164 12.3634 13.2926C12.1578 13.5756 11.9089 13.8245 11.626 14.0301C10.7497 14.6667 9.49982 14.6667 7 14.6667C4.50018 14.6667 3.25027 14.6667 2.37405 14.0301C2.09107 13.8245 1.84221 13.5756 1.63661 13.2926C1 12.4164 1 11.1665 1 8.66668V7.33334Z" stroke="#0E9F6E" stroke-width="1.3"/>
<path id="Vector 4454" d="M9 8.66669L8.42857 7.33335M5 8.66669L5.57143 7.33335M5.57143 7.33335L6.60504 4.92159C6.67117 4.7673 6.82706 4.66669 7 4.66669C7.17294 4.66669 7.32883 4.7673 7.39496 4.92159L8.42857 7.33335M5.57143 7.33335H8.42857" stroke="#0E9F6E" stroke-width="1.3" stroke-linecap="round" stroke-linejoin="round"/>
<path id="Vector 1495" d="M4.33325 11.3333L9.66659 11.3333" stroke="#0E9F6E" stroke-width="1.3" stroke-linecap="round" stroke-linejoin="round"/>
</g>
</svg>
