<svg width="20" height="20" viewBox="0 0 20 20" fill="none" xmlns="http://www.w3.org/2000/svg">
<path d="M1.3191 12.1945C1.12416 13.4348 1.99567 14.2957 3.06272 14.7247C7.15358 16.3695 12.8464 16.3695 16.9373 14.7247C18.0043 14.2957 18.8758 13.4348 18.6809 12.1945C18.5611 11.4323 17.9687 10.7976 17.5299 10.1778C16.955 9.35604 16.8979 8.45972 16.8978 7.50611C16.8978 3.82082 13.8096 0.833313 10 0.833313C6.19045 0.833313 3.1022 3.82082 3.1022 7.50611C3.10212 8.45972 3.045 9.35604 2.47014 10.1778C2.03127 10.7976 1.4389 11.4323 1.3191 12.1945Z" stroke="#111928" stroke-width="1.5" stroke-linecap="round" stroke-linejoin="round"/>
<path d="M7.25 18.25C7.97979 18.82 8.94351 19.1667 10 19.1667C11.0565 19.1667 12.0202 18.82 12.75 18.25" stroke="#111928" stroke-width="1.5" stroke-linecap="round" stroke-linejoin="round"/>
</svg>
