<svg width="14" height="16" viewBox="0 0 14 16" fill="none" xmlns="http://www.w3.org/2000/svg">
<g id="elements">
<path id="Vector" d="M3.38505 10.3211C2.44187 10.8827 -0.0310903 12.0294 1.47511 13.4644C2.21087 14.1654 3.03033 14.6667 4.06058 14.6667H9.93942C10.9697 14.6667 11.7891 14.1654 12.5249 13.4644C14.0311 12.0294 11.5581 10.8827 10.615 10.3211C8.40321 9.0041 5.59679 9.0041 3.38505 10.3211Z" stroke="#6B7280" stroke-width="1.3" stroke-linecap="round" stroke-linejoin="round"/>
<path id="Ellipse 1381" d="M10 4.33334C10 5.9902 8.65685 7.33334 7 7.33334C5.34315 7.33334 4 5.9902 4 4.33334C4 2.67649 5.34315 1.33334 7 1.33334C8.65685 1.33334 10 2.67649 10 4.33334Z" stroke="#6B7280" stroke-width="1.3"/>
</g>
</svg>
