<svg xmlns="http://www.w3.org/2000/svg" width="16" height="17" viewBox="0 0 16 17" fill="none">
<path d="M8.33325 13.5746H6.99992C4.4942 13.5746 3.24134 13.5746 2.40489 12.914C2.27111 12.8084 2.14738 12.692 2.03512 12.566C1.33325 11.7788 1.33325 10.5996 1.33325 8.24129C1.33325 5.88297 1.33325 4.70381 2.03512 3.91656C2.14738 3.79065 2.27111 3.67419 2.40489 3.56854C3.24134 2.90796 4.4942 2.90796 6.99992 2.90796H8.99992C11.5057 2.90796 12.7585 2.90796 13.5949 3.56854C13.7287 3.67419 13.8525 3.79065 13.9647 3.91656C14.5595 4.58368 14.6503 5.53224 14.6641 7.24129" stroke="#111928" stroke-width="1.5" stroke-linecap="round" stroke-linejoin="round"/>
<path d="M12.3333 13.5746V8.90796M10 11.2413H14.6667" stroke="#0E9F6E" stroke-width="1.5" stroke-linecap="round"/>
<path d="M1.33325 6.24133H14.6666" stroke="#111928" stroke-width="1.5" stroke-linejoin="round"/>
</svg>