<svg width="17" height="17" viewBox="0 0 17 17" fill="none" xmlns="http://www.w3.org/2000/svg">
<g id="elements">
<path id="Vector (Stroke)" d="M8.5 1.85544C4.8568 1.85544 1.90341 4.80883 1.90341 8.45203C1.90341 12.0952 4.8568 15.0486 8.5 15.0486C12.1432 15.0486 15.0966 12.0952 15.0966 8.45203C15.0966 8.04723 15.4247 7.71907 15.8295 7.71907C16.2343 7.71907 16.5625 8.04723 16.5625 8.45203C16.5625 12.9048 12.9528 16.5145 8.5 16.5145C4.0472 16.5145 0.4375 12.9048 0.4375 8.45203C0.4375 3.99923 4.0472 0.389526 8.5 0.389526C10.094 0.389526 11.5804 0.852542 12.8313 1.65072L13.75 0.732035C13.8798 0.52624 14.1091 0.389526 14.3704 0.389526C14.7752 0.389526 15.1034 0.717681 15.1034 1.12248V3.41824C15.1034 4.31351 13.991 4.72187 13.411 4.04775C12.2023 2.70094 10.4504 1.85544 8.5 1.85544Z" fill="#1C64F2"/>
</g>
</svg>
