<svg width="18" height="17" viewBox="0 0 18 17" fill="none" xmlns="http://www.w3.org/2000/svg">
<g id="elements">
<path id="Ellipse 1898" d="M9 15.952C13.1421 15.952 16.5 12.5941 16.5 8.452C16.5 4.30986 13.1421 0.951996 8.99997 0.951996C5.64174 0.951996 2.8307 3.15917 1.875 6.202H3.75" stroke="#1C64F2" stroke-width="1.3" stroke-linecap="round" stroke-linejoin="round"/>
<path id="Path" d="M9 5.452V8.452L10.5 9.952" stroke="#1C64F2" stroke-width="1.3" stroke-linecap="round" stroke-linejoin="round"/>
<path id="Ellipse 1899" d="M1.5 8.452C1.5 8.70497 1.5114 8.95514 1.5337 9.202M6.75 15.952C6.4938 15.8677 6.24353 15.7693 6 15.6578M2.40705 12.202C2.26241 11.9233 2.13339 11.6344 2.02123 11.3367M3.62342 13.9319C3.85267 14.1789 4.09729 14.4101 4.35566 14.6239" stroke="#1C64F2" stroke-width="1.3" stroke-linecap="round" stroke-linejoin="round"/>
</g>
</svg>
